%TF.GenerationSoftware,KiCad,Pcbnew,8.0.4-8.0.4-0~ubuntu22.04.1*%
%TF.CreationDate,2024-08-29T16:01:02-03:00*%
%TF.ProjectId,communication_board,636f6d6d-756e-4696-9361-74696f6e5f62,rev?*%
%TF.SameCoordinates,Original*%
%TF.FileFunction,Copper,L1,Top*%
%TF.FilePolarity,Positive*%
%FSLAX46Y46*%
G04 Gerber Fmt 4.6, Leading zero omitted, Abs format (unit mm)*
G04 Created by KiCad (PCBNEW 8.0.4-8.0.4-0~ubuntu22.04.1) date 2024-08-29 16:01:02*
%MOMM*%
%LPD*%
G01*
G04 APERTURE LIST*
G04 Aperture macros list*
%AMRoundRect*
0 Rectangle with rounded corners*
0 $1 Rounding radius*
0 $2 $3 $4 $5 $6 $7 $8 $9 X,Y pos of 4 corners*
0 Add a 4 corners polygon primitive as box body*
4,1,4,$2,$3,$4,$5,$6,$7,$8,$9,$2,$3,0*
0 Add four circle primitives for the rounded corners*
1,1,$1+$1,$2,$3*
1,1,$1+$1,$4,$5*
1,1,$1+$1,$6,$7*
1,1,$1+$1,$8,$9*
0 Add four rect primitives between the rounded corners*
20,1,$1+$1,$2,$3,$4,$5,0*
20,1,$1+$1,$4,$5,$6,$7,0*
20,1,$1+$1,$6,$7,$8,$9,0*
20,1,$1+$1,$8,$9,$2,$3,0*%
G04 Aperture macros list end*
%TA.AperFunction,SMDPad,CuDef*%
%ADD10RoundRect,0.250000X0.650000X-0.325000X0.650000X0.325000X-0.650000X0.325000X-0.650000X-0.325000X0*%
%TD*%
%TA.AperFunction,SMDPad,CuDef*%
%ADD11R,1.200000X0.400000*%
%TD*%
%TA.AperFunction,SMDPad,CuDef*%
%ADD12RoundRect,0.250000X-0.312500X-0.625000X0.312500X-0.625000X0.312500X0.625000X-0.312500X0.625000X0*%
%TD*%
%TA.AperFunction,SMDPad,CuDef*%
%ADD13RoundRect,0.250000X0.325000X0.650000X-0.325000X0.650000X-0.325000X-0.650000X0.325000X-0.650000X0*%
%TD*%
%TA.AperFunction,SMDPad,CuDef*%
%ADD14RoundRect,0.150000X-0.825000X-0.150000X0.825000X-0.150000X0.825000X0.150000X-0.825000X0.150000X0*%
%TD*%
%TA.AperFunction,SMDPad,CuDef*%
%ADD15RoundRect,0.250000X0.312500X0.625000X-0.312500X0.625000X-0.312500X-0.625000X0.312500X-0.625000X0*%
%TD*%
%TA.AperFunction,ComponentPad*%
%ADD16C,0.800000*%
%TD*%
%TA.AperFunction,ComponentPad*%
%ADD17C,6.000000*%
%TD*%
%TA.AperFunction,SMDPad,CuDef*%
%ADD18R,5.500000X2.000000*%
%TD*%
%TA.AperFunction,SMDPad,CuDef*%
%ADD19RoundRect,0.250001X-0.624999X0.462499X-0.624999X-0.462499X0.624999X-0.462499X0.624999X0.462499X0*%
%TD*%
%TA.AperFunction,ComponentPad*%
%ADD20R,1.700000X1.700000*%
%TD*%
%TA.AperFunction,ComponentPad*%
%ADD21O,1.700000X1.700000*%
%TD*%
%TA.AperFunction,SMDPad,CuDef*%
%ADD22R,1.524000X1.524000*%
%TD*%
%TA.AperFunction,SMDPad,CuDef*%
%ADD23RoundRect,0.250001X0.624999X-0.462499X0.624999X0.462499X-0.624999X0.462499X-0.624999X-0.462499X0*%
%TD*%
%TA.AperFunction,SMDPad,CuDef*%
%ADD24RoundRect,0.250000X-0.325000X-0.650000X0.325000X-0.650000X0.325000X0.650000X-0.325000X0.650000X0*%
%TD*%
%TA.AperFunction,ComponentPad*%
%ADD25RoundRect,0.250000X-0.725000X0.600000X-0.725000X-0.600000X0.725000X-0.600000X0.725000X0.600000X0*%
%TD*%
%TA.AperFunction,ComponentPad*%
%ADD26O,1.950000X1.700000*%
%TD*%
%TA.AperFunction,SMDPad,CuDef*%
%ADD27RoundRect,0.250000X0.625000X-0.312500X0.625000X0.312500X-0.625000X0.312500X-0.625000X-0.312500X0*%
%TD*%
%TA.AperFunction,ComponentPad*%
%ADD28C,2.400000*%
%TD*%
%TA.AperFunction,SMDPad,CuDef*%
%ADD29R,1.750000X0.450000*%
%TD*%
%TA.AperFunction,SMDPad,CuDef*%
%ADD30RoundRect,0.250000X-0.625000X0.312500X-0.625000X-0.312500X0.625000X-0.312500X0.625000X0.312500X0*%
%TD*%
%TA.AperFunction,ViaPad*%
%ADD31C,0.600000*%
%TD*%
%TA.AperFunction,Conductor*%
%ADD32C,0.200000*%
%TD*%
G04 APERTURE END LIST*
D10*
%TO.P,C10,1*%
%TO.N,GNDREF*%
X189200000Y-77000000D03*
%TO.P,C10,2*%
%TO.N,Net-(U3-3V3OUT)*%
X189200000Y-74050000D03*
%TD*%
D11*
%TO.P,U1,1,VSS*%
%TO.N,GNDREF*%
X168975000Y-98985000D03*
%TO.P,U1,2,XOUT*%
%TO.N,Net-(U1-XOUT)*%
X168975000Y-99620000D03*
%TO.P,U1,3,XIN*%
%TO.N,Net-(U1-XIN)*%
X168975000Y-100255000D03*
%TO.P,U1,4,DM4*%
%TO.N,unconnected-(U1-DM4-Pad4)*%
X168975000Y-100890000D03*
%TO.P,U1,5,DP4*%
%TO.N,unconnected-(U1-DP4-Pad5)*%
X168975000Y-101525000D03*
%TO.P,U1,6,DM3*%
%TO.N,unconnected-(U1-DM3-Pad6)*%
X168975000Y-102160000D03*
%TO.P,U1,7,DP3*%
%TO.N,unconnected-(U1-DP3-Pad7)*%
X168975000Y-102795000D03*
%TO.P,U1,8,DM2*%
%TO.N,MOTORS_USB_D-*%
X168975000Y-103430000D03*
%TO.P,U1,9,DP2*%
%TO.N,MOTORS_USB_D+*%
X168975000Y-104065000D03*
%TO.P,U1,10,DM1*%
%TO.N,IMU_USB_D-*%
X168975000Y-104700000D03*
%TO.P,U1,11,DP1*%
%TO.N,IMU_USB_D+*%
X168975000Y-105335000D03*
%TO.P,U1,12,VD18_O*%
%TO.N,Net-(U1-VD18)*%
X168975000Y-105970000D03*
%TO.P,U1,13,VD33*%
%TO.N,3v3*%
X168975000Y-106605000D03*
%TO.P,U1,14,REXT*%
%TO.N,Net-(U1-REXT)*%
X168975000Y-107240000D03*
%TO.P,U1,15,DMU*%
%TO.N,USB_D-*%
X174175000Y-107240000D03*
%TO.P,U1,16,DPU*%
%TO.N,USB_D+*%
X174175000Y-106605000D03*
%TO.P,U1,17,~{XRSTJ}*%
%TO.N,3v3*%
X174175000Y-105970000D03*
%TO.P,U1,18,VBUSM*%
%TO.N,Net-(U1-VBUSM)*%
X174175000Y-105335000D03*
%TO.P,U1,19,BUSJ*%
%TO.N,3v3*%
X174175000Y-104700000D03*
%TO.P,U1,20,VDD5*%
%TO.N,USB_PWR*%
X174175000Y-104065000D03*
%TO.P,U1,21,VD33_O*%
%TO.N,3v3*%
X174175000Y-103430000D03*
%TO.P,U1,22,DRV*%
%TO.N,Net-(HUB1-A)*%
X174175000Y-102795000D03*
%TO.P,U1,23,LED1/EESCL*%
%TO.N,Net-(U1-LED1{slash}EESCL)*%
X174175000Y-102160000D03*
%TO.P,U1,24,LED2*%
%TO.N,Net-(U1-LED2)*%
X174175000Y-101525000D03*
%TO.P,U1,25,PWRJ*%
%TO.N,unconnected-(U1-PWRJ-Pad25)*%
X174175000Y-100890000D03*
%TO.P,U1,26,OVCJ*%
%TO.N,3v3*%
X174175000Y-100255000D03*
%TO.P,U1,27,TESTJ/EESDA*%
%TO.N,unconnected-(U1-TESTJ{slash}EESDA-Pad27)*%
X174175000Y-99620000D03*
%TO.P,U1,28,VD18*%
%TO.N,Net-(U1-VD18)*%
X174175000Y-98985000D03*
%TD*%
D12*
%TO.P,R4,1*%
%TO.N,GNDREF*%
X160977500Y-112490000D03*
%TO.P,R4,2*%
%TO.N,Net-(HUB1-K)*%
X163902500Y-112490000D03*
%TD*%
D13*
%TO.P,C1,1*%
%TO.N,Net-(U1-XOUT)*%
X163912500Y-96312500D03*
%TO.P,C1,2*%
%TO.N,GNDREF*%
X160962500Y-96312500D03*
%TD*%
D14*
%TO.P,U4,1,RO*%
%TO.N,Net-(U3-RXD)*%
X178708000Y-73619000D03*
%TO.P,U4,2,~{RE}*%
%TO.N,Net-(U3-CBUS3)*%
X178708000Y-74889000D03*
%TO.P,U4,3,DE*%
%TO.N,Net-(U3-CBUS2)*%
X178708000Y-76159000D03*
%TO.P,U4,4,DI*%
%TO.N,Net-(U3-TXD)*%
X178708000Y-77429000D03*
%TO.P,U4,5,GND*%
%TO.N,GNDREF*%
X183658000Y-77429000D03*
%TO.P,U4,6,A*%
%TO.N,Net-(U4-A)*%
X183658000Y-76159000D03*
%TO.P,U4,7,B*%
%TO.N,Net-(U4-B)*%
X183658000Y-74889000D03*
%TO.P,U4,8,VCC*%
%TO.N,USB_PWR*%
X183658000Y-73619000D03*
%TD*%
D15*
%TO.P,R1,1*%
%TO.N,Net-(U1-REXT)*%
X163900000Y-108312500D03*
%TO.P,R1,2*%
%TO.N,GNDREF*%
X160975000Y-108312500D03*
%TD*%
D12*
%TO.P,R5,1*%
%TO.N,USB_PWR*%
X178612500Y-96312500D03*
%TO.P,R5,2*%
%TO.N,Net-(U1-VBUSM)*%
X181537500Y-96312500D03*
%TD*%
D15*
%TO.P,R2,1*%
%TO.N,Net-(U1-LED1{slash}EESCL)*%
X173162500Y-112512500D03*
%TO.P,R2,2*%
%TO.N,Net-(IMU1-K)*%
X170237500Y-112512500D03*
%TD*%
D16*
%TO.P,REF\u002A\u002A,1*%
%TO.N,N/C*%
X196050000Y-28300000D03*
X196709010Y-26709010D03*
X196709010Y-29890990D03*
X198300000Y-26050000D03*
D17*
X198300000Y-28300000D03*
D16*
X198300000Y-30550000D03*
X199890990Y-26709010D03*
X199890990Y-29890990D03*
X200550000Y-28300000D03*
%TD*%
D18*
%TO.P,Y1,1,1*%
%TO.N,Net-(U1-XOUT)*%
X167250000Y-86000000D03*
%TO.P,Y1,2,2*%
%TO.N,Net-(U1-XIN)*%
X176750000Y-86000000D03*
%TD*%
D13*
%TO.P,C3,1*%
%TO.N,USB_PWR*%
X163912500Y-104312500D03*
%TO.P,C3,2*%
%TO.N,GNDREF*%
X160962500Y-104312500D03*
%TD*%
D16*
%TO.P,REF\u002A\u002A,1*%
%TO.N,N/C*%
X196050000Y-119100000D03*
X196709010Y-117509010D03*
X196709010Y-120690990D03*
X198300000Y-116850000D03*
D17*
X198300000Y-119100000D03*
D16*
X198300000Y-121350000D03*
X199890990Y-117509010D03*
X199890990Y-120690990D03*
X200550000Y-119100000D03*
%TD*%
D19*
%TO.P,D7,1,K*%
%TO.N,Net-(D7-K)*%
X198860000Y-55862500D03*
%TO.P,D7,2,A*%
%TO.N,Net-(D7-A)*%
X198860000Y-58837500D03*
%TD*%
D15*
%TO.P,R6,1*%
%TO.N,GNDREF*%
X181537500Y-92312500D03*
%TO.P,R6,2*%
%TO.N,Net-(U1-VBUSM)*%
X178612500Y-92312500D03*
%TD*%
D20*
%TO.P,J2,1,Pin_1*%
%TO.N,GNDREF*%
X139000000Y-108300000D03*
D21*
%TO.P,J2,2,Pin_2*%
%TO.N,USB_PWR*%
X139000000Y-105760000D03*
%TO.P,J2,3,Pin_3*%
%TO.N,Net-(J2-Pin_3)*%
X139000000Y-103220000D03*
%TO.P,J2,4,Pin_4*%
%TO.N,Net-(J2-Pin_4)*%
X139000000Y-100680000D03*
%TD*%
D16*
%TO.P,REF\u002A\u002A,1*%
%TO.N,N/C*%
X101050000Y-119100000D03*
X101709010Y-117509010D03*
X101709010Y-120690990D03*
X103300000Y-116850000D03*
D17*
X103300000Y-119100000D03*
D16*
X103300000Y-121350000D03*
X104890990Y-117509010D03*
X104890990Y-120690990D03*
X105550000Y-119100000D03*
%TD*%
D20*
%TO.P,J1,1,Pin_1*%
%TO.N,Net-(J1-Pin_1)*%
X189738000Y-90805000D03*
D21*
%TO.P,J1,2,Pin_2*%
%TO.N,USB_D-*%
X189738000Y-93345000D03*
%TO.P,J1,3,Pin_3*%
%TO.N,USB_D+*%
X189738000Y-95885000D03*
%TO.P,J1,4,Pin_4*%
%TO.N,GNDREF*%
X189738000Y-98425000D03*
%TD*%
D22*
%TO.P,REF\u002A\u002A,1*%
%TO.N,N/C*%
X128572000Y-34632000D03*
%TO.P,REF\u002A\u002A,2*%
X130572000Y-34632000D03*
%TO.P,REF\u002A\u002A,3*%
X132572000Y-34632000D03*
%TO.P,REF\u002A\u002A,4*%
X134572000Y-34632000D03*
%TO.P,REF\u002A\u002A,5*%
X128572000Y-36632000D03*
%TO.P,REF\u002A\u002A,6*%
X130572000Y-36632000D03*
%TO.P,REF\u002A\u002A,7*%
X132572000Y-36632000D03*
%TO.P,REF\u002A\u002A,8*%
X134572000Y-36632000D03*
%TD*%
D23*
%TO.P,HUB1,1,K*%
%TO.N,Net-(HUB1-K)*%
X190246000Y-104484500D03*
%TO.P,HUB1,2,A*%
%TO.N,Net-(HUB1-A)*%
X190246000Y-101509500D03*
%TD*%
D24*
%TO.P,C8,1*%
%TO.N,3v3*%
X178600000Y-100312500D03*
%TO.P,C8,2*%
%TO.N,GNDREF*%
X181550000Y-100312500D03*
%TD*%
D12*
%TO.P,R9,1*%
%TO.N,Net-(D5-A)*%
X145837500Y-92312500D03*
%TO.P,R9,2*%
%TO.N,USB_PWR*%
X148762500Y-92312500D03*
%TD*%
D25*
%TO.P,J4,1,1*%
%TO.N,GNDREF*%
X199200000Y-41300000D03*
D26*
%TO.P,J4,2,2*%
%TO.N,unconnected-(J4-Pad2)*%
X199200000Y-43800000D03*
%TO.P,J4,3,3*%
%TO.N,Net-(U4-A)*%
X199200000Y-46300000D03*
%TO.P,J4,4,4*%
%TO.N,Net-(U4-B)*%
X199200000Y-48800000D03*
%TD*%
D15*
%TO.P,R3,1*%
%TO.N,Net-(U1-LED2)*%
X181562500Y-112512500D03*
%TO.P,R3,2*%
%TO.N,Net-(MTRS1-K)*%
X178637500Y-112512500D03*
%TD*%
D27*
%TO.P,R14,1*%
%TO.N,GNDREF*%
X172700000Y-60862500D03*
%TO.P,R14,2*%
%TO.N,Net-(U4-B)*%
X172700000Y-57937500D03*
%TD*%
D16*
%TO.P,REF\u002A\u002A,1*%
%TO.N,N/C*%
X101050000Y-28300000D03*
X101709010Y-26709010D03*
X101709010Y-29890990D03*
X103300000Y-26050000D03*
D17*
X103300000Y-28300000D03*
D16*
X103300000Y-30550000D03*
X104890990Y-26709010D03*
X104890990Y-29890990D03*
X105550000Y-28300000D03*
%TD*%
D13*
%TO.P,C5,1*%
%TO.N,Net-(U1-VD18)*%
X163912500Y-92312500D03*
%TO.P,C5,2*%
%TO.N,GNDREF*%
X160962500Y-92312500D03*
%TD*%
D27*
%TO.P,R13,1*%
%TO.N,Net-(U4-B)*%
X172600000Y-68562500D03*
%TO.P,R13,2*%
%TO.N,Net-(U4-A)*%
X172600000Y-65637500D03*
%TD*%
D28*
%TO.P,J3,1,1*%
%TO.N,Net-(J1-Pin_1)*%
X195531000Y-84713000D03*
%TO.P,J3,2,2*%
%TO.N,USB_PWR*%
X195531000Y-71243000D03*
%TO.P,J3,3,3*%
%TO.N,Net-(J1-Pin_1)*%
X198931000Y-84713000D03*
%TO.P,J3,4,4*%
%TO.N,USB_PWR*%
X198931000Y-71243000D03*
%TD*%
D23*
%TO.P,D4,1,K*%
%TO.N,Net-(D4-K)*%
X103400000Y-108987500D03*
%TO.P,D4,2,A*%
%TO.N,Net-(D4-A)*%
X103400000Y-106012500D03*
%TD*%
D29*
%TO.P,U3,1,TXD*%
%TO.N,Net-(U3-TXD)*%
X177608000Y-61199000D03*
%TO.P,U3,2,DTR*%
%TO.N,unconnected-(U3-DTR-Pad2)*%
X177608000Y-61849000D03*
%TO.P,U3,3,RTS*%
%TO.N,unconnected-(U3-RTS-Pad3)*%
X177608000Y-62499000D03*
%TO.P,U3,4,VCCIO*%
%TO.N,USB_PWR*%
X177608000Y-63149000D03*
%TO.P,U3,5,RXD*%
%TO.N,Net-(U3-RXD)*%
X177608000Y-63799000D03*
%TO.P,U3,6,RI*%
%TO.N,unconnected-(U3-RI-Pad6)*%
X177608000Y-64449000D03*
%TO.P,U3,7,GND*%
%TO.N,GNDREF*%
X177608000Y-65099000D03*
%TO.P,U3,8*%
%TO.N,N/C*%
X177608000Y-65749000D03*
%TO.P,U3,9,DCR*%
%TO.N,unconnected-(U3-DCR-Pad9)*%
X177608000Y-66399000D03*
%TO.P,U3,10,DCD*%
%TO.N,unconnected-(U3-DCD-Pad10)*%
X177608000Y-67049000D03*
%TO.P,U3,11,CTS*%
%TO.N,unconnected-(U3-CTS-Pad11)*%
X177608000Y-67699000D03*
%TO.P,U3,12,CBUS4*%
%TO.N,unconnected-(U3-CBUS4-Pad12)*%
X177608000Y-68349000D03*
%TO.P,U3,13,CBUS2*%
%TO.N,Net-(U3-CBUS2)*%
X177608000Y-68999000D03*
%TO.P,U3,14,CBUS3*%
%TO.N,Net-(U3-CBUS3)*%
X177608000Y-69649000D03*
%TO.P,U3,15,USBD+*%
%TO.N,MOTORS_USB_D+*%
X184808000Y-69649000D03*
%TO.P,U3,16,USBD-*%
%TO.N,MOTORS_USB_D-*%
X184808000Y-68999000D03*
%TO.P,U3,17,3V3OUT*%
%TO.N,Net-(U3-3V3OUT)*%
X184808000Y-68349000D03*
%TO.P,U3,18,GND*%
%TO.N,GNDREF*%
X184808000Y-67699000D03*
%TO.P,U3,19,~{RESET}*%
%TO.N,unconnected-(U3-~{RESET}-Pad19)*%
X184808000Y-67049000D03*
%TO.P,U3,20,VCC*%
%TO.N,USB_PWR*%
X184808000Y-66399000D03*
%TO.P,U3,21,GND*%
%TO.N,GNDREF*%
X184808000Y-65749000D03*
%TO.P,U3,22,CBUS1*%
%TO.N,Net-(D7-K)*%
X184808000Y-65099000D03*
%TO.P,U3,23,CBUS0*%
%TO.N,Net-(D6-K)*%
X184808000Y-64449000D03*
%TO.P,U3,24*%
%TO.N,N/C*%
X184808000Y-63799000D03*
%TO.P,U3,25,AGND*%
%TO.N,GNDREF*%
X184808000Y-63149000D03*
%TO.P,U3,26,TEST*%
X184808000Y-62499000D03*
%TO.P,U3,27,OSCI*%
%TO.N,unconnected-(U3-OSCI-Pad27)*%
X184808000Y-61849000D03*
%TO.P,U3,28,OSCO*%
%TO.N,unconnected-(U3-OSCO-Pad28)*%
X184808000Y-61199000D03*
%TD*%
D23*
%TO.P,MTRS1,1,K*%
%TO.N,Net-(MTRS1-K)*%
X190246000Y-109818500D03*
%TO.P,MTRS1,2,A*%
%TO.N,Net-(HUB1-A)*%
X190246000Y-106843500D03*
%TD*%
D13*
%TO.P,C2,1*%
%TO.N,Net-(U1-XIN)*%
X163912500Y-100312500D03*
%TO.P,C2,2*%
%TO.N,GNDREF*%
X160962500Y-100312500D03*
%TD*%
D23*
%TO.P,D5,1,K*%
%TO.N,Net-(D5-K)*%
X103400000Y-100987500D03*
%TO.P,D5,2,A*%
%TO.N,Net-(D5-A)*%
X103400000Y-98012500D03*
%TD*%
D24*
%TO.P,C9,1*%
%TO.N,GNDREF*%
X149425000Y-112512500D03*
%TO.P,C9,2*%
%TO.N,Net-(U2-3V3OUT)*%
X152375000Y-112512500D03*
%TD*%
D29*
%TO.P,U2,1,TXD*%
%TO.N,Net-(J2-Pin_3)*%
X147300000Y-98887500D03*
%TO.P,U2,2,DTR*%
%TO.N,unconnected-(U2-DTR-Pad2)*%
X147300000Y-99537500D03*
%TO.P,U2,3,RTS*%
%TO.N,unconnected-(U2-RTS-Pad3)*%
X147300000Y-100187500D03*
%TO.P,U2,4,VCCIO*%
%TO.N,USB_PWR*%
X147300000Y-100837500D03*
%TO.P,U2,5,RXD*%
%TO.N,Net-(J2-Pin_4)*%
X147300000Y-101487500D03*
%TO.P,U2,6,RI*%
%TO.N,unconnected-(U2-RI-Pad6)*%
X147300000Y-102137500D03*
%TO.P,U2,7,GND*%
%TO.N,GNDREF*%
X147300000Y-102787500D03*
%TO.P,U2,8*%
%TO.N,N/C*%
X147300000Y-103437500D03*
%TO.P,U2,9,DCR*%
%TO.N,unconnected-(U2-DCR-Pad9)*%
X147300000Y-104087500D03*
%TO.P,U2,10,DCD*%
%TO.N,unconnected-(U2-DCD-Pad10)*%
X147300000Y-104737500D03*
%TO.P,U2,11,CTS*%
%TO.N,unconnected-(U2-CTS-Pad11)*%
X147300000Y-105387500D03*
%TO.P,U2,12,CBUS4*%
%TO.N,unconnected-(U2-CBUS4-Pad12)*%
X147300000Y-106037500D03*
%TO.P,U2,13,CBUS2*%
%TO.N,unconnected-(U2-CBUS2-Pad13)*%
X147300000Y-106687500D03*
%TO.P,U2,14,CBUS3*%
%TO.N,unconnected-(U2-CBUS3-Pad14)*%
X147300000Y-107337500D03*
%TO.P,U2,15,USBD+*%
%TO.N,IMU_USB_D+*%
X154500000Y-107337500D03*
%TO.P,U2,16,USBD-*%
%TO.N,IMU_USB_D-*%
X154500000Y-106687500D03*
%TO.P,U2,17,3V3OUT*%
%TO.N,Net-(U2-3V3OUT)*%
X154500000Y-106037500D03*
%TO.P,U2,18,GND*%
%TO.N,GNDREF*%
X154500000Y-105387500D03*
%TO.P,U2,19,~{RESET}*%
%TO.N,unconnected-(U2-~{RESET}-Pad19)*%
X154500000Y-104737500D03*
%TO.P,U2,20,VCC*%
%TO.N,USB_PWR*%
X154500000Y-104087500D03*
%TO.P,U2,21,GND*%
%TO.N,GNDREF*%
X154500000Y-103437500D03*
%TO.P,U2,22,CBUS1*%
%TO.N,Net-(D5-K)*%
X154500000Y-102787500D03*
%TO.P,U2,23,CBUS0*%
%TO.N,Net-(D4-K)*%
X154500000Y-102137500D03*
%TO.P,U2,24*%
%TO.N,N/C*%
X154500000Y-101487500D03*
%TO.P,U2,25,AGND*%
%TO.N,GNDREF*%
X154500000Y-100837500D03*
%TO.P,U2,26,TEST*%
X154500000Y-100187500D03*
%TO.P,U2,27,OSCI*%
%TO.N,unconnected-(U2-OSCI-Pad27)*%
X154500000Y-99537500D03*
%TO.P,U2,28,OSCO*%
%TO.N,unconnected-(U2-OSCO-Pad28)*%
X154500000Y-98887500D03*
%TD*%
D15*
%TO.P,R8,1*%
%TO.N,Net-(D4-A)*%
X155962500Y-92312500D03*
%TO.P,R8,2*%
%TO.N,USB_PWR*%
X153037500Y-92312500D03*
%TD*%
D27*
%TO.P,R12,1*%
%TO.N,USB_PWR*%
X172700000Y-76962500D03*
%TO.P,R12,2*%
%TO.N,Net-(U4-A)*%
X172700000Y-74037500D03*
%TD*%
D23*
%TO.P,D6,1,K*%
%TO.N,Net-(D6-K)*%
X198860000Y-64607500D03*
%TO.P,D6,2,A*%
%TO.N,Net-(D6-A)*%
X198860000Y-61632500D03*
%TD*%
D13*
%TO.P,C6,1*%
%TO.N,Net-(U1-VD18)*%
X172975000Y-92312500D03*
%TO.P,C6,2*%
%TO.N,GNDREF*%
X170025000Y-92312500D03*
%TD*%
D27*
%TO.P,R11,1*%
%TO.N,Net-(D7-A)*%
X189200000Y-66062500D03*
%TO.P,R11,2*%
%TO.N,USB_PWR*%
X189200000Y-63137500D03*
%TD*%
D24*
%TO.P,C4,1*%
%TO.N,USB_PWR*%
X178600000Y-108312500D03*
%TO.P,C4,2*%
%TO.N,GNDREF*%
X181550000Y-108312500D03*
%TD*%
D30*
%TO.P,R7,1*%
%TO.N,USB_PWR*%
X189200000Y-68462500D03*
%TO.P,R7,2*%
%TO.N,Net-(U3-CBUS3)*%
X189200000Y-71387500D03*
%TD*%
%TO.P,R10,1*%
%TO.N,Net-(D6-A)*%
X189200000Y-57937500D03*
%TO.P,R10,2*%
%TO.N,USB_PWR*%
X189200000Y-60862500D03*
%TD*%
D23*
%TO.P,IMU1,1,K*%
%TO.N,Net-(IMU1-K)*%
X190246000Y-115152500D03*
%TO.P,IMU1,2,A*%
%TO.N,Net-(HUB1-A)*%
X190246000Y-112177500D03*
%TD*%
D24*
%TO.P,C7,1*%
%TO.N,3v3*%
X178600000Y-104312500D03*
%TO.P,C7,2*%
%TO.N,GNDREF*%
X181550000Y-104312500D03*
%TD*%
D31*
%TO.N,USB_PWR*%
X196088000Y-74676000D03*
X177546000Y-96312500D03*
X162306000Y-105918000D03*
%TO.N,Net-(U1-VD18)*%
X175768000Y-93726000D03*
X164084000Y-90170000D03*
%TO.N,3v3*%
X178600000Y-102200000D03*
X175800000Y-105200000D03*
%TO.N,Net-(HUB1-A)*%
X184150000Y-107315000D03*
X176530000Y-102870000D03*
%TO.N,Net-(U1-LED1{slash}EESCL)*%
X172720000Y-102235000D03*
X171450000Y-104775000D03*
%TO.N,Net-(D4-K)*%
X152000000Y-102000000D03*
X101600000Y-102000000D03*
%TO.N,Net-(D5-K)*%
X106200000Y-100900000D03*
X151000000Y-102750000D03*
%TO.N,MOTORS_USB_D-*%
X180975000Y-70104000D03*
X166497000Y-102997000D03*
%TO.N,MOTORS_USB_D+*%
X182118000Y-70104000D03*
X166116000Y-103759000D03*
%TD*%
D32*
%TO.N,Net-(U1-XOUT)*%
X163912500Y-96312500D02*
X167220000Y-99620000D01*
X167250000Y-92975000D02*
X163912500Y-96312500D01*
X167250000Y-86000000D02*
X167250000Y-92975000D01*
X167220000Y-99620000D02*
X168975000Y-99620000D01*
%TO.N,GNDREF*%
X160962500Y-100312500D02*
X154625000Y-100312500D01*
X176558000Y-65099000D02*
X176022000Y-65635000D01*
X149425000Y-112512500D02*
X149425000Y-108639000D01*
X195326000Y-60452000D02*
X191824000Y-56950000D01*
X183733000Y-63149000D02*
X183200000Y-63682000D01*
X188771000Y-77429000D02*
X189200000Y-77000000D01*
X154500000Y-105387500D02*
X155552500Y-105387500D01*
X162237500Y-107121384D02*
X163821884Y-105537000D01*
X156452500Y-106287500D02*
X157184314Y-106287500D01*
X191262000Y-73782000D02*
X190119000Y-74925000D01*
X157184314Y-106287500D02*
X157418628Y-106521815D01*
X176022000Y-68812314D02*
X175600000Y-69234314D01*
X174498000Y-76398000D02*
X174498000Y-62660500D01*
X183200000Y-65191000D02*
X183758000Y-65749000D01*
X183629000Y-77400000D02*
X183658000Y-77429000D01*
X155552500Y-105387500D02*
X156452500Y-106287500D01*
X178100000Y-82804000D02*
X177800000Y-82804000D01*
X198400000Y-41300000D02*
X195866314Y-43833686D01*
X182400000Y-99462500D02*
X182737500Y-99462500D01*
X182400000Y-93175000D02*
X182400000Y-99462500D01*
X161037500Y-112512500D02*
X161037500Y-108375000D01*
X185883000Y-67699000D02*
X187907000Y-69723000D01*
X182130000Y-99732500D02*
X181550000Y-100312500D01*
X180829000Y-74832448D02*
X180829000Y-76829000D01*
X144512500Y-102787500D02*
X139000000Y-108300000D01*
X174038750Y-62181250D02*
X174018750Y-62181250D01*
X160962500Y-92312500D02*
X160962500Y-96312500D01*
X180829000Y-76829000D02*
X181400000Y-77400000D01*
X184808000Y-63149000D02*
X183733000Y-63149000D01*
X199551744Y-60452000D02*
X195326000Y-60452000D01*
X195866314Y-43833686D02*
X195866314Y-51999372D01*
X181537500Y-86541500D02*
X181537500Y-92312500D01*
X152676500Y-105387500D02*
X154500000Y-105387500D01*
X160962500Y-92312500D02*
X160962500Y-87195500D01*
X182400000Y-99462500D02*
X181550000Y-100312500D01*
X177800000Y-82804000D02*
X179959000Y-84963000D01*
X173863000Y-84201000D02*
X179197000Y-84201000D01*
X184808000Y-62499000D02*
X184808000Y-63149000D01*
X164846000Y-103251000D02*
X164338000Y-102743000D01*
X190505814Y-64516000D02*
X191859314Y-63162500D01*
X183658000Y-77429000D02*
X178283000Y-82804000D01*
X199226500Y-63162500D02*
X200049000Y-62340000D01*
X157418628Y-106521815D02*
X159690000Y-108793186D01*
X190119000Y-74925000D02*
X188315256Y-74925000D01*
X164447744Y-105537000D02*
X164846000Y-105138744D01*
X195866314Y-51999372D02*
X190915686Y-56950000D01*
X183658000Y-77429000D02*
X188771000Y-77429000D01*
X170025000Y-97935000D02*
X168975000Y-98985000D01*
X175600000Y-69234314D02*
X175600000Y-75000000D01*
X160962500Y-87195500D02*
X165354000Y-82804000D01*
X179959000Y-84963000D02*
X181537500Y-86541500D01*
X183775000Y-98425000D02*
X189738000Y-98425000D01*
X147300000Y-102787500D02*
X144512500Y-102787500D01*
X186288256Y-72898000D02*
X182763448Y-72898000D01*
X160962500Y-96312500D02*
X160962500Y-100312500D01*
X191859314Y-63162500D02*
X199226500Y-63162500D01*
X150950000Y-105387500D02*
X148350000Y-102787500D01*
X180771000Y-78029000D02*
X176129000Y-78029000D01*
X181400000Y-77400000D02*
X183629000Y-77400000D01*
X181400000Y-77400000D02*
X180771000Y-78029000D01*
X174498000Y-62660500D02*
X174018750Y-62181250D01*
X190500000Y-69723000D02*
X191262000Y-70485000D01*
X187960000Y-64516000D02*
X190505814Y-64516000D01*
X160962500Y-100312500D02*
X155025000Y-100312500D01*
X165354000Y-82804000D02*
X177800000Y-82804000D01*
X162237500Y-109503615D02*
X162237500Y-107121384D01*
X163821884Y-105537000D02*
X164447744Y-105537000D01*
X184808000Y-67699000D02*
X185883000Y-67699000D01*
X200049000Y-62340000D02*
X200049000Y-60949256D01*
X149425000Y-108639000D02*
X152676500Y-105387500D01*
X160962500Y-104312500D02*
X160962500Y-108300000D01*
X177608000Y-65099000D02*
X176558000Y-65099000D01*
X183758000Y-65749000D02*
X184808000Y-65749000D01*
X159690000Y-108793186D02*
X159690000Y-113490430D01*
X160087500Y-103437500D02*
X154500000Y-103437500D01*
X160962500Y-100312500D02*
X160962500Y-104312500D01*
X179197000Y-84201000D02*
X179959000Y-84963000D01*
X159690000Y-113490430D02*
X160264570Y-114065000D01*
X154625000Y-100312500D02*
X154500000Y-100187500D01*
X160264570Y-114065000D02*
X161690430Y-114065000D01*
X164846000Y-105138744D02*
X164846000Y-103251000D01*
X191262000Y-70485000D02*
X191262000Y-73782000D01*
X187907000Y-69723000D02*
X190500000Y-69723000D01*
X164338000Y-102743000D02*
X162532000Y-102743000D01*
X181550000Y-100312500D02*
X181550000Y-104312500D01*
X154500000Y-105387500D02*
X150950000Y-105387500D01*
X170025000Y-92312500D02*
X170025000Y-97935000D01*
X161690430Y-114065000D02*
X162240000Y-113515430D01*
X188315256Y-74925000D02*
X186288256Y-72898000D01*
X176022000Y-65635000D02*
X176022000Y-68812314D01*
X179270000Y-56950000D02*
X174038750Y-62181250D01*
X170025000Y-92312500D02*
X170025000Y-88039000D01*
X178283000Y-82804000D02*
X178100000Y-82804000D01*
X182763448Y-72898000D02*
X180829000Y-74832448D01*
X172700000Y-60862500D02*
X174018750Y-62181250D01*
X177429000Y-76829000D02*
X180829000Y-76829000D01*
X175600000Y-75000000D02*
X177429000Y-76829000D01*
X162240000Y-113515430D02*
X162240000Y-109506115D01*
X200049000Y-60949256D02*
X199551744Y-60452000D01*
X162532000Y-102743000D02*
X160962500Y-104312500D01*
X184808000Y-63149000D02*
X186593000Y-63149000D01*
X181537500Y-92312500D02*
X182400000Y-93175000D01*
X181550000Y-104312500D02*
X181550000Y-108312500D01*
X191824000Y-56950000D02*
X190915686Y-56950000D01*
X160962500Y-104312500D02*
X160087500Y-103437500D01*
X155025000Y-100312500D02*
X154500000Y-100837500D01*
X186593000Y-63149000D02*
X187960000Y-64516000D01*
X162240000Y-109506115D02*
X162237500Y-109503615D01*
X183200000Y-63682000D02*
X183200000Y-65191000D01*
X170025000Y-88039000D02*
X173863000Y-84201000D01*
X161037500Y-108375000D02*
X160975000Y-108312500D01*
X190915686Y-56950000D02*
X179270000Y-56950000D01*
X160962500Y-108300000D02*
X160975000Y-108312500D01*
X182737500Y-99462500D02*
X183775000Y-98425000D01*
X199200000Y-41300000D02*
X198400000Y-41300000D01*
X148350000Y-102787500D02*
X147300000Y-102787500D01*
X176129000Y-78029000D02*
X174498000Y-76398000D01*
%TO.N,Net-(U1-XIN)*%
X170900000Y-90085000D02*
X170900000Y-99130000D01*
X168975000Y-100255000D02*
X163970000Y-100255000D01*
X174985000Y-86000000D02*
X170900000Y-90085000D01*
X163970000Y-100255000D02*
X163912500Y-100312500D01*
X170900000Y-99130000D02*
X169775000Y-100255000D01*
X176750000Y-86000000D02*
X174985000Y-86000000D01*
X169775000Y-100255000D02*
X168975000Y-100255000D01*
%TO.N,USB_PWR*%
X155550000Y-104087500D02*
X155718186Y-104255686D01*
X178612500Y-95437500D02*
X174192843Y-91017843D01*
X147300000Y-100837500D02*
X148375000Y-100837500D01*
X148762500Y-98075000D02*
X148475000Y-98362500D01*
X148375000Y-100837500D02*
X148475000Y-100737500D01*
X153037500Y-92312500D02*
X148762500Y-92312500D01*
X189200000Y-68462500D02*
X188325000Y-68462500D01*
X174192843Y-91017843D02*
X172509913Y-91017843D01*
X148475000Y-100737500D02*
X148475000Y-98362500D01*
X196088000Y-71800000D02*
X196088000Y-71865000D01*
X169867814Y-76962500D02*
X159700000Y-87130314D01*
X154500000Y-104087500D02*
X155550000Y-104087500D01*
X150569500Y-104087500D02*
X148475000Y-101993000D01*
X171958000Y-100526314D02*
X171685000Y-100799314D01*
X160090000Y-108627500D02*
X160090000Y-113324744D01*
X172700000Y-76962500D02*
X169867814Y-76962500D01*
X195531000Y-71243000D02*
X196088000Y-71800000D01*
X178600000Y-106775686D02*
X175889314Y-104065000D01*
X172645000Y-104065000D02*
X174175000Y-104065000D01*
X188937500Y-60600000D02*
X189200000Y-60862500D01*
X148475000Y-98362500D02*
X139000500Y-98362500D01*
X188325000Y-68462500D02*
X186261500Y-66399000D01*
X193443000Y-71243000D02*
X190662500Y-68462500D01*
X159700000Y-87130314D02*
X159700000Y-90900000D01*
X181848686Y-66399000D02*
X178598686Y-63149000D01*
X137450000Y-99913000D02*
X137450000Y-104210000D01*
X178600000Y-108312500D02*
X178600000Y-106775686D01*
X196088000Y-71865000D02*
X196088000Y-74676000D01*
X161837500Y-111627756D02*
X161837500Y-106387500D01*
X157350000Y-105887500D02*
X160090000Y-108627500D01*
X160090000Y-113324744D02*
X160430256Y-113665000D01*
X162306000Y-105919000D02*
X162306000Y-105918000D01*
X171685000Y-103105000D02*
X172645000Y-104065000D01*
X155718186Y-104987500D02*
X156618186Y-105887500D01*
X156618186Y-105887500D02*
X157350000Y-105887500D01*
X171685000Y-100799314D02*
X171685000Y-103105000D01*
X190662500Y-68462500D02*
X189200000Y-68462500D01*
X155718186Y-104255686D02*
X155718186Y-104987500D01*
X181158000Y-63149000D02*
X183707000Y-60600000D01*
X148350000Y-100837500D02*
X147300000Y-100837500D01*
X172509913Y-91017843D02*
X171958000Y-91569756D01*
X148475000Y-101993000D02*
X148475000Y-100962500D01*
X148475000Y-100962500D02*
X148350000Y-100837500D01*
X198309000Y-71865000D02*
X198931000Y-71243000D01*
X177608000Y-63149000D02*
X181158000Y-63149000D01*
X154500000Y-104087500D02*
X150569500Y-104087500D01*
X177546000Y-96312500D02*
X178612500Y-96312500D01*
X189200000Y-60862500D02*
X189200000Y-63137500D01*
X152525000Y-98075000D02*
X148762500Y-98075000D01*
X186525000Y-75325000D02*
X184819000Y-73619000D01*
X178612500Y-96312500D02*
X178612500Y-95437500D01*
X148762500Y-92312500D02*
X148762500Y-98075000D01*
X162306000Y-105918000D02*
X162307000Y-105918000D01*
X196088000Y-74676000D02*
X195439000Y-75325000D01*
X183707000Y-60600000D02*
X188937500Y-60600000D01*
X195531000Y-71243000D02*
X193443000Y-71243000D01*
X162307000Y-105918000D02*
X163912500Y-104312500D01*
X196088000Y-71865000D02*
X198309000Y-71865000D01*
X184808000Y-66399000D02*
X181848686Y-66399000D01*
X161840000Y-113349744D02*
X161840000Y-111630256D01*
X139000500Y-98362500D02*
X137450000Y-99913000D01*
X161837500Y-106387500D02*
X162306000Y-105919000D01*
X161524744Y-113665000D02*
X161840000Y-113349744D01*
X161840000Y-111630256D02*
X161837500Y-111627756D01*
X184819000Y-73619000D02*
X183658000Y-73619000D01*
X186261500Y-66399000D02*
X184808000Y-66399000D01*
X137450000Y-104210000D02*
X139000000Y-105760000D01*
X171958000Y-91569756D02*
X171958000Y-100526314D01*
X195439000Y-75325000D02*
X186525000Y-75325000D01*
X175889314Y-104065000D02*
X174175000Y-104065000D01*
X159700000Y-90900000D02*
X152525000Y-98075000D01*
X160430256Y-113665000D02*
X161524744Y-113665000D01*
X178598686Y-63149000D02*
X177608000Y-63149000D01*
%TO.N,Net-(U1-VD18)*%
X175768000Y-93726000D02*
X174388500Y-93726000D01*
X170850000Y-104895000D02*
X170850000Y-99914000D01*
X179475000Y-95452756D02*
X179475000Y-97172244D01*
X172272157Y-90617843D02*
X174640087Y-90617843D01*
X171558000Y-99206000D02*
X171558000Y-91332000D01*
X172975000Y-97785000D02*
X174175000Y-98985000D01*
X170850000Y-99914000D02*
X171558000Y-99206000D01*
X168975000Y-105970000D02*
X169775000Y-105970000D01*
X163912500Y-92312500D02*
X163912500Y-90341500D01*
X169775000Y-105970000D02*
X170850000Y-104895000D01*
X177662244Y-98985000D02*
X174175000Y-98985000D01*
X174388500Y-93726000D02*
X172975000Y-92312500D01*
X163912500Y-90341500D02*
X164084000Y-90170000D01*
X171558000Y-91332000D02*
X172272157Y-90617843D01*
X172975000Y-92312500D02*
X172975000Y-97785000D01*
X174640087Y-90617843D02*
X179475000Y-95452756D01*
X179475000Y-97172244D02*
X177662244Y-98985000D01*
%TO.N,3v3*%
X175300000Y-104700000D02*
X175800000Y-105200000D01*
X172720000Y-106426000D02*
X173176000Y-105970000D01*
X173176000Y-105970000D02*
X172974000Y-105768000D01*
X174175000Y-104700000D02*
X175300000Y-104700000D01*
X178600000Y-100312500D02*
X174232500Y-100312500D01*
X173176000Y-104700000D02*
X174175000Y-104700000D01*
X174175000Y-100255000D02*
X172795000Y-100255000D01*
X178600000Y-104312500D02*
X178600000Y-100312500D01*
X174025000Y-108490000D02*
X172720000Y-107185000D01*
X172300000Y-113372244D02*
X172615256Y-113687500D01*
X172085000Y-102870000D02*
X172645000Y-103430000D01*
X172974000Y-105768000D02*
X172974000Y-104902000D01*
X174232500Y-100312500D02*
X174175000Y-100255000D01*
X168975000Y-106605000D02*
X169775000Y-106605000D01*
X172720000Y-107185000D02*
X172720000Y-106426000D01*
X172795000Y-100255000D02*
X172085000Y-100965000D01*
X169775000Y-106605000D02*
X172300000Y-109130000D01*
X172615256Y-113687500D02*
X173709744Y-113687500D01*
X173709744Y-113687500D02*
X174025000Y-113372244D01*
X172300000Y-109130000D02*
X172300000Y-113372244D01*
X172974000Y-104902000D02*
X173176000Y-104700000D01*
X172085000Y-100965000D02*
X172085000Y-102870000D01*
X172645000Y-103430000D02*
X174175000Y-103430000D01*
X174025000Y-113372244D02*
X174025000Y-108490000D01*
X173176000Y-105970000D02*
X174175000Y-105970000D01*
%TO.N,Net-(HUB1-K)*%
X190246000Y-104484500D02*
X191098500Y-104484500D01*
X191098500Y-104484500D02*
X192405000Y-105791000D01*
X168379500Y-116967000D02*
X163902500Y-112490000D01*
X192405000Y-105791000D02*
X192405000Y-115189000D01*
X190627000Y-116967000D02*
X168379500Y-116967000D01*
X192405000Y-115189000D02*
X190627000Y-116967000D01*
%TO.N,Net-(HUB1-A)*%
X190246000Y-106843500D02*
X190282500Y-106843500D01*
X176530000Y-102870000D02*
X176455000Y-102795000D01*
X192005000Y-110418500D02*
X190246000Y-112177500D01*
X189774500Y-107315000D02*
X184150000Y-107315000D01*
X189071000Y-102684500D02*
X190246000Y-101509500D01*
X176455000Y-102795000D02*
X174175000Y-102795000D01*
X192005000Y-108566000D02*
X192005000Y-110418500D01*
X189071000Y-105668500D02*
X189071000Y-102684500D01*
X190246000Y-106843500D02*
X189774500Y-107315000D01*
X190282500Y-106843500D02*
X192005000Y-108566000D01*
X190246000Y-106843500D02*
X189071000Y-105668500D01*
%TO.N,Net-(IMU1-K)*%
X189682500Y-115716000D02*
X173441000Y-115716000D01*
X173441000Y-115716000D02*
X170237500Y-112512500D01*
X190246000Y-115152500D02*
X189682500Y-115716000D01*
%TO.N,Net-(MTRS1-K)*%
X178637500Y-112512500D02*
X178637500Y-113613500D01*
X180340000Y-115316000D02*
X182784000Y-115316000D01*
X182784000Y-115316000D02*
X188281500Y-109818500D01*
X178637500Y-113613500D02*
X180340000Y-115316000D01*
X188281500Y-109818500D02*
X190246000Y-109818500D01*
%TO.N,USB_D+*%
X190373000Y-99822000D02*
X191008000Y-99187000D01*
X190119000Y-95885000D02*
X189738000Y-95885000D01*
X184525000Y-103147884D02*
X187850884Y-99822000D01*
X177292000Y-109329930D02*
X177874570Y-109912500D01*
X177874570Y-109912500D02*
X178987686Y-109912500D01*
X191008000Y-99187000D02*
X191008000Y-96774000D01*
X182062930Y-114300000D02*
X182988000Y-113374930D01*
X174975000Y-106605000D02*
X177292000Y-108922000D01*
X180300000Y-111224814D02*
X180300000Y-113537930D01*
X187850884Y-99822000D02*
X190373000Y-99822000D01*
X181062070Y-114300000D02*
X182062930Y-114300000D01*
X184525000Y-105485314D02*
X184525000Y-103147884D01*
X177292000Y-108922000D02*
X177292000Y-109329930D01*
X180300000Y-113537930D02*
X181062070Y-114300000D01*
X178987686Y-109912500D02*
X180300000Y-111224814D01*
X191008000Y-96774000D02*
X190119000Y-95885000D01*
X182988000Y-107022314D02*
X184525000Y-105485314D01*
X182988000Y-113374930D02*
X182988000Y-107022314D01*
X174175000Y-106605000D02*
X174975000Y-106605000D01*
%TO.N,USB_D-*%
X191408000Y-94634000D02*
X190119000Y-93345000D01*
X188016570Y-100222000D02*
X190538686Y-100222000D01*
X184925000Y-103313570D02*
X188016570Y-100222000D01*
X182228616Y-114700000D02*
X183388000Y-113540616D01*
X178272500Y-111337500D02*
X179184744Y-111337500D01*
X190538686Y-100222000D02*
X191408000Y-99352686D01*
X179500000Y-111652756D02*
X179500000Y-113910314D01*
X180289686Y-114700000D02*
X182228616Y-114700000D01*
X179500000Y-113910314D02*
X180289686Y-114700000D01*
X179184744Y-111337500D02*
X179500000Y-111652756D01*
X183388000Y-113540616D02*
X183388000Y-107188000D01*
X191408000Y-99352686D02*
X191408000Y-94634000D01*
X190119000Y-93345000D02*
X189738000Y-93345000D01*
X183388000Y-107188000D02*
X184925000Y-105651000D01*
X184925000Y-105651000D02*
X184925000Y-103313570D01*
X174175000Y-107240000D02*
X178272500Y-111337500D01*
%TO.N,Net-(U1-REXT)*%
X164972500Y-107240000D02*
X163900000Y-108312500D01*
X168975000Y-107240000D02*
X164972500Y-107240000D01*
%TO.N,Net-(U1-LED1{slash}EESCL)*%
X173162500Y-112512500D02*
X173228000Y-112447000D01*
X173228000Y-112447000D02*
X173228000Y-109474000D01*
X171450000Y-107696000D02*
X171450000Y-104775000D01*
X174100000Y-102235000D02*
X174175000Y-102160000D01*
X172720000Y-102235000D02*
X174100000Y-102235000D01*
X173228000Y-109474000D02*
X171450000Y-107696000D01*
%TO.N,Net-(U1-LED2)*%
X181562500Y-111355942D02*
X179475000Y-109268442D01*
X179475000Y-109268442D02*
X179475000Y-107085000D01*
X179475000Y-107085000D02*
X177165000Y-104775000D01*
X177165000Y-104775000D02*
X177165000Y-102235000D01*
X177165000Y-102235000D02*
X176455000Y-101525000D01*
X176455000Y-101525000D02*
X174175000Y-101525000D01*
X181562500Y-112512500D02*
X181562500Y-111355942D01*
%TO.N,Net-(U1-VBUSM)*%
X182109744Y-113687500D02*
X181015256Y-113687500D01*
X178612500Y-92312500D02*
X178612500Y-93387500D01*
X181537500Y-96312500D02*
X180675000Y-97175000D01*
X178612500Y-93387500D02*
X181537500Y-96312500D01*
X178040256Y-109512500D02*
X177725000Y-109197244D01*
X180700000Y-111059128D02*
X179153372Y-109512500D01*
X177725000Y-108085000D02*
X174975000Y-105335000D01*
X177725000Y-109197244D02*
X177725000Y-108085000D01*
X180675000Y-97175000D02*
X180675000Y-109902756D01*
X180675000Y-109902756D02*
X182425000Y-111652756D01*
X182425000Y-113372244D02*
X182109744Y-113687500D01*
X182425000Y-111652756D02*
X182425000Y-113372244D01*
X174975000Y-105335000D02*
X174175000Y-105335000D01*
X179153372Y-109512500D02*
X178040256Y-109512500D01*
X180700000Y-113372244D02*
X180700000Y-111059128D01*
X181015256Y-113687500D02*
X180700000Y-113372244D01*
%TO.N,Net-(U3-3V3OUT)*%
X188000000Y-70600000D02*
X185749000Y-68349000D01*
X189200000Y-74050000D02*
X190375000Y-72875000D01*
X188265256Y-70600000D02*
X188000000Y-70600000D01*
X185749000Y-68349000D02*
X184808000Y-68349000D01*
X190125000Y-70525000D02*
X188340256Y-70525000D01*
X190375000Y-70775000D02*
X190125000Y-70525000D01*
X190375000Y-72875000D02*
X190375000Y-70775000D01*
X188340256Y-70525000D02*
X188265256Y-70600000D01*
%TO.N,Net-(D4-K)*%
X152362500Y-102137500D02*
X154500000Y-102137500D01*
X152225000Y-102000000D02*
X152362500Y-102137500D01*
X103400000Y-108987500D02*
X101600000Y-107187500D01*
X101600000Y-107187500D02*
X101600000Y-102000000D01*
X152000000Y-102000000D02*
X152225000Y-102000000D01*
%TO.N,Net-(U2-3V3OUT)*%
X152375000Y-107087500D02*
X153425000Y-106037500D01*
X153425000Y-106037500D02*
X154500000Y-106037500D01*
X152375000Y-112512500D02*
X152375000Y-107087500D01*
%TO.N,Net-(J2-Pin_3)*%
X139166154Y-98887500D02*
X137850000Y-100203654D01*
X137850000Y-102070000D02*
X139000000Y-103220000D01*
X137850000Y-100203654D02*
X137850000Y-102070000D01*
X147300000Y-98887500D02*
X139166154Y-98887500D01*
%TO.N,Net-(J2-Pin_4)*%
X139807500Y-101487500D02*
X139000000Y-100680000D01*
X147300000Y-101487500D02*
X139807500Y-101487500D01*
%TO.N,Net-(D4-A)*%
X145130500Y-93830500D02*
X146469500Y-93830500D01*
X107300000Y-88300000D02*
X140102756Y-88300000D01*
X144700000Y-93400000D02*
X145130500Y-93830500D01*
X154787500Y-91137500D02*
X155962500Y-92312500D01*
X148215256Y-91137500D02*
X154787500Y-91137500D01*
X103400000Y-106012500D02*
X106800000Y-102612500D01*
X146469500Y-93830500D02*
X147000000Y-93300000D01*
X144700000Y-92897244D02*
X144700000Y-93400000D01*
X106800000Y-88800000D02*
X107300000Y-88300000D01*
X106800000Y-102612500D02*
X106800000Y-88800000D01*
X140102756Y-88300000D02*
X144700000Y-92897244D01*
X147000000Y-93300000D02*
X147000000Y-92352756D01*
X147000000Y-92352756D02*
X148215256Y-91137500D01*
%TO.N,Net-(D5-K)*%
X151100000Y-102850000D02*
X154437500Y-102850000D01*
X106200000Y-100900000D02*
X106112500Y-100987500D01*
X154437500Y-102850000D02*
X154500000Y-102787500D01*
X151000000Y-102750000D02*
X151100000Y-102850000D01*
X106112500Y-100987500D02*
X103400000Y-100987500D01*
%TO.N,Net-(D5-A)*%
X106600000Y-87900000D02*
X103400000Y-91100000D01*
X141425000Y-87900000D02*
X106600000Y-87900000D01*
X145837500Y-92312500D02*
X141425000Y-87900000D01*
X103400000Y-91100000D02*
X103400000Y-98012500D01*
%TO.N,Net-(U3-CBUS3)*%
X179492000Y-74889000D02*
X182993500Y-71387500D01*
X177433000Y-69824000D02*
X177433000Y-74233000D01*
X182993500Y-71387500D02*
X189200000Y-71387500D01*
X177608000Y-69649000D02*
X177433000Y-69824000D01*
X178089000Y-74889000D02*
X178708000Y-74889000D01*
X178708000Y-74889000D02*
X179492000Y-74889000D01*
X177433000Y-74233000D02*
X178089000Y-74889000D01*
%TO.N,MOTORS_USB_D-*%
X182080000Y-68999000D02*
X180975000Y-70104000D01*
X166930000Y-103430000D02*
X168975000Y-103430000D01*
X184808000Y-68999000D02*
X182080000Y-68999000D01*
X166497000Y-102997000D02*
X166930000Y-103430000D01*
%TO.N,MOTORS_USB_D+*%
X166116000Y-103759000D02*
X166422000Y-104065000D01*
X184808000Y-69649000D02*
X182573000Y-69649000D01*
X182573000Y-69649000D02*
X182118000Y-70104000D01*
X166422000Y-104065000D02*
X168975000Y-104065000D01*
%TO.N,IMU_USB_D+*%
X168975000Y-105335000D02*
X167311000Y-105335000D01*
X158890000Y-109124558D02*
X157102942Y-107337500D01*
X163037500Y-109172244D02*
X163040000Y-109174744D01*
X157102942Y-107337500D02*
X154500000Y-107337500D01*
X163037500Y-107452756D02*
X163037500Y-109172244D01*
X162805685Y-114562314D02*
X162503000Y-114865000D01*
X163040000Y-114328000D02*
X162805685Y-114562314D01*
X163040000Y-109174744D02*
X163040000Y-114328000D01*
X165966000Y-106680000D02*
X163810256Y-106680000D01*
X163810256Y-106680000D02*
X163037500Y-107452756D01*
X167311000Y-105335000D02*
X165966000Y-106680000D01*
X159933198Y-114865000D02*
X158890000Y-113821802D01*
X158890000Y-113821802D02*
X158890000Y-109124558D01*
X162503000Y-114865000D02*
X159933198Y-114865000D01*
%TO.N,IMU_USB_D-*%
X167334000Y-104700000D02*
X165862000Y-106172000D01*
X159290000Y-113656116D02*
X159290000Y-108958872D01*
X165862000Y-106172000D02*
X163752570Y-106172000D01*
X162640000Y-109340429D02*
X162640000Y-114162314D01*
X162640000Y-114162314D02*
X162337314Y-114465000D01*
X159290000Y-108958872D02*
X157018628Y-106687500D01*
X168975000Y-104700000D02*
X167334000Y-104700000D01*
X162637500Y-109337929D02*
X162640000Y-109340429D01*
X162337314Y-114465000D02*
X160098884Y-114465000D01*
X160098884Y-114465000D02*
X159290000Y-113656116D01*
X157018628Y-106687500D02*
X154500000Y-106687500D01*
X163752570Y-106172000D02*
X162637500Y-107287070D01*
X162637500Y-107287070D02*
X162637500Y-109337929D01*
%TO.N,Net-(U3-RXD)*%
X178683000Y-63799000D02*
X177608000Y-63799000D01*
X178708000Y-73619000D02*
X179008000Y-73319000D01*
X179008000Y-64124000D02*
X178683000Y-63799000D01*
X179008000Y-73319000D02*
X179008000Y-64124000D01*
%TO.N,Net-(D6-K)*%
X196650000Y-66925000D02*
X188340256Y-66925000D01*
X185864256Y-64449000D02*
X184808000Y-64449000D01*
X198860000Y-64607500D02*
X198860000Y-64715000D01*
X198860000Y-64715000D02*
X196650000Y-66925000D01*
X188340256Y-66925000D02*
X185864256Y-64449000D01*
%TO.N,Net-(U3-TXD)*%
X175200000Y-69068628D02*
X175514000Y-68754628D01*
X175200000Y-75600000D02*
X175200000Y-69068628D01*
X175514000Y-68754628D02*
X175514000Y-62218000D01*
X178708000Y-77429000D02*
X177029000Y-77429000D01*
X175514000Y-62218000D02*
X176533000Y-61199000D01*
X177029000Y-77429000D02*
X175200000Y-75600000D01*
X176533000Y-61199000D02*
X177608000Y-61199000D01*
%TO.N,Net-(D6-A)*%
X195000000Y-61600000D02*
X198827500Y-61600000D01*
X189200000Y-57937500D02*
X191337500Y-57937500D01*
X191337500Y-57937500D02*
X195000000Y-61600000D01*
X198827500Y-61600000D02*
X198860000Y-61632500D01*
%TO.N,Net-(U3-CBUS2)*%
X176000000Y-74425999D02*
X176000000Y-69400000D01*
X176000000Y-69400000D02*
X176401000Y-68999000D01*
X177733001Y-76159000D02*
X176000000Y-74425999D01*
X176401000Y-68999000D02*
X177608000Y-68999000D01*
X178708000Y-76159000D02*
X177733001Y-76159000D01*
%TO.N,Net-(D7-K)*%
X198122244Y-67325000D02*
X200849000Y-64598244D01*
X200849000Y-64598244D02*
X200849000Y-57851500D01*
X185948570Y-65099000D02*
X188174570Y-67325000D01*
X200849000Y-57851500D02*
X198860000Y-55862500D01*
X184808000Y-65099000D02*
X185948570Y-65099000D01*
X188174570Y-67325000D02*
X198122244Y-67325000D01*
%TO.N,Net-(D7-A)*%
X189200000Y-66062500D02*
X189525000Y-66062500D01*
X192025000Y-63562500D02*
X199581500Y-63562500D01*
X200449000Y-60426500D02*
X198860000Y-58837500D01*
X189525000Y-66062500D02*
X192025000Y-63562500D01*
X199581500Y-63562500D02*
X200449000Y-62695000D01*
X200449000Y-62695000D02*
X200449000Y-60426500D01*
%TO.N,Net-(J1-Pin_1)*%
X194922000Y-84713000D02*
X195531000Y-84713000D01*
X195531000Y-84713000D02*
X198931000Y-84713000D01*
X189738000Y-90805000D02*
X189738000Y-89897000D01*
X189738000Y-89897000D02*
X194922000Y-84713000D01*
%TO.N,Net-(U4-A)*%
X201649000Y-48749000D02*
X201649000Y-72151000D01*
X171125000Y-64162500D02*
X171125000Y-57675000D01*
X183692000Y-76125000D02*
X183658000Y-76159000D01*
X189400000Y-39400000D02*
X200300000Y-39400000D01*
X201500000Y-44000000D02*
X199200000Y-46300000D01*
X201500000Y-40600000D02*
X201500000Y-44000000D01*
X172600000Y-65637500D02*
X171125000Y-64162500D01*
X171425000Y-66812500D02*
X171425000Y-72762500D01*
X172600000Y-65637500D02*
X171425000Y-66812500D01*
X171425000Y-72762500D02*
X172700000Y-74037500D01*
X201649000Y-72151000D02*
X197675000Y-76125000D01*
X200300000Y-39400000D02*
X201500000Y-40600000D01*
X171125000Y-57675000D02*
X189400000Y-39400000D01*
X197675000Y-76125000D02*
X183692000Y-76125000D01*
X199200000Y-46300000D02*
X201649000Y-48749000D01*
%TO.N,Net-(U4-B)*%
X198550000Y-45150000D02*
X197925000Y-45775000D01*
X199700000Y-45150000D02*
X198550000Y-45150000D01*
X199200000Y-48800000D02*
X201249000Y-50849000D01*
X173800000Y-65115256D02*
X173800000Y-67362500D01*
X172700000Y-57937500D02*
X171525000Y-59112500D01*
X197509314Y-75725000D02*
X185325000Y-75725000D01*
X200700000Y-40500000D02*
X200700000Y-44150000D01*
X201249000Y-50849000D02*
X201249000Y-71985314D01*
X200350000Y-40150000D02*
X200700000Y-40500000D01*
X171525000Y-59112500D02*
X171525000Y-62840256D01*
X190487500Y-40150000D02*
X200350000Y-40150000D01*
X197925000Y-47525000D02*
X199200000Y-48800000D01*
X171525000Y-62840256D02*
X173800000Y-65115256D01*
X197925000Y-45775000D02*
X197925000Y-47525000D01*
X184489000Y-74889000D02*
X183658000Y-74889000D01*
X201249000Y-71985314D02*
X197509314Y-75725000D01*
X172700000Y-57937500D02*
X190487500Y-40150000D01*
X173800000Y-67362500D02*
X172600000Y-68562500D01*
X185325000Y-75725000D02*
X184489000Y-74889000D01*
X200700000Y-44150000D02*
X199700000Y-45150000D01*
%TD*%
%TA.AperFunction,Conductor*%
%TO.N,GNDREF*%
G36*
X145867539Y-102107685D02*
G01*
X145913294Y-102160489D01*
X145924500Y-102211999D01*
X145924500Y-102410368D01*
X145924501Y-102410380D01*
X145928931Y-102451593D01*
X145928931Y-102478096D01*
X145925000Y-102514665D01*
X145925000Y-102562500D01*
X145940611Y-102578111D01*
X145954484Y-102582185D01*
X145986711Y-102612189D01*
X146062320Y-102713189D01*
X146086738Y-102778653D01*
X146071887Y-102846926D01*
X146062320Y-102861811D01*
X145986711Y-102962811D01*
X145938892Y-102998607D01*
X145925000Y-103012500D01*
X145925000Y-103060332D01*
X145928931Y-103096899D01*
X145928931Y-103123405D01*
X145924500Y-103164622D01*
X145924500Y-103710369D01*
X145924501Y-103710378D01*
X145928679Y-103749245D01*
X145928679Y-103775750D01*
X145924500Y-103814622D01*
X145924500Y-104360369D01*
X145924501Y-104360378D01*
X145928679Y-104399245D01*
X145928679Y-104425750D01*
X145924500Y-104464622D01*
X145924500Y-105010369D01*
X145924501Y-105010378D01*
X145928679Y-105049245D01*
X145928679Y-105075750D01*
X145924500Y-105114622D01*
X145924500Y-105660369D01*
X145924501Y-105660378D01*
X145928679Y-105699245D01*
X145928679Y-105725750D01*
X145924500Y-105764622D01*
X145924500Y-106310369D01*
X145924501Y-106310378D01*
X145928679Y-106349245D01*
X145928679Y-106375750D01*
X145924500Y-106414622D01*
X145924500Y-106960369D01*
X145924501Y-106960378D01*
X145928679Y-106999245D01*
X145928679Y-107025750D01*
X145924500Y-107064622D01*
X145924500Y-107610370D01*
X145924501Y-107610376D01*
X145930908Y-107669983D01*
X145981202Y-107804828D01*
X145981206Y-107804835D01*
X146067452Y-107920044D01*
X146067455Y-107920047D01*
X146182664Y-108006293D01*
X146182671Y-108006297D01*
X146317517Y-108056591D01*
X146317516Y-108056591D01*
X146324444Y-108057335D01*
X146377127Y-108063000D01*
X148222872Y-108062999D01*
X148282483Y-108056591D01*
X148417331Y-108006296D01*
X148532546Y-107920046D01*
X148618796Y-107804831D01*
X148669091Y-107669983D01*
X148675500Y-107610373D01*
X148675499Y-107064628D01*
X148675499Y-107064627D01*
X148675498Y-107064611D01*
X148671320Y-107025753D01*
X148671320Y-106999245D01*
X148675500Y-106960373D01*
X148675499Y-106414628D01*
X148675499Y-106414627D01*
X148675498Y-106414611D01*
X148671320Y-106375753D01*
X148671320Y-106349245D01*
X148675500Y-106310373D01*
X148675499Y-105764628D01*
X148675499Y-105764627D01*
X148675498Y-105764611D01*
X148671320Y-105725753D01*
X148671320Y-105699245D01*
X148675500Y-105660373D01*
X148675499Y-105114628D01*
X148675499Y-105114627D01*
X148675498Y-105114611D01*
X148671320Y-105075753D01*
X148671320Y-105049245D01*
X148675500Y-105010373D01*
X148675499Y-104464628D01*
X148675499Y-104464627D01*
X148675498Y-104464611D01*
X148671320Y-104425753D01*
X148671320Y-104399245D01*
X148675500Y-104360373D01*
X148675499Y-103814628D01*
X148675499Y-103814627D01*
X148675498Y-103814611D01*
X148671320Y-103775753D01*
X148671320Y-103749245D01*
X148675500Y-103710373D01*
X148675499Y-103342094D01*
X148695183Y-103275057D01*
X148747987Y-103229302D01*
X148817146Y-103219358D01*
X148880701Y-103248383D01*
X148887180Y-103254415D01*
X150084639Y-104451874D01*
X150084649Y-104451885D01*
X150088979Y-104456215D01*
X150088980Y-104456216D01*
X150200784Y-104568020D01*
X150241583Y-104591575D01*
X150248806Y-104595745D01*
X150248805Y-104595745D01*
X150248808Y-104595746D01*
X150337709Y-104647074D01*
X150337710Y-104647074D01*
X150337715Y-104647077D01*
X150490442Y-104688000D01*
X150490443Y-104688000D01*
X153000500Y-104688000D01*
X153067539Y-104707685D01*
X153113294Y-104760489D01*
X153124500Y-104811999D01*
X153124500Y-105010368D01*
X153124501Y-105010380D01*
X153128931Y-105051593D01*
X153128931Y-105078096D01*
X153125000Y-105114665D01*
X153125000Y-105162500D01*
X153140611Y-105178111D01*
X153154484Y-105182185D01*
X153186711Y-105212188D01*
X153207741Y-105240280D01*
X153238848Y-105281834D01*
X153244434Y-105289295D01*
X153268852Y-105354759D01*
X153254001Y-105423033D01*
X153204596Y-105472438D01*
X153193595Y-105477702D01*
X153150646Y-105502500D01*
X153150644Y-105502501D01*
X153056290Y-105556975D01*
X153056282Y-105556981D01*
X151894481Y-106718782D01*
X151894477Y-106718787D01*
X151853058Y-106790529D01*
X151853058Y-106790530D01*
X151815423Y-106855714D01*
X151802840Y-106902674D01*
X151774499Y-107008443D01*
X151774499Y-107008445D01*
X151774499Y-107176546D01*
X151774500Y-107176559D01*
X151774500Y-111081442D01*
X151754815Y-111148481D01*
X151715598Y-111186979D01*
X151690133Y-111202687D01*
X151581342Y-111269789D01*
X151457289Y-111393842D01*
X151365187Y-111543163D01*
X151365185Y-111543168D01*
X151356903Y-111568163D01*
X151310001Y-111709703D01*
X151310001Y-111709704D01*
X151310000Y-111709704D01*
X151299500Y-111812483D01*
X151299500Y-113212501D01*
X151299501Y-113212518D01*
X151310000Y-113315296D01*
X151310001Y-113315299D01*
X151365185Y-113481831D01*
X151365187Y-113481836D01*
X151383588Y-113511668D01*
X151457288Y-113631156D01*
X151581344Y-113755212D01*
X151730666Y-113847314D01*
X151897203Y-113902499D01*
X151999991Y-113913000D01*
X152750008Y-113912999D01*
X152750016Y-113912998D01*
X152750019Y-113912998D01*
X152806302Y-113907248D01*
X152852797Y-113902499D01*
X153019334Y-113847314D01*
X153168656Y-113755212D01*
X153292712Y-113631156D01*
X153384814Y-113481834D01*
X153439999Y-113315297D01*
X153450500Y-113212509D01*
X153450499Y-111812492D01*
X153439999Y-111709703D01*
X153384814Y-111543166D01*
X153292712Y-111393844D01*
X153168656Y-111269788D01*
X153034402Y-111186980D01*
X152987679Y-111135033D01*
X152975500Y-111081442D01*
X152975500Y-107902602D01*
X152995185Y-107835563D01*
X153047989Y-107789808D01*
X153117147Y-107779864D01*
X153180703Y-107808889D01*
X153198762Y-107828286D01*
X153267454Y-107920046D01*
X153313643Y-107954623D01*
X153382664Y-108006293D01*
X153382671Y-108006297D01*
X153517517Y-108056591D01*
X153517516Y-108056591D01*
X153524444Y-108057335D01*
X153577127Y-108063000D01*
X155422872Y-108062999D01*
X155482483Y-108056591D01*
X155617331Y-108006296D01*
X155675524Y-107962733D01*
X155740989Y-107938316D01*
X155749835Y-107938000D01*
X156802845Y-107938000D01*
X156869884Y-107957685D01*
X156890526Y-107974319D01*
X158253181Y-109336974D01*
X158286666Y-109398297D01*
X158289500Y-109424655D01*
X158289500Y-113735132D01*
X158289499Y-113735150D01*
X158289499Y-113900856D01*
X158289498Y-113900856D01*
X158289499Y-113900859D01*
X158330423Y-114053587D01*
X158356931Y-114099500D01*
X158356931Y-114099501D01*
X158409475Y-114190511D01*
X158409481Y-114190519D01*
X158528349Y-114309387D01*
X158528354Y-114309391D01*
X159564482Y-115345520D01*
X159564484Y-115345521D01*
X159564488Y-115345524D01*
X159694844Y-115420784D01*
X159701414Y-115424577D01*
X159854141Y-115465501D01*
X159854143Y-115465501D01*
X160019852Y-115465501D01*
X160019868Y-115465500D01*
X162423940Y-115465500D01*
X162423944Y-115465501D01*
X162582058Y-115465500D01*
X162637960Y-115450520D01*
X162637961Y-115450520D01*
X162734781Y-115424578D01*
X162734782Y-115424577D01*
X162734784Y-115424577D01*
X162871716Y-115345520D01*
X162983520Y-115233716D01*
X162983520Y-115233715D01*
X163000958Y-115216277D01*
X163000960Y-115216274D01*
X163260019Y-114957215D01*
X163391276Y-114825958D01*
X163391279Y-114825956D01*
X163408715Y-114808520D01*
X163408716Y-114808520D01*
X163520520Y-114696716D01*
X163599577Y-114559784D01*
X163605627Y-114537203D01*
X163610542Y-114518861D01*
X163610542Y-114518858D01*
X163640501Y-114407058D01*
X163640501Y-114248944D01*
X163640501Y-114241349D01*
X163640500Y-114241331D01*
X163640500Y-113989499D01*
X163660185Y-113922460D01*
X163712989Y-113876705D01*
X163764500Y-113865499D01*
X164265002Y-113865499D01*
X164265008Y-113865499D01*
X164354969Y-113856309D01*
X164423661Y-113869079D01*
X164455251Y-113891986D01*
X167894639Y-117331374D01*
X167894649Y-117331385D01*
X167898979Y-117335715D01*
X167898980Y-117335716D01*
X168010784Y-117447520D01*
X168097595Y-117497639D01*
X168097597Y-117497641D01*
X168135651Y-117519611D01*
X168147715Y-117526577D01*
X168300443Y-117567500D01*
X190540331Y-117567500D01*
X190540347Y-117567501D01*
X190547943Y-117567501D01*
X190706054Y-117567501D01*
X190706057Y-117567501D01*
X190858785Y-117526577D01*
X190908904Y-117497639D01*
X190995716Y-117447520D01*
X191107520Y-117335716D01*
X191107520Y-117335714D01*
X191117728Y-117325507D01*
X191117729Y-117325504D01*
X192828321Y-115614914D01*
X192889642Y-115581431D01*
X192959334Y-115586415D01*
X193015267Y-115628287D01*
X193039684Y-115693751D01*
X193040000Y-115702597D01*
X193040000Y-121796000D01*
X193020315Y-121863039D01*
X192967511Y-121908794D01*
X192916000Y-121920000D01*
X137284000Y-121920000D01*
X137216961Y-121900315D01*
X137171206Y-121847511D01*
X137160000Y-121796000D01*
X137160000Y-113212486D01*
X148350001Y-113212486D01*
X148360494Y-113315197D01*
X148415641Y-113481619D01*
X148415643Y-113481624D01*
X148507684Y-113630845D01*
X148631654Y-113754815D01*
X148780875Y-113846856D01*
X148780880Y-113846858D01*
X148947302Y-113902005D01*
X148947309Y-113902006D01*
X149050019Y-113912499D01*
X149174999Y-113912499D01*
X149675000Y-113912499D01*
X149799972Y-113912499D01*
X149799986Y-113912498D01*
X149902697Y-113902005D01*
X150069119Y-113846858D01*
X150069124Y-113846856D01*
X150218345Y-113754815D01*
X150342315Y-113630845D01*
X150434356Y-113481624D01*
X150434358Y-113481619D01*
X150489505Y-113315197D01*
X150489506Y-113315190D01*
X150499999Y-113212486D01*
X150500000Y-113212473D01*
X150500000Y-112762500D01*
X149675000Y-112762500D01*
X149675000Y-113912499D01*
X149174999Y-113912499D01*
X149175000Y-113912498D01*
X149175000Y-112762500D01*
X148350001Y-112762500D01*
X148350001Y-113212486D01*
X137160000Y-113212486D01*
X137160000Y-111812513D01*
X148350000Y-111812513D01*
X148350000Y-112262500D01*
X149175000Y-112262500D01*
X149675000Y-112262500D01*
X150499999Y-112262500D01*
X150499999Y-111812528D01*
X150499998Y-111812513D01*
X150489505Y-111709802D01*
X150434358Y-111543380D01*
X150434356Y-111543375D01*
X150342315Y-111394154D01*
X150218345Y-111270184D01*
X150069124Y-111178143D01*
X150069119Y-111178141D01*
X149902697Y-111122994D01*
X149902690Y-111122993D01*
X149799986Y-111112500D01*
X149675000Y-111112500D01*
X149675000Y-112262500D01*
X149175000Y-112262500D01*
X149175000Y-111112500D01*
X149050027Y-111112500D01*
X149050012Y-111112501D01*
X148947302Y-111122994D01*
X148780880Y-111178141D01*
X148780875Y-111178143D01*
X148631654Y-111270184D01*
X148507684Y-111394154D01*
X148415643Y-111543375D01*
X148415641Y-111543380D01*
X148360494Y-111709802D01*
X148360493Y-111709809D01*
X148350000Y-111812513D01*
X137160000Y-111812513D01*
X137160000Y-105068597D01*
X137179685Y-105001558D01*
X137232489Y-104955803D01*
X137301647Y-104945859D01*
X137365203Y-104974884D01*
X137371681Y-104980916D01*
X137667233Y-105276468D01*
X137700718Y-105337791D01*
X137699327Y-105396241D01*
X137664939Y-105524583D01*
X137664936Y-105524596D01*
X137644341Y-105759999D01*
X137644341Y-105760000D01*
X137664936Y-105995403D01*
X137664938Y-105995413D01*
X137726094Y-106223655D01*
X137726096Y-106223659D01*
X137726097Y-106223663D01*
X137790838Y-106362500D01*
X137825965Y-106437830D01*
X137825967Y-106437834D01*
X137920509Y-106572853D01*
X137961501Y-106631396D01*
X137961506Y-106631402D01*
X138083818Y-106753714D01*
X138117303Y-106815037D01*
X138112319Y-106884729D01*
X138070447Y-106940662D01*
X138039471Y-106957577D01*
X137907912Y-107006646D01*
X137907906Y-107006649D01*
X137792812Y-107092809D01*
X137792809Y-107092812D01*
X137706649Y-107207906D01*
X137706645Y-107207913D01*
X137656403Y-107342620D01*
X137656401Y-107342627D01*
X137650000Y-107402155D01*
X137650000Y-108050000D01*
X138566988Y-108050000D01*
X138534075Y-108107007D01*
X138500000Y-108234174D01*
X138500000Y-108365826D01*
X138534075Y-108492993D01*
X138566988Y-108550000D01*
X137650000Y-108550000D01*
X137650000Y-109197844D01*
X137656401Y-109257372D01*
X137656403Y-109257379D01*
X137706645Y-109392086D01*
X137706649Y-109392093D01*
X137792809Y-109507187D01*
X137792812Y-109507190D01*
X137907906Y-109593350D01*
X137907913Y-109593354D01*
X138042620Y-109643596D01*
X138042627Y-109643598D01*
X138102155Y-109649999D01*
X138102172Y-109650000D01*
X138750000Y-109650000D01*
X138750000Y-108733012D01*
X138807007Y-108765925D01*
X138934174Y-108800000D01*
X139065826Y-108800000D01*
X139192993Y-108765925D01*
X139250000Y-108733012D01*
X139250000Y-109650000D01*
X139897828Y-109650000D01*
X139897844Y-109649999D01*
X139957372Y-109643598D01*
X139957379Y-109643596D01*
X140092086Y-109593354D01*
X140092093Y-109593350D01*
X140207187Y-109507190D01*
X140207190Y-109507187D01*
X140293350Y-109392093D01*
X140293354Y-109392086D01*
X140343596Y-109257379D01*
X140343598Y-109257372D01*
X140349999Y-109197844D01*
X140350000Y-109197827D01*
X140350000Y-108550000D01*
X139433012Y-108550000D01*
X139465925Y-108492993D01*
X139500000Y-108365826D01*
X139500000Y-108234174D01*
X139465925Y-108107007D01*
X139433012Y-108050000D01*
X140350000Y-108050000D01*
X140350000Y-107402172D01*
X140349999Y-107402155D01*
X140343598Y-107342627D01*
X140343596Y-107342620D01*
X140293354Y-107207913D01*
X140293350Y-107207906D01*
X140207190Y-107092812D01*
X140207187Y-107092809D01*
X140092093Y-107006649D01*
X140092088Y-107006646D01*
X139960528Y-106957577D01*
X139904595Y-106915705D01*
X139880178Y-106850241D01*
X139895030Y-106781968D01*
X139916175Y-106753720D01*
X140038495Y-106631401D01*
X140174035Y-106437830D01*
X140273903Y-106223663D01*
X140335063Y-105995408D01*
X140355659Y-105760000D01*
X140354565Y-105747501D01*
X140350585Y-105702005D01*
X140335063Y-105524592D01*
X140276535Y-105306160D01*
X140273905Y-105296344D01*
X140273904Y-105296343D01*
X140273903Y-105296337D01*
X140174035Y-105082171D01*
X140164531Y-105068597D01*
X140038494Y-104888597D01*
X139871402Y-104721506D01*
X139871396Y-104721501D01*
X139685842Y-104591575D01*
X139642217Y-104536998D01*
X139635023Y-104467500D01*
X139666546Y-104405145D01*
X139685842Y-104388425D01*
X139762503Y-104334746D01*
X139871401Y-104258495D01*
X140038495Y-104091401D01*
X140174035Y-103897830D01*
X140273903Y-103683663D01*
X140335063Y-103455408D01*
X140355659Y-103220000D01*
X140335063Y-102984592D01*
X140280890Y-102782412D01*
X140273905Y-102756344D01*
X140273904Y-102756343D01*
X140273903Y-102756337D01*
X140174035Y-102542171D01*
X140154776Y-102514665D01*
X140038494Y-102348597D01*
X139989578Y-102299681D01*
X139956093Y-102238358D01*
X139961077Y-102168666D01*
X140002949Y-102112733D01*
X140068413Y-102088316D01*
X140077259Y-102088000D01*
X145800500Y-102088000D01*
X145867539Y-102107685D01*
G37*
%TD.AperFunction*%
%TA.AperFunction,Conductor*%
G36*
X201619039Y-37611685D02*
G01*
X201664794Y-37664489D01*
X201676000Y-37716000D01*
X201676000Y-39627403D01*
X201656315Y-39694442D01*
X201603511Y-39740197D01*
X201534353Y-39750141D01*
X201470797Y-39721116D01*
X201464319Y-39715084D01*
X200787590Y-39038355D01*
X200787588Y-39038352D01*
X200668717Y-38919481D01*
X200668716Y-38919480D01*
X200581904Y-38869360D01*
X200581904Y-38869359D01*
X200581900Y-38869358D01*
X200531785Y-38840423D01*
X200379057Y-38799499D01*
X200220943Y-38799499D01*
X200213347Y-38799499D01*
X200213331Y-38799500D01*
X189486669Y-38799500D01*
X189486653Y-38799499D01*
X189479057Y-38799499D01*
X189320943Y-38799499D01*
X189213587Y-38828265D01*
X189168210Y-38840424D01*
X189168209Y-38840425D01*
X189118096Y-38869359D01*
X189118095Y-38869360D01*
X189074689Y-38894420D01*
X189031285Y-38919479D01*
X189031282Y-38919481D01*
X170644481Y-57306282D01*
X170644480Y-57306284D01*
X170607128Y-57370980D01*
X170565423Y-57443215D01*
X170524499Y-57595943D01*
X170524499Y-57595945D01*
X170524499Y-57764046D01*
X170524500Y-57764059D01*
X170524500Y-64075830D01*
X170524499Y-64075848D01*
X170524499Y-64241554D01*
X170524498Y-64241554D01*
X170524499Y-64241557D01*
X170565423Y-64394285D01*
X170568434Y-64399500D01*
X170568435Y-64399501D01*
X170568435Y-64399502D01*
X170644477Y-64531212D01*
X170644481Y-64531217D01*
X170763349Y-64650085D01*
X170763355Y-64650090D01*
X171198013Y-65084748D01*
X171231498Y-65146071D01*
X171233690Y-65185031D01*
X171224500Y-65274981D01*
X171224500Y-66000001D01*
X171224501Y-66000019D01*
X171233690Y-66089968D01*
X171220920Y-66158661D01*
X171198014Y-66190250D01*
X171056286Y-66331978D01*
X170944481Y-66443782D01*
X170944477Y-66443787D01*
X170924694Y-66478055D01*
X170924693Y-66478057D01*
X170865423Y-66580715D01*
X170824499Y-66733443D01*
X170824499Y-66733445D01*
X170824499Y-66901546D01*
X170824500Y-66901559D01*
X170824500Y-72675830D01*
X170824499Y-72675848D01*
X170824499Y-72841554D01*
X170824498Y-72841554D01*
X170824499Y-72841557D01*
X170862935Y-72985001D01*
X170865424Y-72994287D01*
X170879402Y-73018497D01*
X170879403Y-73018499D01*
X170944477Y-73131212D01*
X170944481Y-73131217D01*
X171063349Y-73250085D01*
X171063355Y-73250090D01*
X171298013Y-73484748D01*
X171331498Y-73546071D01*
X171333690Y-73585031D01*
X171324500Y-73674981D01*
X171324500Y-74400001D01*
X171324501Y-74400019D01*
X171335000Y-74502796D01*
X171335001Y-74502799D01*
X171390185Y-74669331D01*
X171390187Y-74669336D01*
X171394299Y-74676003D01*
X171482288Y-74818656D01*
X171606344Y-74942712D01*
X171755666Y-75034814D01*
X171922203Y-75089999D01*
X172024991Y-75100500D01*
X173375008Y-75100499D01*
X173477797Y-75089999D01*
X173644334Y-75034814D01*
X173793656Y-74942712D01*
X173917712Y-74818656D01*
X174009814Y-74669334D01*
X174064999Y-74502797D01*
X174075500Y-74400009D01*
X174075499Y-73674992D01*
X174064999Y-73572203D01*
X174009814Y-73405666D01*
X173917712Y-73256344D01*
X173793656Y-73132288D01*
X173644334Y-73040186D01*
X173477797Y-72985001D01*
X173477795Y-72985000D01*
X173375016Y-72974500D01*
X173375009Y-72974500D01*
X172537597Y-72974500D01*
X172470558Y-72954815D01*
X172449916Y-72938181D01*
X172061819Y-72550084D01*
X172028334Y-72488761D01*
X172025500Y-72462403D01*
X172025500Y-69749499D01*
X172045185Y-69682460D01*
X172097989Y-69636705D01*
X172149500Y-69625499D01*
X173275002Y-69625499D01*
X173275008Y-69625499D01*
X173377797Y-69614999D01*
X173544334Y-69559814D01*
X173693656Y-69467712D01*
X173817712Y-69343656D01*
X173909814Y-69194334D01*
X173964999Y-69027797D01*
X173975500Y-68925009D01*
X173975499Y-68199992D01*
X173966309Y-68110028D01*
X173979079Y-68041337D01*
X174001983Y-68009750D01*
X174158506Y-67853228D01*
X174158511Y-67853224D01*
X174168714Y-67843020D01*
X174168716Y-67843020D01*
X174280520Y-67731216D01*
X174342709Y-67623501D01*
X174359577Y-67594285D01*
X174400500Y-67441558D01*
X174400500Y-67283443D01*
X174400500Y-65204315D01*
X174400501Y-65204302D01*
X174400501Y-65036201D01*
X174400501Y-65036199D01*
X174359577Y-64883471D01*
X174321613Y-64817716D01*
X174280520Y-64746540D01*
X174168716Y-64634736D01*
X174168715Y-64634735D01*
X174164385Y-64630405D01*
X174164374Y-64630395D01*
X172161819Y-62627840D01*
X172128334Y-62566517D01*
X172125500Y-62540159D01*
X172125500Y-62048999D01*
X172145185Y-61981960D01*
X172197989Y-61936205D01*
X172249500Y-61924999D01*
X172450000Y-61924999D01*
X172950000Y-61924999D01*
X173374972Y-61924999D01*
X173374986Y-61924998D01*
X173477697Y-61914505D01*
X173644119Y-61859358D01*
X173644124Y-61859356D01*
X173793345Y-61767315D01*
X173917315Y-61643345D01*
X174009356Y-61494124D01*
X174009358Y-61494119D01*
X174064505Y-61327697D01*
X174064506Y-61327690D01*
X174074999Y-61224986D01*
X174075000Y-61224973D01*
X174075000Y-61112500D01*
X172950000Y-61112500D01*
X172950000Y-61924999D01*
X172450000Y-61924999D01*
X172450000Y-60612500D01*
X172950000Y-60612500D01*
X174074999Y-60612500D01*
X174074999Y-60500028D01*
X174074998Y-60500013D01*
X174064505Y-60397302D01*
X174009358Y-60230880D01*
X174009356Y-60230875D01*
X173917315Y-60081654D01*
X173793345Y-59957684D01*
X173644124Y-59865643D01*
X173644119Y-59865641D01*
X173477697Y-59810494D01*
X173477690Y-59810493D01*
X173374986Y-59800000D01*
X172950000Y-59800000D01*
X172950000Y-60612500D01*
X172450000Y-60612500D01*
X172450000Y-59800000D01*
X172249500Y-59800000D01*
X172182461Y-59780315D01*
X172136706Y-59727511D01*
X172125500Y-59676000D01*
X172125500Y-59412596D01*
X172145185Y-59345557D01*
X172161815Y-59324919D01*
X172449916Y-59036817D01*
X172511239Y-59003333D01*
X172537597Y-59000499D01*
X173375002Y-59000499D01*
X173375008Y-59000499D01*
X173477797Y-58989999D01*
X173644334Y-58934814D01*
X173793656Y-58842712D01*
X173917712Y-58718656D01*
X174009814Y-58569334D01*
X174064999Y-58402797D01*
X174075500Y-58300009D01*
X174075499Y-57574992D01*
X174066309Y-57485028D01*
X174079079Y-57416337D01*
X174101983Y-57384750D01*
X190699917Y-40786819D01*
X190761240Y-40753334D01*
X190787598Y-40750500D01*
X197601000Y-40750500D01*
X197668039Y-40770185D01*
X197713794Y-40822989D01*
X197725000Y-40874500D01*
X197725000Y-41050000D01*
X198795854Y-41050000D01*
X198757370Y-41116657D01*
X198725000Y-41237465D01*
X198725000Y-41362535D01*
X198757370Y-41483343D01*
X198795854Y-41550000D01*
X197725001Y-41550000D01*
X197725001Y-41949986D01*
X197735494Y-42052697D01*
X197790641Y-42219119D01*
X197790643Y-42219124D01*
X197882684Y-42368345D01*
X198006654Y-42492315D01*
X198161484Y-42587815D01*
X198208208Y-42639763D01*
X198219431Y-42708726D01*
X198191587Y-42772808D01*
X198184069Y-42781035D01*
X198044889Y-42920215D01*
X197919951Y-43092179D01*
X197823444Y-43281585D01*
X197757753Y-43483760D01*
X197724500Y-43693713D01*
X197724500Y-43906286D01*
X197757753Y-44116239D01*
X197823444Y-44318414D01*
X197919951Y-44507820D01*
X198035699Y-44667135D01*
X198059179Y-44732942D01*
X198043353Y-44800995D01*
X198023062Y-44827701D01*
X197556286Y-45294478D01*
X197444481Y-45406282D01*
X197444479Y-45406285D01*
X197394361Y-45493094D01*
X197394359Y-45493096D01*
X197365425Y-45543209D01*
X197365424Y-45543210D01*
X197365423Y-45543215D01*
X197324499Y-45695943D01*
X197324499Y-45695945D01*
X197324499Y-45864046D01*
X197324500Y-45864059D01*
X197324500Y-47438330D01*
X197324499Y-47438348D01*
X197324499Y-47604054D01*
X197324498Y-47604054D01*
X197365423Y-47756785D01*
X197372993Y-47769896D01*
X197372994Y-47769898D01*
X197444477Y-47893712D01*
X197444481Y-47893717D01*
X197563349Y-48012585D01*
X197563355Y-48012590D01*
X197771897Y-48221132D01*
X197805382Y-48282455D01*
X197802147Y-48347131D01*
X197757753Y-48483760D01*
X197737481Y-48611753D01*
X197724500Y-48693713D01*
X197724500Y-48906287D01*
X197757754Y-49116243D01*
X197802146Y-49252868D01*
X197823444Y-49318414D01*
X197919951Y-49507820D01*
X198044890Y-49679786D01*
X198195213Y-49830109D01*
X198367179Y-49955048D01*
X198367181Y-49955049D01*
X198367184Y-49955051D01*
X198556588Y-50051557D01*
X198758757Y-50117246D01*
X198968713Y-50150500D01*
X198968714Y-50150500D01*
X199431285Y-50150500D01*
X199431287Y-50150500D01*
X199601949Y-50123469D01*
X199671240Y-50132423D01*
X199709026Y-50158261D01*
X200612181Y-51061416D01*
X200645666Y-51122739D01*
X200648500Y-51149097D01*
X200648500Y-56502402D01*
X200628815Y-56569441D01*
X200576011Y-56615196D01*
X200506853Y-56625140D01*
X200443297Y-56596115D01*
X200436819Y-56590083D01*
X200271819Y-56425083D01*
X200238334Y-56363760D01*
X200235500Y-56337402D01*
X200235500Y-55349997D01*
X200235499Y-55349984D01*
X200224999Y-55247204D01*
X200224999Y-55247203D01*
X200169814Y-55080666D01*
X200077711Y-54931345D01*
X199953655Y-54807289D01*
X199953651Y-54807286D01*
X199804337Y-54715187D01*
X199804335Y-54715186D01*
X199721065Y-54687593D01*
X199637797Y-54660001D01*
X199637795Y-54660000D01*
X199535015Y-54649500D01*
X199535008Y-54649500D01*
X198184992Y-54649500D01*
X198184984Y-54649500D01*
X198082204Y-54660000D01*
X198082203Y-54660001D01*
X197915664Y-54715186D01*
X197915662Y-54715187D01*
X197766348Y-54807286D01*
X197766344Y-54807289D01*
X197642289Y-54931344D01*
X197642286Y-54931348D01*
X197550187Y-55080662D01*
X197550186Y-55080664D01*
X197495001Y-55247203D01*
X197495000Y-55247204D01*
X197484500Y-55349984D01*
X197484500Y-56375015D01*
X197495000Y-56477795D01*
X197495001Y-56477797D01*
X197522593Y-56561065D01*
X197550186Y-56644335D01*
X197550187Y-56644337D01*
X197642286Y-56793651D01*
X197642289Y-56793655D01*
X197766344Y-56917710D01*
X197766348Y-56917713D01*
X197915662Y-57009812D01*
X197915664Y-57009813D01*
X197915666Y-57009814D01*
X198082203Y-57064999D01*
X198184992Y-57075500D01*
X199172403Y-57075500D01*
X199239442Y-57095185D01*
X199260084Y-57111819D01*
X199561083Y-57412819D01*
X199594568Y-57474142D01*
X199589584Y-57543834D01*
X199547712Y-57599767D01*
X199482248Y-57624184D01*
X199473402Y-57624500D01*
X198184984Y-57624500D01*
X198082204Y-57635000D01*
X198082203Y-57635001D01*
X197915664Y-57690186D01*
X197915662Y-57690187D01*
X197766348Y-57782286D01*
X197766344Y-57782289D01*
X197642289Y-57906344D01*
X197642286Y-57906348D01*
X197550187Y-58055662D01*
X197550186Y-58055664D01*
X197495001Y-58222203D01*
X197495000Y-58222204D01*
X197484500Y-58324984D01*
X197484500Y-59350015D01*
X197495000Y-59452795D01*
X197495001Y-59452796D01*
X197550186Y-59619335D01*
X197550187Y-59619337D01*
X197642286Y-59768651D01*
X197642289Y-59768655D01*
X197766344Y-59892710D01*
X197766348Y-59892713D01*
X197915662Y-59984812D01*
X197915664Y-59984813D01*
X197915666Y-59984814D01*
X198082203Y-60039999D01*
X198184992Y-60050500D01*
X199172403Y-60050500D01*
X199239442Y-60070185D01*
X199260084Y-60086819D01*
X199381084Y-60207819D01*
X199414569Y-60269142D01*
X199409585Y-60338834D01*
X199367713Y-60394767D01*
X199302249Y-60419184D01*
X199293403Y-60419500D01*
X198184984Y-60419500D01*
X198082204Y-60430000D01*
X198082203Y-60430001D01*
X197915664Y-60485186D01*
X197915662Y-60485187D01*
X197766348Y-60577286D01*
X197766344Y-60577289D01*
X197642289Y-60701344D01*
X197642286Y-60701348D01*
X197550187Y-60850662D01*
X197550186Y-60850665D01*
X197529032Y-60914504D01*
X197489259Y-60971949D01*
X197424743Y-60998772D01*
X197411326Y-60999500D01*
X195300097Y-60999500D01*
X195233058Y-60979815D01*
X195212416Y-60963181D01*
X191825090Y-57575855D01*
X191825088Y-57575852D01*
X191706217Y-57456981D01*
X191706216Y-57456980D01*
X191619404Y-57406860D01*
X191619404Y-57406859D01*
X191619400Y-57406858D01*
X191569285Y-57377923D01*
X191416557Y-57336999D01*
X191258443Y-57336999D01*
X191250847Y-57336999D01*
X191250831Y-57337000D01*
X190598348Y-57337000D01*
X190531309Y-57317315D01*
X190492809Y-57278097D01*
X190441234Y-57194480D01*
X190417712Y-57156344D01*
X190293656Y-57032288D01*
X190144334Y-56940186D01*
X189977797Y-56885001D01*
X189977795Y-56885000D01*
X189875010Y-56874500D01*
X188524998Y-56874500D01*
X188524981Y-56874501D01*
X188422203Y-56885000D01*
X188422200Y-56885001D01*
X188255668Y-56940185D01*
X188255663Y-56940187D01*
X188106342Y-57032289D01*
X187982289Y-57156342D01*
X187890187Y-57305663D01*
X187890186Y-57305666D01*
X187835001Y-57472203D01*
X187835001Y-57472204D01*
X187835000Y-57472204D01*
X187824500Y-57574983D01*
X187824500Y-58300001D01*
X187824501Y-58300019D01*
X187835000Y-58402796D01*
X187835001Y-58402799D01*
X187890185Y-58569331D01*
X187890187Y-58569336D01*
X187925069Y-58625888D01*
X187982288Y-58718656D01*
X188106344Y-58842712D01*
X188255666Y-58934814D01*
X188422203Y-58989999D01*
X188524991Y-59000500D01*
X189875008Y-59000499D01*
X189977797Y-58989999D01*
X190144334Y-58934814D01*
X190293656Y-58842712D01*
X190417712Y-58718656D01*
X190492809Y-58596902D01*
X190544757Y-58550179D01*
X190598348Y-58538000D01*
X191037403Y-58538000D01*
X191104442Y-58557685D01*
X191125084Y-58574319D01*
X194515139Y-61964374D01*
X194515149Y-61964385D01*
X194519479Y-61968715D01*
X194519480Y-61968716D01*
X194631284Y-62080520D01*
X194702910Y-62121873D01*
X194768215Y-62159577D01*
X194920943Y-62200500D01*
X195079057Y-62200500D01*
X197389788Y-62200500D01*
X197456827Y-62220185D01*
X197502582Y-62272989D01*
X197507491Y-62285489D01*
X197514639Y-62307059D01*
X197550185Y-62414332D01*
X197550187Y-62414337D01*
X197642286Y-62563651D01*
X197642289Y-62563655D01*
X197766344Y-62687710D01*
X197766348Y-62687713D01*
X197838896Y-62732462D01*
X197885621Y-62784410D01*
X197896842Y-62853373D01*
X197868999Y-62917454D01*
X197810930Y-62956310D01*
X197773799Y-62962000D01*
X192111669Y-62962000D01*
X192111653Y-62961999D01*
X192104057Y-62961999D01*
X191945943Y-62961999D01*
X191838587Y-62990765D01*
X191793210Y-63002924D01*
X191793209Y-63002925D01*
X191743096Y-63031859D01*
X191743095Y-63031860D01*
X191705068Y-63053815D01*
X191656285Y-63081979D01*
X191656282Y-63081981D01*
X191544478Y-63193786D01*
X189775082Y-64963181D01*
X189713759Y-64996666D01*
X189687401Y-64999500D01*
X188524998Y-64999500D01*
X188524981Y-64999501D01*
X188422203Y-65010000D01*
X188422200Y-65010001D01*
X188255668Y-65065185D01*
X188255663Y-65065187D01*
X188106342Y-65157289D01*
X187982288Y-65281343D01*
X187982285Y-65281347D01*
X187898110Y-65417816D01*
X187846162Y-65464541D01*
X187777200Y-65475762D01*
X187713118Y-65447919D01*
X187704891Y-65440400D01*
X186351846Y-64087355D01*
X186351844Y-64087352D01*
X186232971Y-63968479D01*
X186232009Y-63967741D01*
X186231402Y-63966910D01*
X186227225Y-63962733D01*
X186227876Y-63962081D01*
X186190808Y-63911312D01*
X186183499Y-63869368D01*
X186183499Y-63526129D01*
X186183499Y-63526128D01*
X186179067Y-63484898D01*
X186179068Y-63458393D01*
X186182999Y-63421833D01*
X186183000Y-63421819D01*
X186183000Y-63374000D01*
X186167388Y-63358388D01*
X186153516Y-63354315D01*
X186121289Y-63324312D01*
X186082999Y-63273164D01*
X186040546Y-63216454D01*
X186040544Y-63216453D01*
X186040544Y-63216452D01*
X185948124Y-63147266D01*
X185906253Y-63091332D01*
X185901269Y-63021641D01*
X185934755Y-62960318D01*
X185996078Y-62926834D01*
X186022435Y-62924000D01*
X186183000Y-62924000D01*
X186183000Y-62876179D01*
X186182999Y-62876168D01*
X186178815Y-62837258D01*
X186178815Y-62810742D01*
X186182999Y-62771831D01*
X186183000Y-62771821D01*
X186183000Y-62724000D01*
X186022435Y-62724000D01*
X185955396Y-62704315D01*
X185909641Y-62651511D01*
X185899697Y-62582353D01*
X185928722Y-62518797D01*
X185948124Y-62500734D01*
X186006432Y-62457083D01*
X186040546Y-62431546D01*
X186121289Y-62323688D01*
X186169105Y-62287894D01*
X186183000Y-62274000D01*
X186183000Y-62226182D01*
X186182999Y-62226164D01*
X186179068Y-62189602D01*
X186179068Y-62163093D01*
X186183500Y-62121873D01*
X186183499Y-61576128D01*
X186183498Y-61576111D01*
X186179320Y-61537253D01*
X186179320Y-61510747D01*
X186183500Y-61471873D01*
X186183500Y-61324500D01*
X186203185Y-61257461D01*
X186255989Y-61211706D01*
X186307500Y-61200500D01*
X187710019Y-61200500D01*
X187777058Y-61220185D01*
X187822813Y-61272989D01*
X187833377Y-61311899D01*
X187835000Y-61327796D01*
X187835001Y-61327799D01*
X187882740Y-61471864D01*
X187890186Y-61494334D01*
X187982288Y-61643656D01*
X188106344Y-61767712D01*
X188255666Y-61859814D01*
X188323506Y-61882294D01*
X188380950Y-61922065D01*
X188407774Y-61986581D01*
X188395459Y-62055357D01*
X188347917Y-62106557D01*
X188323508Y-62117704D01*
X188255672Y-62140183D01*
X188255663Y-62140187D01*
X188106342Y-62232289D01*
X187982289Y-62356342D01*
X187890187Y-62505663D01*
X187890185Y-62505668D01*
X187870972Y-62563651D01*
X187835001Y-62672203D01*
X187835001Y-62672204D01*
X187835000Y-62672204D01*
X187824500Y-62774983D01*
X187824500Y-63500001D01*
X187824501Y-63500019D01*
X187835000Y-63602796D01*
X187835001Y-63602799D01*
X187890185Y-63769331D01*
X187890187Y-63769336D01*
X187924075Y-63824277D01*
X187982288Y-63918656D01*
X188106344Y-64042712D01*
X188255666Y-64134814D01*
X188422203Y-64189999D01*
X188524991Y-64200500D01*
X189875008Y-64200499D01*
X189977797Y-64189999D01*
X190144334Y-64134814D01*
X190293656Y-64042712D01*
X190417712Y-63918656D01*
X190509814Y-63769334D01*
X190564999Y-63602797D01*
X190575500Y-63500009D01*
X190575499Y-62774992D01*
X190575180Y-62771872D01*
X190564999Y-62672203D01*
X190564998Y-62672200D01*
X190558142Y-62651511D01*
X190509814Y-62505666D01*
X190417712Y-62356344D01*
X190293656Y-62232288D01*
X190199156Y-62174000D01*
X190144336Y-62140187D01*
X190144331Y-62140185D01*
X190140583Y-62138943D01*
X190076492Y-62117705D01*
X190019048Y-62077933D01*
X189992225Y-62013417D01*
X190004540Y-61944642D01*
X190052083Y-61893442D01*
X190076490Y-61882295D01*
X190144334Y-61859814D01*
X190293656Y-61767712D01*
X190417712Y-61643656D01*
X190509814Y-61494334D01*
X190564999Y-61327797D01*
X190575500Y-61225009D01*
X190575499Y-60499992D01*
X190573447Y-60479908D01*
X190564999Y-60397203D01*
X190564998Y-60397200D01*
X190545657Y-60338834D01*
X190509814Y-60230666D01*
X190417712Y-60081344D01*
X190293656Y-59957288D01*
X190144334Y-59865186D01*
X189977797Y-59810001D01*
X189977795Y-59810000D01*
X189875010Y-59799500D01*
X188524998Y-59799500D01*
X188524981Y-59799501D01*
X188422203Y-59810000D01*
X188422200Y-59810001D01*
X188255668Y-59865185D01*
X188255663Y-59865187D01*
X188106342Y-59957289D01*
X188100451Y-59963181D01*
X188039128Y-59996666D01*
X188012770Y-59999500D01*
X183627940Y-59999500D01*
X183587019Y-60010464D01*
X183587019Y-60010465D01*
X183549751Y-60020451D01*
X183475214Y-60040423D01*
X183475209Y-60040426D01*
X183338290Y-60119475D01*
X183338282Y-60119481D01*
X183226478Y-60231286D01*
X180945584Y-62512181D01*
X180884261Y-62545666D01*
X180857903Y-62548500D01*
X179107500Y-62548500D01*
X179040461Y-62528815D01*
X178994706Y-62476011D01*
X178983500Y-62424501D01*
X178983499Y-62226128D01*
X178983498Y-62226111D01*
X178979320Y-62187253D01*
X178979320Y-62160747D01*
X178983500Y-62121873D01*
X178983499Y-61576128D01*
X178983498Y-61576111D01*
X178979320Y-61537253D01*
X178979320Y-61510747D01*
X178983500Y-61471873D01*
X178983499Y-60926128D01*
X178977091Y-60866517D01*
X178971177Y-60850662D01*
X178926797Y-60731671D01*
X178926793Y-60731664D01*
X178840547Y-60616455D01*
X178840544Y-60616452D01*
X178725335Y-60530206D01*
X178725328Y-60530202D01*
X178590482Y-60479908D01*
X178590483Y-60479908D01*
X178530883Y-60473501D01*
X178530881Y-60473500D01*
X178530873Y-60473500D01*
X178530864Y-60473500D01*
X176685129Y-60473500D01*
X176685123Y-60473501D01*
X176625516Y-60479908D01*
X176490671Y-60530202D01*
X176490668Y-60530204D01*
X176388185Y-60606923D01*
X176345970Y-60627430D01*
X176301217Y-60639422D01*
X176301212Y-60639424D01*
X176164287Y-60718477D01*
X176164282Y-60718481D01*
X175033481Y-61849282D01*
X175033475Y-61849290D01*
X174989478Y-61925497D01*
X174989478Y-61925498D01*
X174954423Y-61986214D01*
X174954423Y-61986215D01*
X174913499Y-62138943D01*
X174913499Y-62138945D01*
X174913499Y-62307046D01*
X174913500Y-62307059D01*
X174913500Y-68454529D01*
X174893815Y-68521568D01*
X174877181Y-68542210D01*
X174831286Y-68588105D01*
X174831284Y-68588108D01*
X174719481Y-68699910D01*
X174719479Y-68699913D01*
X174669361Y-68786722D01*
X174669359Y-68786724D01*
X174640425Y-68836837D01*
X174640424Y-68836838D01*
X174640423Y-68836843D01*
X174599499Y-68989571D01*
X174599499Y-68989573D01*
X174599499Y-69157674D01*
X174599500Y-69157687D01*
X174599500Y-75513330D01*
X174599499Y-75513348D01*
X174599499Y-75679054D01*
X174599498Y-75679054D01*
X174640423Y-75831785D01*
X174669358Y-75881900D01*
X174669359Y-75881904D01*
X174669360Y-75881904D01*
X174717441Y-75965185D01*
X174719479Y-75968714D01*
X174719481Y-75968717D01*
X174838349Y-76087585D01*
X174838354Y-76087589D01*
X176660284Y-77909520D01*
X176660286Y-77909521D01*
X176660290Y-77909524D01*
X176783316Y-77980552D01*
X176797216Y-77988577D01*
X176949943Y-78029501D01*
X176949945Y-78029501D01*
X177115654Y-78029501D01*
X177115670Y-78029500D01*
X177362192Y-78029500D01*
X177429231Y-78049185D01*
X177449874Y-78065820D01*
X177481129Y-78097076D01*
X177481133Y-78097079D01*
X177481135Y-78097081D01*
X177622602Y-78180744D01*
X177664224Y-78192836D01*
X177780426Y-78226597D01*
X177780429Y-78226597D01*
X177780431Y-78226598D01*
X177817306Y-78229500D01*
X177817314Y-78229500D01*
X179598686Y-78229500D01*
X179598694Y-78229500D01*
X179635569Y-78226598D01*
X179635571Y-78226597D01*
X179635573Y-78226597D01*
X179677191Y-78214505D01*
X179793398Y-78180744D01*
X179934865Y-78097081D01*
X180051081Y-77980865D01*
X180134744Y-77839398D01*
X180180598Y-77681569D01*
X180180800Y-77679001D01*
X182185704Y-77679001D01*
X182185899Y-77681486D01*
X182231718Y-77839198D01*
X182315314Y-77980552D01*
X182315321Y-77980561D01*
X182431438Y-78096678D01*
X182431447Y-78096685D01*
X182572803Y-78180282D01*
X182572806Y-78180283D01*
X182730504Y-78226099D01*
X182730510Y-78226100D01*
X182767350Y-78228999D01*
X182767366Y-78229000D01*
X183408000Y-78229000D01*
X183908000Y-78229000D01*
X184548634Y-78229000D01*
X184548649Y-78228999D01*
X184585489Y-78226100D01*
X184585495Y-78226099D01*
X184743193Y-78180283D01*
X184743196Y-78180282D01*
X184884552Y-78096685D01*
X184884561Y-78096678D01*
X185000678Y-77980561D01*
X185000685Y-77980552D01*
X185084281Y-77839198D01*
X185130100Y-77681486D01*
X185130295Y-77679001D01*
X185130295Y-77679000D01*
X183908000Y-77679000D01*
X183908000Y-78229000D01*
X183408000Y-78229000D01*
X183408000Y-77679000D01*
X182185705Y-77679000D01*
X182185704Y-77679001D01*
X180180800Y-77679001D01*
X180183500Y-77644694D01*
X180183500Y-77374986D01*
X187800001Y-77374986D01*
X187810494Y-77477697D01*
X187865641Y-77644119D01*
X187865643Y-77644124D01*
X187957684Y-77793345D01*
X188081654Y-77917315D01*
X188230875Y-78009356D01*
X188230880Y-78009358D01*
X188397302Y-78064505D01*
X188397309Y-78064506D01*
X188500019Y-78074999D01*
X188949999Y-78074999D01*
X189450000Y-78074999D01*
X189899972Y-78074999D01*
X189899986Y-78074998D01*
X190002697Y-78064505D01*
X190169119Y-78009358D01*
X190169124Y-78009356D01*
X190318345Y-77917315D01*
X190442315Y-77793345D01*
X190534356Y-77644124D01*
X190534358Y-77644119D01*
X190589505Y-77477697D01*
X190589506Y-77477690D01*
X190599999Y-77374986D01*
X190600000Y-77374973D01*
X190600000Y-77250000D01*
X189450000Y-77250000D01*
X189450000Y-78074999D01*
X188949999Y-78074999D01*
X188950000Y-78074998D01*
X188950000Y-77250000D01*
X187800001Y-77250000D01*
X187800001Y-77374986D01*
X180183500Y-77374986D01*
X180183500Y-77213306D01*
X180180598Y-77176431D01*
X180134744Y-77018602D01*
X180051081Y-76877135D01*
X180051078Y-76877132D01*
X180046298Y-76870969D01*
X180048750Y-76869066D01*
X180022155Y-76820421D01*
X180027104Y-76750726D01*
X180047940Y-76718304D01*
X180046298Y-76717031D01*
X180051075Y-76710870D01*
X180051081Y-76710865D01*
X180134744Y-76569398D01*
X180180598Y-76411569D01*
X180183500Y-76374694D01*
X180183500Y-75943306D01*
X180180598Y-75906431D01*
X180178584Y-75899500D01*
X180134745Y-75748606D01*
X180134744Y-75748603D01*
X180134744Y-75748602D01*
X180051081Y-75607135D01*
X180051078Y-75607132D01*
X180046298Y-75600969D01*
X180048750Y-75599066D01*
X180022155Y-75550421D01*
X180027104Y-75480726D01*
X180047940Y-75448304D01*
X180046298Y-75447031D01*
X180051075Y-75440870D01*
X180051081Y-75440865D01*
X180134744Y-75299398D01*
X180180598Y-75141569D01*
X180183500Y-75104694D01*
X180183500Y-75098097D01*
X180203185Y-75031058D01*
X180219819Y-75010416D01*
X181085813Y-74144422D01*
X181976182Y-73254053D01*
X182037502Y-73220570D01*
X182107194Y-73225554D01*
X182163127Y-73267426D01*
X182187544Y-73332890D01*
X182185844Y-73364003D01*
X182185402Y-73366420D01*
X182182500Y-73403298D01*
X182182500Y-73834701D01*
X182185401Y-73871567D01*
X182185402Y-73871573D01*
X182231254Y-74029393D01*
X182231255Y-74029396D01*
X182314917Y-74170862D01*
X182319702Y-74177031D01*
X182317256Y-74178927D01*
X182343857Y-74227642D01*
X182338873Y-74297334D01*
X182318069Y-74329703D01*
X182319702Y-74330969D01*
X182314917Y-74337137D01*
X182231255Y-74478603D01*
X182231254Y-74478606D01*
X182185402Y-74636426D01*
X182185401Y-74636432D01*
X182182500Y-74673298D01*
X182182500Y-75104701D01*
X182185401Y-75141567D01*
X182185402Y-75141573D01*
X182231254Y-75299393D01*
X182231255Y-75299396D01*
X182314917Y-75440862D01*
X182319702Y-75447031D01*
X182317256Y-75448927D01*
X182343857Y-75497642D01*
X182338873Y-75567334D01*
X182318069Y-75599703D01*
X182319702Y-75600969D01*
X182314917Y-75607137D01*
X182231255Y-75748603D01*
X182231254Y-75748606D01*
X182185402Y-75906426D01*
X182185401Y-75906432D01*
X182182500Y-75943298D01*
X182182500Y-76374701D01*
X182185401Y-76411567D01*
X182185402Y-76411573D01*
X182231254Y-76569393D01*
X182231255Y-76569396D01*
X182314917Y-76710862D01*
X182319702Y-76717031D01*
X182317369Y-76718840D01*
X182344210Y-76767995D01*
X182339226Y-76837687D01*
X182318470Y-76870021D01*
X182320097Y-76871283D01*
X182315313Y-76877449D01*
X182231718Y-77018801D01*
X182185899Y-77176513D01*
X182185704Y-77178998D01*
X182185705Y-77179000D01*
X185130295Y-77179000D01*
X185130295Y-77178998D01*
X185130100Y-77176513D01*
X185084281Y-77018801D01*
X185021487Y-76912621D01*
X185004304Y-76844897D01*
X185026464Y-76778634D01*
X185080930Y-76734871D01*
X185128219Y-76725500D01*
X187724138Y-76725500D01*
X187791177Y-76745185D01*
X187797152Y-76750000D01*
X190609825Y-76750000D01*
X190649503Y-76728334D01*
X190675861Y-76725500D01*
X197588331Y-76725500D01*
X197588347Y-76725501D01*
X197595943Y-76725501D01*
X197754054Y-76725501D01*
X197754057Y-76725501D01*
X197906785Y-76684577D01*
X197956904Y-76655639D01*
X198043716Y-76605520D01*
X198155520Y-76493716D01*
X198155520Y-76493714D01*
X198165728Y-76483507D01*
X198165729Y-76483504D01*
X201464321Y-73184913D01*
X201525642Y-73151430D01*
X201595334Y-73156414D01*
X201651267Y-73198286D01*
X201675684Y-73263750D01*
X201676000Y-73272596D01*
X201676000Y-90300000D01*
X201656315Y-90367039D01*
X201603511Y-90412794D01*
X201552000Y-90424000D01*
X193040000Y-90424000D01*
X193040000Y-91628502D01*
X193034977Y-91663436D01*
X193030046Y-91680228D01*
X193030045Y-91680232D01*
X192999500Y-91892682D01*
X192999500Y-105236901D01*
X192979815Y-105303940D01*
X192927011Y-105349695D01*
X192857853Y-105359639D01*
X192794297Y-105330614D01*
X192787819Y-105324582D01*
X192769397Y-105306160D01*
X192769374Y-105306139D01*
X191657819Y-104194584D01*
X191624334Y-104133261D01*
X191621500Y-104106903D01*
X191621500Y-103971997D01*
X191621499Y-103971984D01*
X191618053Y-103938256D01*
X191610999Y-103869203D01*
X191555814Y-103702666D01*
X191544093Y-103683664D01*
X191463713Y-103553348D01*
X191463710Y-103553344D01*
X191339655Y-103429289D01*
X191339651Y-103429286D01*
X191190337Y-103337187D01*
X191190335Y-103337186D01*
X191107065Y-103309593D01*
X191023797Y-103282001D01*
X191023795Y-103282000D01*
X190921015Y-103271500D01*
X190921008Y-103271500D01*
X189795500Y-103271500D01*
X189728461Y-103251815D01*
X189682706Y-103199011D01*
X189671500Y-103147500D01*
X189671500Y-102984597D01*
X189691185Y-102917558D01*
X189707819Y-102896916D01*
X189845916Y-102758819D01*
X189907239Y-102725334D01*
X189933597Y-102722500D01*
X190921003Y-102722500D01*
X190921008Y-102722500D01*
X191023797Y-102711999D01*
X191190334Y-102656814D01*
X191339655Y-102564711D01*
X191463711Y-102440655D01*
X191555814Y-102291334D01*
X191610999Y-102124797D01*
X191621500Y-102022008D01*
X191621500Y-100996992D01*
X191610999Y-100894203D01*
X191555814Y-100727666D01*
X191545004Y-100710141D01*
X191463713Y-100578348D01*
X191463710Y-100578344D01*
X191335324Y-100449958D01*
X191301839Y-100388635D01*
X191306823Y-100318943D01*
X191335324Y-100274596D01*
X191364752Y-100245168D01*
X191888520Y-99721402D01*
X191967577Y-99584470D01*
X192008501Y-99431743D01*
X192008501Y-99273628D01*
X192008501Y-99266033D01*
X192008500Y-99266015D01*
X192008500Y-94554943D01*
X192008499Y-94554940D01*
X191998879Y-94519036D01*
X191998879Y-94519035D01*
X191967577Y-94402215D01*
X191923863Y-94326501D01*
X191923863Y-94326499D01*
X191888524Y-94265290D01*
X191888521Y-94265286D01*
X191888520Y-94265284D01*
X191776716Y-94153480D01*
X191776715Y-94153479D01*
X191772385Y-94149149D01*
X191772374Y-94149139D01*
X191124454Y-93501219D01*
X191090969Y-93439896D01*
X191088607Y-93402735D01*
X191093659Y-93345000D01*
X191073063Y-93109592D01*
X191013781Y-92888347D01*
X191011905Y-92881344D01*
X191011904Y-92881343D01*
X191011903Y-92881337D01*
X190912035Y-92667171D01*
X190824449Y-92542085D01*
X190776496Y-92473600D01*
X190728799Y-92425903D01*
X190654567Y-92351671D01*
X190621084Y-92290351D01*
X190626068Y-92220659D01*
X190667939Y-92164725D01*
X190698915Y-92147810D01*
X190830331Y-92098796D01*
X190945546Y-92012546D01*
X191031796Y-91897331D01*
X191082091Y-91762483D01*
X191088500Y-91702873D01*
X191088499Y-89907128D01*
X191082091Y-89847517D01*
X191072005Y-89820476D01*
X191031797Y-89712671D01*
X191031796Y-89712670D01*
X191031796Y-89712669D01*
X190984778Y-89649861D01*
X190960361Y-89584397D01*
X190975213Y-89516124D01*
X190996361Y-89487872D01*
X194377430Y-86106803D01*
X194438751Y-86073320D01*
X194508443Y-86078304D01*
X194534953Y-86092028D01*
X194678366Y-86189805D01*
X194678371Y-86189807D01*
X194678372Y-86189808D01*
X194678373Y-86189809D01*
X194800328Y-86248538D01*
X194907992Y-86300387D01*
X194907993Y-86300387D01*
X194907996Y-86300389D01*
X195151542Y-86375513D01*
X195403565Y-86413500D01*
X195658435Y-86413500D01*
X195910458Y-86375513D01*
X196154004Y-86300389D01*
X196383634Y-86189805D01*
X196594217Y-86046232D01*
X196781050Y-85872877D01*
X196939959Y-85673612D01*
X197067393Y-85452888D01*
X197091212Y-85392197D01*
X197134028Y-85336984D01*
X197199897Y-85313683D01*
X197206640Y-85313500D01*
X197255360Y-85313500D01*
X197322399Y-85333185D01*
X197368154Y-85385989D01*
X197370785Y-85392192D01*
X197394607Y-85452888D01*
X197522041Y-85673612D01*
X197680950Y-85872877D01*
X197867783Y-86046232D01*
X198078366Y-86189805D01*
X198078371Y-86189807D01*
X198078372Y-86189808D01*
X198078373Y-86189809D01*
X198200328Y-86248538D01*
X198307992Y-86300387D01*
X198307993Y-86300387D01*
X198307996Y-86300389D01*
X198551542Y-86375513D01*
X198803565Y-86413500D01*
X199058435Y-86413500D01*
X199310458Y-86375513D01*
X199554004Y-86300389D01*
X199783634Y-86189805D01*
X199994217Y-86046232D01*
X200181050Y-85872877D01*
X200339959Y-85673612D01*
X200467393Y-85452888D01*
X200560508Y-85215637D01*
X200617222Y-84967157D01*
X200625384Y-84858232D01*
X200636268Y-84713004D01*
X200636268Y-84712995D01*
X200617222Y-84458845D01*
X200560509Y-84210369D01*
X200560508Y-84210363D01*
X200467393Y-83973112D01*
X200339959Y-83752388D01*
X200181050Y-83553123D01*
X199994217Y-83379768D01*
X199783634Y-83236195D01*
X199783630Y-83236193D01*
X199783627Y-83236191D01*
X199783626Y-83236190D01*
X199554006Y-83125612D01*
X199554008Y-83125612D01*
X199310466Y-83050489D01*
X199310462Y-83050488D01*
X199310458Y-83050487D01*
X199189231Y-83032214D01*
X199058440Y-83012500D01*
X199058435Y-83012500D01*
X198803565Y-83012500D01*
X198803559Y-83012500D01*
X198646609Y-83036157D01*
X198551542Y-83050487D01*
X198551539Y-83050488D01*
X198551533Y-83050489D01*
X198307992Y-83125612D01*
X198078373Y-83236190D01*
X198078372Y-83236191D01*
X197867782Y-83379768D01*
X197680952Y-83553121D01*
X197680950Y-83553123D01*
X197522041Y-83752388D01*
X197394607Y-83973111D01*
X197370788Y-84033802D01*
X197327972Y-84089016D01*
X197262103Y-84112317D01*
X197255360Y-84112500D01*
X197206640Y-84112500D01*
X197139601Y-84092815D01*
X197093846Y-84040011D01*
X197091212Y-84033802D01*
X197067393Y-83973112D01*
X196939959Y-83752388D01*
X196781050Y-83553123D01*
X196594217Y-83379768D01*
X196383634Y-83236195D01*
X196383630Y-83236193D01*
X196383627Y-83236191D01*
X196383626Y-83236190D01*
X196154006Y-83125612D01*
X196154008Y-83125612D01*
X195910466Y-83050489D01*
X195910462Y-83050488D01*
X195910458Y-83050487D01*
X195789231Y-83032214D01*
X195658440Y-83012500D01*
X195658435Y-83012500D01*
X195403565Y-83012500D01*
X195403559Y-83012500D01*
X195246609Y-83036157D01*
X195151542Y-83050487D01*
X195151539Y-83050488D01*
X195151533Y-83050489D01*
X194907992Y-83125612D01*
X194678373Y-83236190D01*
X194678372Y-83236191D01*
X194467782Y-83379768D01*
X194280952Y-83553121D01*
X194280950Y-83553123D01*
X194122041Y-83752388D01*
X193994608Y-83973109D01*
X193901492Y-84210362D01*
X193901490Y-84210369D01*
X193844777Y-84458845D01*
X193825732Y-84712995D01*
X193825732Y-84713003D01*
X193838702Y-84886086D01*
X193824082Y-84954409D01*
X193802730Y-84983033D01*
X189369286Y-89416478D01*
X189369259Y-89416505D01*
X189367556Y-89418207D01*
X189306224Y-89451674D01*
X189279901Y-89454500D01*
X188840129Y-89454500D01*
X188840123Y-89454501D01*
X188780516Y-89460908D01*
X188645671Y-89511202D01*
X188645664Y-89511206D01*
X188530455Y-89597452D01*
X188530452Y-89597455D01*
X188444206Y-89712664D01*
X188444202Y-89712671D01*
X188393908Y-89847517D01*
X188387501Y-89907116D01*
X188387501Y-89907123D01*
X188387500Y-89907135D01*
X188387500Y-91702870D01*
X188387501Y-91702876D01*
X188393908Y-91762483D01*
X188444202Y-91897328D01*
X188444206Y-91897335D01*
X188530452Y-92012544D01*
X188530455Y-92012547D01*
X188645664Y-92098793D01*
X188645671Y-92098797D01*
X188777081Y-92147810D01*
X188833015Y-92189681D01*
X188857432Y-92255145D01*
X188842580Y-92323418D01*
X188821430Y-92351673D01*
X188699503Y-92473600D01*
X188563965Y-92667169D01*
X188563964Y-92667171D01*
X188464098Y-92881335D01*
X188464094Y-92881344D01*
X188402938Y-93109586D01*
X188402936Y-93109596D01*
X188382341Y-93344999D01*
X188382341Y-93345000D01*
X188402936Y-93580403D01*
X188402938Y-93580413D01*
X188464094Y-93808655D01*
X188464096Y-93808659D01*
X188464097Y-93808663D01*
X188503518Y-93893201D01*
X188563965Y-94022830D01*
X188563967Y-94022834D01*
X188699501Y-94216395D01*
X188699506Y-94216402D01*
X188866597Y-94383493D01*
X188866603Y-94383498D01*
X189052158Y-94513425D01*
X189095783Y-94568002D01*
X189102977Y-94637500D01*
X189071454Y-94699855D01*
X189052158Y-94716575D01*
X188866597Y-94846505D01*
X188699505Y-95013597D01*
X188563965Y-95207169D01*
X188563964Y-95207171D01*
X188464098Y-95421335D01*
X188464094Y-95421344D01*
X188402938Y-95649586D01*
X188402936Y-95649596D01*
X188382341Y-95884999D01*
X188382341Y-95885000D01*
X188402936Y-96120403D01*
X188402938Y-96120413D01*
X188464094Y-96348655D01*
X188464096Y-96348659D01*
X188464097Y-96348663D01*
X188528792Y-96487402D01*
X188563965Y-96562830D01*
X188563967Y-96562834D01*
X188699501Y-96756395D01*
X188699506Y-96756402D01*
X188866597Y-96923493D01*
X188866603Y-96923498D01*
X189052594Y-97053730D01*
X189096219Y-97108307D01*
X189103413Y-97177805D01*
X189071890Y-97240160D01*
X189052595Y-97256880D01*
X188866922Y-97386890D01*
X188866920Y-97386891D01*
X188699891Y-97553920D01*
X188699886Y-97553926D01*
X188564400Y-97747420D01*
X188564399Y-97747422D01*
X188464570Y-97961507D01*
X188464567Y-97961513D01*
X188407364Y-98174999D01*
X188407364Y-98175000D01*
X189304988Y-98175000D01*
X189272075Y-98232007D01*
X189238000Y-98359174D01*
X189238000Y-98490826D01*
X189272075Y-98617993D01*
X189304988Y-98675000D01*
X188407364Y-98675000D01*
X188464567Y-98888486D01*
X188464570Y-98888492D01*
X188537595Y-99045095D01*
X188548087Y-99114173D01*
X188519567Y-99177957D01*
X188461091Y-99216196D01*
X188425213Y-99221500D01*
X187929941Y-99221500D01*
X187771826Y-99221500D01*
X187619099Y-99262423D01*
X187619098Y-99262423D01*
X187619096Y-99262424D01*
X187619093Y-99262425D01*
X187568980Y-99291359D01*
X187568979Y-99291360D01*
X187549684Y-99302500D01*
X187482169Y-99341479D01*
X187482166Y-99341481D01*
X184044479Y-102779168D01*
X184026786Y-102809815D01*
X184009254Y-102840182D01*
X183976498Y-102896916D01*
X183967790Y-102912000D01*
X183965423Y-102916099D01*
X183924499Y-103068827D01*
X183924499Y-103068829D01*
X183924499Y-103236930D01*
X183924500Y-103236943D01*
X183924500Y-105185216D01*
X183904815Y-105252255D01*
X183888181Y-105272897D01*
X182507481Y-106653596D01*
X182507479Y-106653599D01*
X182472320Y-106714498D01*
X182472319Y-106714500D01*
X182428422Y-106790529D01*
X182428421Y-106790532D01*
X182395158Y-106914669D01*
X182358793Y-106974329D01*
X182295946Y-107004857D01*
X182226570Y-106996562D01*
X182210288Y-106988113D01*
X182194128Y-106978145D01*
X182194119Y-106978141D01*
X182027697Y-106922994D01*
X182027690Y-106922993D01*
X181924986Y-106912500D01*
X181800000Y-106912500D01*
X181800000Y-109712499D01*
X181924972Y-109712499D01*
X181924986Y-109712498D01*
X182027697Y-109702005D01*
X182194119Y-109646858D01*
X182194124Y-109646855D01*
X182198396Y-109644221D01*
X182265787Y-109625776D01*
X182332452Y-109646694D01*
X182377225Y-109700333D01*
X182387500Y-109749755D01*
X182387500Y-110466658D01*
X182367815Y-110533697D01*
X182315011Y-110579452D01*
X182245853Y-110589396D01*
X182182297Y-110560371D01*
X182175819Y-110554339D01*
X181336319Y-109714839D01*
X181302834Y-109653516D01*
X181300000Y-109627158D01*
X181300000Y-106902674D01*
X181278334Y-106862996D01*
X181275500Y-106836638D01*
X181275500Y-105788361D01*
X181295185Y-105721322D01*
X181300000Y-105715346D01*
X181300000Y-105712499D01*
X181800000Y-105712499D01*
X181924972Y-105712499D01*
X181924986Y-105712498D01*
X182027697Y-105702005D01*
X182194119Y-105646858D01*
X182194124Y-105646856D01*
X182343345Y-105554815D01*
X182467315Y-105430845D01*
X182559356Y-105281624D01*
X182559358Y-105281619D01*
X182614505Y-105115197D01*
X182614506Y-105115190D01*
X182624999Y-105012486D01*
X182625000Y-105012473D01*
X182625000Y-104562500D01*
X181800000Y-104562500D01*
X181800000Y-105712499D01*
X181300000Y-105712499D01*
X181300000Y-104062500D01*
X181800000Y-104062500D01*
X182624999Y-104062500D01*
X182624999Y-103612528D01*
X182624998Y-103612513D01*
X182614505Y-103509802D01*
X182559358Y-103343380D01*
X182559356Y-103343375D01*
X182467315Y-103194154D01*
X182343345Y-103070184D01*
X182194124Y-102978143D01*
X182194119Y-102978141D01*
X182027697Y-102922994D01*
X182027690Y-102922993D01*
X181924986Y-102912500D01*
X181800000Y-102912500D01*
X181800000Y-104062500D01*
X181300000Y-104062500D01*
X181300000Y-102902674D01*
X181278334Y-102862996D01*
X181275500Y-102836638D01*
X181275500Y-101788361D01*
X181295185Y-101721322D01*
X181300000Y-101715346D01*
X181300000Y-101712499D01*
X181800000Y-101712499D01*
X181924972Y-101712499D01*
X181924986Y-101712498D01*
X182027697Y-101702005D01*
X182194119Y-101646858D01*
X182194124Y-101646856D01*
X182343345Y-101554815D01*
X182467315Y-101430845D01*
X182559356Y-101281624D01*
X182559358Y-101281619D01*
X182614505Y-101115197D01*
X182614506Y-101115190D01*
X182624999Y-101012486D01*
X182625000Y-101012473D01*
X182625000Y-100562500D01*
X181800000Y-100562500D01*
X181800000Y-101712499D01*
X181300000Y-101712499D01*
X181300000Y-100062500D01*
X181800000Y-100062500D01*
X182624999Y-100062500D01*
X182624999Y-99612528D01*
X182624998Y-99612513D01*
X182614505Y-99509802D01*
X182559358Y-99343380D01*
X182559356Y-99343375D01*
X182467315Y-99194154D01*
X182343345Y-99070184D01*
X182194124Y-98978143D01*
X182194119Y-98978141D01*
X182027697Y-98922994D01*
X182027690Y-98922993D01*
X181924986Y-98912500D01*
X181800000Y-98912500D01*
X181800000Y-100062500D01*
X181300000Y-100062500D01*
X181300000Y-98902674D01*
X181278334Y-98862996D01*
X181275500Y-98836638D01*
X181275500Y-97811999D01*
X181295185Y-97744960D01*
X181347989Y-97699205D01*
X181399500Y-97687999D01*
X181900002Y-97687999D01*
X181900008Y-97687999D01*
X182002797Y-97677499D01*
X182169334Y-97622314D01*
X182318656Y-97530212D01*
X182442712Y-97406156D01*
X182534814Y-97256834D01*
X182589999Y-97090297D01*
X182600500Y-96987509D01*
X182600499Y-95637492D01*
X182589999Y-95534703D01*
X182534814Y-95368166D01*
X182442712Y-95218844D01*
X182318656Y-95094788D01*
X182169334Y-95002686D01*
X182002797Y-94947501D01*
X182002795Y-94947500D01*
X181900010Y-94937000D01*
X181174998Y-94937000D01*
X181174980Y-94937001D01*
X181085031Y-94946190D01*
X181016338Y-94933420D01*
X180984749Y-94910513D01*
X180280756Y-94206520D01*
X179572802Y-93498567D01*
X179539318Y-93437245D01*
X179544302Y-93367553D01*
X179554941Y-93345796D01*
X179609814Y-93256834D01*
X179664999Y-93090297D01*
X179675500Y-92987509D01*
X179675500Y-92987486D01*
X180475001Y-92987486D01*
X180485494Y-93090197D01*
X180540641Y-93256619D01*
X180540643Y-93256624D01*
X180632684Y-93405845D01*
X180756654Y-93529815D01*
X180905875Y-93621856D01*
X180905880Y-93621858D01*
X181072302Y-93677005D01*
X181072309Y-93677006D01*
X181175019Y-93687499D01*
X181287499Y-93687499D01*
X181787500Y-93687499D01*
X181899972Y-93687499D01*
X181899986Y-93687498D01*
X182002697Y-93677005D01*
X182169119Y-93621858D01*
X182169124Y-93621856D01*
X182318345Y-93529815D01*
X182442315Y-93405845D01*
X182534356Y-93256624D01*
X182534358Y-93256619D01*
X182589505Y-93090197D01*
X182589506Y-93090190D01*
X182599999Y-92987486D01*
X182600000Y-92987473D01*
X182600000Y-92562500D01*
X181787500Y-92562500D01*
X181787500Y-93687499D01*
X181287499Y-93687499D01*
X181287500Y-93687498D01*
X181287500Y-92562500D01*
X180475001Y-92562500D01*
X180475001Y-92987486D01*
X179675500Y-92987486D01*
X179675499Y-91637513D01*
X180475000Y-91637513D01*
X180475000Y-92062500D01*
X181287500Y-92062500D01*
X181787500Y-92062500D01*
X182599999Y-92062500D01*
X182599999Y-91637528D01*
X182599998Y-91637513D01*
X182589505Y-91534802D01*
X182534358Y-91368380D01*
X182534356Y-91368375D01*
X182442315Y-91219154D01*
X182318345Y-91095184D01*
X182169124Y-91003143D01*
X182169119Y-91003141D01*
X182002697Y-90947994D01*
X182002690Y-90947993D01*
X181899986Y-90937500D01*
X181787500Y-90937500D01*
X181787500Y-92062500D01*
X181287500Y-92062500D01*
X181287500Y-90937500D01*
X181175027Y-90937500D01*
X181175012Y-90937501D01*
X181072302Y-90947994D01*
X180905880Y-91003141D01*
X180905875Y-91003143D01*
X180756654Y-91095184D01*
X180632684Y-91219154D01*
X180540643Y-91368375D01*
X180540641Y-91368380D01*
X180485494Y-91534802D01*
X180485493Y-91534809D01*
X180475000Y-91637513D01*
X179675499Y-91637513D01*
X179675499Y-91637492D01*
X179664999Y-91534703D01*
X179609814Y-91368166D01*
X179517712Y-91218844D01*
X179393656Y-91094788D01*
X179273937Y-91020945D01*
X179244336Y-91002687D01*
X179244331Y-91002685D01*
X179242862Y-91002198D01*
X179077797Y-90947501D01*
X179077795Y-90947500D01*
X178975010Y-90937000D01*
X178249998Y-90937000D01*
X178249980Y-90937001D01*
X178147203Y-90947500D01*
X178147200Y-90947501D01*
X177980668Y-91002685D01*
X177980663Y-91002687D01*
X177831342Y-91094789D01*
X177707289Y-91218842D01*
X177615187Y-91368163D01*
X177615185Y-91368168D01*
X177591919Y-91438380D01*
X177560001Y-91534703D01*
X177560001Y-91534704D01*
X177560000Y-91534704D01*
X177549500Y-91637483D01*
X177549500Y-92378659D01*
X177529815Y-92445698D01*
X177477011Y-92491453D01*
X177407853Y-92501397D01*
X177344297Y-92472372D01*
X177337819Y-92466340D01*
X175127677Y-90256198D01*
X175127675Y-90256195D01*
X175008804Y-90137324D01*
X175008803Y-90137323D01*
X174921991Y-90087203D01*
X174921991Y-90087202D01*
X174921987Y-90087201D01*
X174871872Y-90058266D01*
X174719144Y-90017342D01*
X174561030Y-90017342D01*
X174553434Y-90017342D01*
X174553418Y-90017343D01*
X172358827Y-90017343D01*
X172358811Y-90017342D01*
X172351215Y-90017342D01*
X172193100Y-90017342D01*
X172193099Y-90017342D01*
X172126195Y-90035269D01*
X172056345Y-90033606D01*
X171998483Y-89994443D01*
X171970979Y-89930215D01*
X171982566Y-89861312D01*
X172006418Y-89827815D01*
X174297416Y-87536817D01*
X174358739Y-87503333D01*
X174385097Y-87500499D01*
X179547871Y-87500499D01*
X179547872Y-87500499D01*
X179607483Y-87494091D01*
X179742331Y-87443796D01*
X179857546Y-87357546D01*
X179943796Y-87242331D01*
X179994091Y-87107483D01*
X180000500Y-87047873D01*
X180000499Y-84952128D01*
X179994091Y-84892517D01*
X179991692Y-84886086D01*
X179943797Y-84757671D01*
X179943793Y-84757664D01*
X179857547Y-84642455D01*
X179857544Y-84642452D01*
X179742335Y-84556206D01*
X179742328Y-84556202D01*
X179607482Y-84505908D01*
X179607483Y-84505908D01*
X179547883Y-84499501D01*
X179547881Y-84499500D01*
X179547873Y-84499500D01*
X179547864Y-84499500D01*
X173952129Y-84499500D01*
X173952123Y-84499501D01*
X173892516Y-84505908D01*
X173757671Y-84556202D01*
X173757664Y-84556206D01*
X173642455Y-84642452D01*
X173642452Y-84642455D01*
X173556206Y-84757664D01*
X173556202Y-84757671D01*
X173505908Y-84892517D01*
X173499501Y-84952116D01*
X173499501Y-84952123D01*
X173499500Y-84952135D01*
X173499500Y-86584902D01*
X173479815Y-86651941D01*
X173463181Y-86672583D01*
X170419481Y-89716282D01*
X170419475Y-89716290D01*
X170381584Y-89781921D01*
X170381584Y-89781923D01*
X170340423Y-89853214D01*
X170340423Y-89853215D01*
X170299499Y-90005943D01*
X170299499Y-90005945D01*
X170299499Y-90174046D01*
X170299500Y-90174059D01*
X170299500Y-90836638D01*
X170279815Y-90903677D01*
X170275000Y-90909652D01*
X170275000Y-93722324D01*
X170296666Y-93762003D01*
X170299500Y-93788361D01*
X170299500Y-98609409D01*
X170279815Y-98676448D01*
X170227011Y-98722203D01*
X170157853Y-98732147D01*
X170094297Y-98703122D01*
X170059318Y-98652742D01*
X170018354Y-98542913D01*
X170018350Y-98542906D01*
X169932190Y-98427812D01*
X169932187Y-98427809D01*
X169817093Y-98341649D01*
X169817086Y-98341645D01*
X169682379Y-98291403D01*
X169682372Y-98291401D01*
X169622844Y-98285000D01*
X169175000Y-98285000D01*
X169175000Y-98795500D01*
X169155315Y-98862539D01*
X169102511Y-98908294D01*
X169051000Y-98919500D01*
X168899000Y-98919500D01*
X168831961Y-98899815D01*
X168786206Y-98847011D01*
X168775000Y-98795500D01*
X168775000Y-98285000D01*
X168327155Y-98285000D01*
X168267627Y-98291401D01*
X168267620Y-98291403D01*
X168132913Y-98341645D01*
X168132906Y-98341649D01*
X168017812Y-98427809D01*
X168017809Y-98427812D01*
X167931649Y-98542906D01*
X167931645Y-98542913D01*
X167881403Y-98677620D01*
X167881401Y-98677627D01*
X167875000Y-98737155D01*
X167875000Y-98785000D01*
X167897819Y-98807819D01*
X167931304Y-98869142D01*
X167926320Y-98938834D01*
X167884448Y-98994767D01*
X167818984Y-99019184D01*
X167810138Y-99019500D01*
X167520097Y-99019500D01*
X167453058Y-98999815D01*
X167432416Y-98983181D01*
X165024318Y-96575083D01*
X164990833Y-96513760D01*
X164987999Y-96487402D01*
X164987999Y-96137597D01*
X165007684Y-96070558D01*
X165024318Y-96049916D01*
X165652899Y-95421335D01*
X167730520Y-93343716D01*
X167809577Y-93206784D01*
X167850501Y-93054057D01*
X167850501Y-93012486D01*
X168950001Y-93012486D01*
X168960494Y-93115197D01*
X169015641Y-93281619D01*
X169015643Y-93281624D01*
X169107684Y-93430845D01*
X169231654Y-93554815D01*
X169380875Y-93646856D01*
X169380880Y-93646858D01*
X169547302Y-93702005D01*
X169547309Y-93702006D01*
X169650019Y-93712499D01*
X169774999Y-93712499D01*
X169775000Y-93712498D01*
X169775000Y-92562500D01*
X168950001Y-92562500D01*
X168950001Y-93012486D01*
X167850501Y-93012486D01*
X167850501Y-92895942D01*
X167850501Y-92888347D01*
X167850500Y-92888329D01*
X167850500Y-91612513D01*
X168950000Y-91612513D01*
X168950000Y-92062500D01*
X169775000Y-92062500D01*
X169775000Y-90912500D01*
X169650027Y-90912500D01*
X169650012Y-90912501D01*
X169547302Y-90922994D01*
X169380880Y-90978141D01*
X169380875Y-90978143D01*
X169231654Y-91070184D01*
X169107684Y-91194154D01*
X169015643Y-91343375D01*
X169015641Y-91343380D01*
X168960494Y-91509802D01*
X168960493Y-91509809D01*
X168950000Y-91612513D01*
X167850500Y-91612513D01*
X167850500Y-87624499D01*
X167870185Y-87557460D01*
X167922989Y-87511705D01*
X167974500Y-87500499D01*
X170047871Y-87500499D01*
X170047872Y-87500499D01*
X170107483Y-87494091D01*
X170242331Y-87443796D01*
X170357546Y-87357546D01*
X170443796Y-87242331D01*
X170494091Y-87107483D01*
X170500500Y-87047873D01*
X170500499Y-84952128D01*
X170494091Y-84892517D01*
X170491692Y-84886086D01*
X170443797Y-84757671D01*
X170443793Y-84757664D01*
X170357547Y-84642455D01*
X170357544Y-84642452D01*
X170242335Y-84556206D01*
X170242328Y-84556202D01*
X170107482Y-84505908D01*
X170107483Y-84505908D01*
X170047883Y-84499501D01*
X170047881Y-84499500D01*
X170047873Y-84499500D01*
X170047864Y-84499500D01*
X164452129Y-84499500D01*
X164452123Y-84499501D01*
X164392516Y-84505908D01*
X164257671Y-84556202D01*
X164257664Y-84556206D01*
X164142455Y-84642452D01*
X164142452Y-84642455D01*
X164056206Y-84757664D01*
X164056202Y-84757671D01*
X164005908Y-84892517D01*
X163999501Y-84952116D01*
X163999501Y-84952123D01*
X163999500Y-84952135D01*
X163999500Y-87047870D01*
X163999501Y-87047876D01*
X164005908Y-87107483D01*
X164056202Y-87242328D01*
X164056206Y-87242335D01*
X164142452Y-87357544D01*
X164142455Y-87357547D01*
X164257664Y-87443793D01*
X164257671Y-87443797D01*
X164392517Y-87494091D01*
X164392516Y-87494091D01*
X164399444Y-87494835D01*
X164452127Y-87500500D01*
X166525500Y-87500499D01*
X166592539Y-87520184D01*
X166638294Y-87572987D01*
X166649500Y-87624499D01*
X166649500Y-92674901D01*
X166629815Y-92741940D01*
X166613181Y-92762582D01*
X164489091Y-94886671D01*
X164427768Y-94920156D01*
X164388808Y-94922348D01*
X164287511Y-94912000D01*
X163537498Y-94912000D01*
X163537480Y-94912001D01*
X163434703Y-94922500D01*
X163434700Y-94922501D01*
X163268168Y-94977685D01*
X163268163Y-94977687D01*
X163118842Y-95069789D01*
X162994789Y-95193842D01*
X162902687Y-95343163D01*
X162902685Y-95343168D01*
X162876783Y-95421335D01*
X162847501Y-95509703D01*
X162847501Y-95509704D01*
X162847500Y-95509704D01*
X162837000Y-95612483D01*
X162837000Y-97012501D01*
X162837001Y-97012518D01*
X162847500Y-97115296D01*
X162847501Y-97115299D01*
X162889042Y-97240659D01*
X162902686Y-97281834D01*
X162994788Y-97431156D01*
X163118844Y-97555212D01*
X163268166Y-97647314D01*
X163434703Y-97702499D01*
X163537491Y-97713000D01*
X164287508Y-97712999D01*
X164388812Y-97702650D01*
X164457501Y-97715419D01*
X164489092Y-97738327D01*
X166193584Y-99442819D01*
X166227069Y-99504142D01*
X166222085Y-99573834D01*
X166180213Y-99629767D01*
X166114749Y-99654184D01*
X166105903Y-99654500D01*
X165104269Y-99654500D01*
X165037230Y-99634815D01*
X164991475Y-99582011D01*
X164980911Y-99543102D01*
X164979623Y-99530499D01*
X164977499Y-99509703D01*
X164922314Y-99343166D01*
X164830212Y-99193844D01*
X164706156Y-99069788D01*
X164556834Y-98977686D01*
X164390297Y-98922501D01*
X164390295Y-98922500D01*
X164287510Y-98912000D01*
X163537498Y-98912000D01*
X163537480Y-98912001D01*
X163434703Y-98922500D01*
X163434700Y-98922501D01*
X163268168Y-98977685D01*
X163268163Y-98977687D01*
X163118842Y-99069789D01*
X162994789Y-99193842D01*
X162902687Y-99343163D01*
X162902685Y-99343168D01*
X162902615Y-99343380D01*
X162847501Y-99509703D01*
X162847501Y-99509704D01*
X162847500Y-99509704D01*
X162837000Y-99612483D01*
X162837000Y-101012501D01*
X162837001Y-101012518D01*
X162847500Y-101115296D01*
X162847501Y-101115299D01*
X162888319Y-101238478D01*
X162902686Y-101281834D01*
X162994788Y-101431156D01*
X163118844Y-101555212D01*
X163268166Y-101647314D01*
X163434703Y-101702499D01*
X163537491Y-101713000D01*
X164287508Y-101712999D01*
X164287516Y-101712998D01*
X164287519Y-101712998D01*
X164343802Y-101707248D01*
X164390297Y-101702499D01*
X164556834Y-101647314D01*
X164706156Y-101555212D01*
X164830212Y-101431156D01*
X164922314Y-101281834D01*
X164977499Y-101115297D01*
X164988000Y-101012509D01*
X164988000Y-100979499D01*
X165007685Y-100912461D01*
X165060489Y-100866706D01*
X165112000Y-100855500D01*
X167750500Y-100855500D01*
X167817539Y-100875185D01*
X167863294Y-100927989D01*
X167874500Y-100979499D01*
X167874500Y-101137869D01*
X167874501Y-101137876D01*
X167880561Y-101194249D01*
X167880561Y-101220753D01*
X167874500Y-101277127D01*
X167874500Y-101277132D01*
X167874500Y-101277133D01*
X167874500Y-101772870D01*
X167874501Y-101772876D01*
X167880561Y-101829249D01*
X167880561Y-101855753D01*
X167874500Y-101912127D01*
X167874500Y-101912132D01*
X167874500Y-101912133D01*
X167874500Y-102407870D01*
X167874501Y-102407876D01*
X167880561Y-102464249D01*
X167880561Y-102490753D01*
X167874500Y-102547127D01*
X167874500Y-102669664D01*
X167874501Y-102705499D01*
X167854817Y-102772539D01*
X167802013Y-102818294D01*
X167750501Y-102829500D01*
X167374464Y-102829500D01*
X167307425Y-102809815D01*
X167261670Y-102757011D01*
X167257422Y-102746454D01*
X167248181Y-102720046D01*
X167222789Y-102647478D01*
X167126816Y-102494738D01*
X166999262Y-102367184D01*
X166969681Y-102348597D01*
X166846523Y-102271211D01*
X166676254Y-102211631D01*
X166676249Y-102211630D01*
X166497004Y-102191435D01*
X166496996Y-102191435D01*
X166317750Y-102211630D01*
X166317745Y-102211631D01*
X166147476Y-102271211D01*
X165994737Y-102367184D01*
X165867184Y-102494737D01*
X165771211Y-102647476D01*
X165711631Y-102817745D01*
X165711630Y-102817750D01*
X165691435Y-102996996D01*
X165691435Y-102997004D01*
X165691484Y-102997440D01*
X165691435Y-102997719D01*
X165691435Y-103003963D01*
X165690341Y-103003963D01*
X165679422Y-103066260D01*
X165634237Y-103116302D01*
X165613740Y-103129181D01*
X165486184Y-103256737D01*
X165390211Y-103409476D01*
X165330631Y-103579745D01*
X165330630Y-103579750D01*
X165310435Y-103758996D01*
X165310435Y-103759003D01*
X165330630Y-103938249D01*
X165330631Y-103938254D01*
X165390211Y-104108523D01*
X165444287Y-104194584D01*
X165486184Y-104261262D01*
X165613738Y-104388816D01*
X165651431Y-104412500D01*
X165720999Y-104456213D01*
X165766478Y-104484789D01*
X165915683Y-104536998D01*
X165936745Y-104544368D01*
X165936750Y-104544369D01*
X166026147Y-104554441D01*
X166053351Y-104557506D01*
X166101466Y-104573338D01*
X166190213Y-104624575D01*
X166190212Y-104624575D01*
X166190216Y-104624577D01*
X166274548Y-104647173D01*
X166334208Y-104683538D01*
X166364737Y-104746385D01*
X166356442Y-104815761D01*
X166330135Y-104854629D01*
X165649584Y-105535181D01*
X165588261Y-105568666D01*
X165561903Y-105571500D01*
X164965821Y-105571500D01*
X164898782Y-105551815D01*
X164853027Y-105499011D01*
X164843083Y-105429853D01*
X164860280Y-105382406D01*
X164922314Y-105281834D01*
X164977499Y-105115297D01*
X164988000Y-105012509D01*
X164987999Y-103612492D01*
X164987435Y-103606975D01*
X164977499Y-103509703D01*
X164977498Y-103509700D01*
X164950851Y-103429286D01*
X164922314Y-103343166D01*
X164830212Y-103193844D01*
X164706156Y-103069788D01*
X164568037Y-102984596D01*
X164556836Y-102977687D01*
X164556831Y-102977685D01*
X164534149Y-102970169D01*
X164390297Y-102922501D01*
X164390295Y-102922500D01*
X164287510Y-102912000D01*
X163537498Y-102912000D01*
X163537480Y-102912001D01*
X163434703Y-102922500D01*
X163434700Y-102922501D01*
X163268168Y-102977685D01*
X163268163Y-102977687D01*
X163118842Y-103069789D01*
X162994789Y-103193842D01*
X162902687Y-103343163D01*
X162902685Y-103343168D01*
X162893779Y-103370046D01*
X162847501Y-103509703D01*
X162847501Y-103509704D01*
X162847500Y-103509704D01*
X162837000Y-103612483D01*
X162837000Y-104487402D01*
X162817315Y-104554441D01*
X162800681Y-104575083D01*
X162288592Y-105087171D01*
X162227269Y-105120656D01*
X162214796Y-105122710D01*
X162175385Y-105127151D01*
X162106563Y-105115097D01*
X162055183Y-105067749D01*
X162037500Y-105003931D01*
X162037500Y-104562500D01*
X161212500Y-104562500D01*
X161212500Y-105712499D01*
X161337472Y-105712499D01*
X161337481Y-105712498D01*
X161353586Y-105710853D01*
X161422279Y-105723621D01*
X161473164Y-105771501D01*
X161490086Y-105839291D01*
X161467672Y-105905467D01*
X161453872Y-105921892D01*
X161356978Y-106018785D01*
X161334752Y-106057284D01*
X161317596Y-106087000D01*
X161277923Y-106155715D01*
X161236999Y-106308443D01*
X161236999Y-106308445D01*
X161236999Y-106476546D01*
X161237000Y-106476559D01*
X161237000Y-106874138D01*
X161225000Y-106915005D01*
X161225000Y-109707716D01*
X161234166Y-109724503D01*
X161237000Y-109750861D01*
X161237000Y-111054138D01*
X161227500Y-111086491D01*
X161227500Y-112616000D01*
X161207815Y-112683039D01*
X161155011Y-112728794D01*
X161103500Y-112740000D01*
X160851500Y-112740000D01*
X160784461Y-112720315D01*
X160738706Y-112667511D01*
X160727500Y-112616000D01*
X160727500Y-111115000D01*
X160726819Y-111114319D01*
X160693334Y-111052996D01*
X160690500Y-111026638D01*
X160690500Y-109773361D01*
X160710185Y-109706322D01*
X160725000Y-109687937D01*
X160725000Y-106937500D01*
X160612527Y-106937500D01*
X160612512Y-106937501D01*
X160509802Y-106947994D01*
X160343380Y-107003141D01*
X160343375Y-107003143D01*
X160194154Y-107095184D01*
X160070184Y-107219154D01*
X159978143Y-107368375D01*
X159978140Y-107368382D01*
X159967198Y-107401403D01*
X159927424Y-107458847D01*
X159862908Y-107485668D01*
X159794132Y-107473352D01*
X159761812Y-107450077D01*
X157837590Y-105525855D01*
X157837588Y-105525852D01*
X157718717Y-105406981D01*
X157718709Y-105406975D01*
X157630789Y-105356215D01*
X157630788Y-105356215D01*
X157610077Y-105344257D01*
X157581785Y-105327923D01*
X157429057Y-105286999D01*
X157270943Y-105286999D01*
X157263347Y-105286999D01*
X157263331Y-105287000D01*
X156918283Y-105287000D01*
X156851244Y-105267315D01*
X156830602Y-105250681D01*
X156592407Y-105012486D01*
X159887501Y-105012486D01*
X159897994Y-105115197D01*
X159953141Y-105281619D01*
X159953143Y-105281624D01*
X160045184Y-105430845D01*
X160169154Y-105554815D01*
X160318375Y-105646856D01*
X160318380Y-105646858D01*
X160484802Y-105702005D01*
X160484809Y-105702006D01*
X160587519Y-105712499D01*
X160712499Y-105712499D01*
X160712500Y-105712498D01*
X160712500Y-104562500D01*
X159887501Y-104562500D01*
X159887501Y-105012486D01*
X156592407Y-105012486D01*
X156355005Y-104775084D01*
X156321520Y-104713761D01*
X156318686Y-104687403D01*
X156318686Y-104344745D01*
X156318687Y-104344732D01*
X156318687Y-104176631D01*
X156318687Y-104176629D01*
X156277763Y-104023901D01*
X156228315Y-103938255D01*
X156198706Y-103886970D01*
X156086902Y-103775166D01*
X156086901Y-103775165D01*
X156082571Y-103770835D01*
X156082560Y-103770825D01*
X156037590Y-103725855D01*
X156037588Y-103725852D01*
X155924249Y-103612513D01*
X159887500Y-103612513D01*
X159887500Y-104062500D01*
X160712500Y-104062500D01*
X161212500Y-104062500D01*
X162037499Y-104062500D01*
X162037499Y-103612528D01*
X162037498Y-103612513D01*
X162027005Y-103509802D01*
X161971858Y-103343380D01*
X161971856Y-103343375D01*
X161879815Y-103194154D01*
X161755845Y-103070184D01*
X161606624Y-102978143D01*
X161606619Y-102978141D01*
X161440197Y-102922994D01*
X161440190Y-102922993D01*
X161337486Y-102912500D01*
X161212500Y-102912500D01*
X161212500Y-104062500D01*
X160712500Y-104062500D01*
X160712500Y-102912500D01*
X160587527Y-102912500D01*
X160587512Y-102912501D01*
X160484802Y-102922994D01*
X160318380Y-102978141D01*
X160318375Y-102978143D01*
X160169154Y-103070184D01*
X160045184Y-103194154D01*
X159953143Y-103343375D01*
X159953141Y-103343380D01*
X159897994Y-103509802D01*
X159897993Y-103509809D01*
X159887500Y-103612513D01*
X155924249Y-103612513D01*
X155918717Y-103606981D01*
X155918709Y-103606975D01*
X155825818Y-103553345D01*
X155825815Y-103553344D01*
X155785874Y-103530283D01*
X155737659Y-103479715D01*
X155724438Y-103411108D01*
X155748609Y-103348588D01*
X155806318Y-103271500D01*
X155813290Y-103262187D01*
X155861106Y-103226393D01*
X155875000Y-103212500D01*
X155875000Y-103164682D01*
X155874999Y-103164664D01*
X155871068Y-103128102D01*
X155871068Y-103101594D01*
X155875500Y-103060373D01*
X155875499Y-102514628D01*
X155875498Y-102514611D01*
X155871320Y-102475753D01*
X155871320Y-102449247D01*
X155875500Y-102410373D01*
X155875499Y-101864628D01*
X155875498Y-101864611D01*
X155871320Y-101825753D01*
X155871320Y-101799247D01*
X155875500Y-101760373D01*
X155875499Y-101214628D01*
X155871067Y-101173398D01*
X155871068Y-101146893D01*
X155874999Y-101110333D01*
X155875000Y-101110319D01*
X155875000Y-101062500D01*
X155859388Y-101046888D01*
X155845516Y-101042815D01*
X155813289Y-101012812D01*
X155813045Y-101012486D01*
X159887501Y-101012486D01*
X159897994Y-101115197D01*
X159953141Y-101281619D01*
X159953143Y-101281624D01*
X160045184Y-101430845D01*
X160169154Y-101554815D01*
X160318375Y-101646856D01*
X160318380Y-101646858D01*
X160484802Y-101702005D01*
X160484809Y-101702006D01*
X160587519Y-101712499D01*
X160712499Y-101712499D01*
X161212500Y-101712499D01*
X161337472Y-101712499D01*
X161337486Y-101712498D01*
X161440197Y-101702005D01*
X161606619Y-101646858D01*
X161606624Y-101646856D01*
X161755845Y-101554815D01*
X161879815Y-101430845D01*
X161971856Y-101281624D01*
X161971858Y-101281619D01*
X162027005Y-101115197D01*
X162027006Y-101115190D01*
X162037499Y-101012486D01*
X162037500Y-101012473D01*
X162037500Y-100562500D01*
X161212500Y-100562500D01*
X161212500Y-101712499D01*
X160712499Y-101712499D01*
X160712500Y-101712498D01*
X160712500Y-100562500D01*
X159887501Y-100562500D01*
X159887501Y-101012486D01*
X155813045Y-101012486D01*
X155747177Y-100924499D01*
X155732546Y-100904954D01*
X155732544Y-100904953D01*
X155732544Y-100904952D01*
X155640124Y-100835766D01*
X155598253Y-100779832D01*
X155593269Y-100710141D01*
X155626755Y-100648818D01*
X155688078Y-100615334D01*
X155714435Y-100612500D01*
X155875000Y-100612500D01*
X155875000Y-100564679D01*
X155874999Y-100564668D01*
X155870815Y-100525758D01*
X155870815Y-100499242D01*
X155874999Y-100460331D01*
X155875000Y-100460321D01*
X155875000Y-100412500D01*
X155714435Y-100412500D01*
X155647396Y-100392815D01*
X155601641Y-100340011D01*
X155591697Y-100270853D01*
X155620722Y-100207297D01*
X155640124Y-100189234D01*
X155698432Y-100145583D01*
X155732546Y-100120046D01*
X155813289Y-100012188D01*
X155861105Y-99976394D01*
X155875000Y-99962500D01*
X155875000Y-99914682D01*
X155874999Y-99914664D01*
X155871068Y-99878102D01*
X155871068Y-99851593D01*
X155875500Y-99810373D01*
X155875500Y-99612513D01*
X159887500Y-99612513D01*
X159887500Y-100062500D01*
X160712500Y-100062500D01*
X161212500Y-100062500D01*
X162037499Y-100062500D01*
X162037499Y-99612528D01*
X162037498Y-99612513D01*
X162027005Y-99509802D01*
X161971858Y-99343380D01*
X161971856Y-99343375D01*
X161879815Y-99194154D01*
X161755845Y-99070184D01*
X161606624Y-98978143D01*
X161606619Y-98978141D01*
X161440197Y-98922994D01*
X161440190Y-98922993D01*
X161337486Y-98912500D01*
X161212500Y-98912500D01*
X161212500Y-100062500D01*
X160712500Y-100062500D01*
X160712500Y-98912500D01*
X160587527Y-98912500D01*
X160587512Y-98912501D01*
X160484802Y-98922994D01*
X160318380Y-98978141D01*
X160318375Y-98978143D01*
X160169154Y-99070184D01*
X160045184Y-99194154D01*
X159953143Y-99343375D01*
X159953141Y-99343380D01*
X159897994Y-99509802D01*
X159897993Y-99509809D01*
X159887500Y-99612513D01*
X155875500Y-99612513D01*
X155875499Y-99264628D01*
X155875499Y-99264627D01*
X155875498Y-99264611D01*
X155871320Y-99225753D01*
X155871320Y-99199245D01*
X155875500Y-99160373D01*
X155875499Y-98614628D01*
X155869091Y-98555017D01*
X155857898Y-98525008D01*
X155818797Y-98420171D01*
X155818793Y-98420164D01*
X155732547Y-98304955D01*
X155732544Y-98304952D01*
X155617335Y-98218706D01*
X155617328Y-98218702D01*
X155482482Y-98168408D01*
X155482483Y-98168408D01*
X155422883Y-98162001D01*
X155422881Y-98162000D01*
X155422873Y-98162000D01*
X155422865Y-98162000D01*
X153586594Y-98162000D01*
X153519555Y-98142315D01*
X153473800Y-98089511D01*
X153463856Y-98020353D01*
X153492881Y-97956797D01*
X153498885Y-97950348D01*
X154436747Y-97012486D01*
X159887501Y-97012486D01*
X159897994Y-97115197D01*
X159953141Y-97281619D01*
X159953143Y-97281624D01*
X160045184Y-97430845D01*
X160169154Y-97554815D01*
X160318375Y-97646856D01*
X160318380Y-97646858D01*
X160484802Y-97702005D01*
X160484809Y-97702006D01*
X160587519Y-97712499D01*
X160712499Y-97712499D01*
X161212500Y-97712499D01*
X161337472Y-97712499D01*
X161337486Y-97712498D01*
X161440197Y-97702005D01*
X161606619Y-97646858D01*
X161606624Y-97646856D01*
X161755845Y-97554815D01*
X161879815Y-97430845D01*
X161971856Y-97281624D01*
X161971858Y-97281619D01*
X162027005Y-97115197D01*
X162027006Y-97115190D01*
X162037499Y-97012486D01*
X162037500Y-97012473D01*
X162037500Y-96562500D01*
X161212500Y-96562500D01*
X161212500Y-97712499D01*
X160712499Y-97712499D01*
X160712500Y-97712498D01*
X160712500Y-96562500D01*
X159887501Y-96562500D01*
X159887501Y-97012486D01*
X154436747Y-97012486D01*
X155836720Y-95612513D01*
X159887500Y-95612513D01*
X159887500Y-96062500D01*
X160712500Y-96062500D01*
X161212500Y-96062500D01*
X162037499Y-96062500D01*
X162037499Y-95612528D01*
X162037498Y-95612513D01*
X162027005Y-95509802D01*
X161971858Y-95343380D01*
X161971856Y-95343375D01*
X161879815Y-95194154D01*
X161755845Y-95070184D01*
X161606624Y-94978143D01*
X161606619Y-94978141D01*
X161440197Y-94922994D01*
X161440190Y-94922993D01*
X161337486Y-94912500D01*
X161212500Y-94912500D01*
X161212500Y-96062500D01*
X160712500Y-96062500D01*
X160712500Y-94912500D01*
X160587527Y-94912500D01*
X160587512Y-94912501D01*
X160484802Y-94922994D01*
X160318380Y-94978141D01*
X160318375Y-94978143D01*
X160169154Y-95070184D01*
X160045184Y-95194154D01*
X159953143Y-95343375D01*
X159953141Y-95343380D01*
X159897994Y-95509802D01*
X159897993Y-95509809D01*
X159887500Y-95612513D01*
X155836720Y-95612513D01*
X158436747Y-93012486D01*
X159887501Y-93012486D01*
X159897994Y-93115197D01*
X159953141Y-93281619D01*
X159953143Y-93281624D01*
X160045184Y-93430845D01*
X160169154Y-93554815D01*
X160318375Y-93646856D01*
X160318380Y-93646858D01*
X160484802Y-93702005D01*
X160484809Y-93702006D01*
X160587519Y-93712499D01*
X160712499Y-93712499D01*
X161212500Y-93712499D01*
X161337472Y-93712499D01*
X161337486Y-93712498D01*
X161440197Y-93702005D01*
X161606619Y-93646858D01*
X161606624Y-93646856D01*
X161755845Y-93554815D01*
X161879815Y-93430845D01*
X161971856Y-93281624D01*
X161971858Y-93281619D01*
X162027005Y-93115197D01*
X162027006Y-93115190D01*
X162037499Y-93012486D01*
X162037500Y-93012473D01*
X162037500Y-92562500D01*
X161212500Y-92562500D01*
X161212500Y-93712499D01*
X160712499Y-93712499D01*
X160712500Y-93712498D01*
X160712500Y-92562500D01*
X159887501Y-92562500D01*
X159887501Y-93012486D01*
X158436747Y-93012486D01*
X159675821Y-91773412D01*
X159737142Y-91739929D01*
X159806834Y-91744913D01*
X159862767Y-91786785D01*
X159887184Y-91852249D01*
X159887500Y-91861095D01*
X159887500Y-92062500D01*
X160712500Y-92062500D01*
X161212500Y-92062500D01*
X162037499Y-92062500D01*
X162037499Y-91612528D01*
X162037498Y-91612513D01*
X162037495Y-91612483D01*
X162837000Y-91612483D01*
X162837000Y-93012501D01*
X162837001Y-93012518D01*
X162847500Y-93115296D01*
X162847501Y-93115299D01*
X162902685Y-93281831D01*
X162902687Y-93281836D01*
X162922113Y-93313330D01*
X162994788Y-93431156D01*
X163118844Y-93555212D01*
X163268166Y-93647314D01*
X163434703Y-93702499D01*
X163537491Y-93713000D01*
X164287508Y-93712999D01*
X164287516Y-93712998D01*
X164287519Y-93712998D01*
X164343802Y-93707248D01*
X164390297Y-93702499D01*
X164556834Y-93647314D01*
X164706156Y-93555212D01*
X164830212Y-93431156D01*
X164922314Y-93281834D01*
X164977499Y-93115297D01*
X164988000Y-93012509D01*
X164987999Y-91612492D01*
X164977499Y-91509703D01*
X164922314Y-91343166D01*
X164830212Y-91193844D01*
X164706156Y-91069788D01*
X164597719Y-91002903D01*
X164550996Y-90950957D01*
X164539773Y-90881995D01*
X164567617Y-90817912D01*
X164585513Y-90800412D01*
X164586250Y-90799823D01*
X164586262Y-90799816D01*
X164713816Y-90672262D01*
X164809789Y-90519522D01*
X164869368Y-90349255D01*
X164879853Y-90256198D01*
X164889565Y-90170003D01*
X164889565Y-90169996D01*
X164869369Y-89990750D01*
X164869368Y-89990745D01*
X164848188Y-89930215D01*
X164809789Y-89820478D01*
X164713816Y-89667738D01*
X164586262Y-89540184D01*
X164540141Y-89511204D01*
X164433523Y-89444211D01*
X164263254Y-89384631D01*
X164263249Y-89384630D01*
X164084004Y-89364435D01*
X164083996Y-89364435D01*
X163904750Y-89384630D01*
X163904745Y-89384631D01*
X163734476Y-89444211D01*
X163581737Y-89540184D01*
X163454184Y-89667737D01*
X163358211Y-89820476D01*
X163298631Y-89990745D01*
X163298630Y-89990750D01*
X163278435Y-90169996D01*
X163278435Y-90170003D01*
X163298630Y-90349249D01*
X163298631Y-90349254D01*
X163298632Y-90349255D01*
X163305040Y-90367569D01*
X163311999Y-90408522D01*
X163311999Y-90430546D01*
X163312000Y-90430559D01*
X163312000Y-90881442D01*
X163292315Y-90948481D01*
X163253098Y-90986979D01*
X163198035Y-91020943D01*
X163118842Y-91069789D01*
X162994789Y-91193842D01*
X162902687Y-91343163D01*
X162902685Y-91343168D01*
X162894331Y-91368380D01*
X162847501Y-91509703D01*
X162847501Y-91509704D01*
X162847500Y-91509704D01*
X162837000Y-91612483D01*
X162037495Y-91612483D01*
X162027005Y-91509802D01*
X161971858Y-91343380D01*
X161971856Y-91343375D01*
X161879815Y-91194154D01*
X161755845Y-91070184D01*
X161606624Y-90978143D01*
X161606619Y-90978141D01*
X161440197Y-90922994D01*
X161440190Y-90922993D01*
X161337486Y-90912500D01*
X161212500Y-90912500D01*
X161212500Y-92062500D01*
X160712500Y-92062500D01*
X160712500Y-90912500D01*
X160587527Y-90912500D01*
X160587512Y-90912501D01*
X160484801Y-90922994D01*
X160463501Y-90930052D01*
X160393672Y-90932452D01*
X160333631Y-90896719D01*
X160302441Y-90834197D01*
X160300500Y-90812345D01*
X160300500Y-87430411D01*
X160320185Y-87363372D01*
X160336819Y-87342730D01*
X170080230Y-77599319D01*
X170141553Y-77565834D01*
X170167911Y-77563000D01*
X171301652Y-77563000D01*
X171368691Y-77582685D01*
X171407189Y-77621901D01*
X171482288Y-77743656D01*
X171606344Y-77867712D01*
X171755666Y-77959814D01*
X171922203Y-78014999D01*
X172024991Y-78025500D01*
X173375008Y-78025499D01*
X173477797Y-78014999D01*
X173644334Y-77959814D01*
X173793656Y-77867712D01*
X173917712Y-77743656D01*
X174009814Y-77594334D01*
X174064999Y-77427797D01*
X174075500Y-77325009D01*
X174075499Y-76599992D01*
X174064999Y-76497203D01*
X174009814Y-76330666D01*
X173917712Y-76181344D01*
X173793656Y-76057288D01*
X173644334Y-75965186D01*
X173477797Y-75910001D01*
X173477795Y-75910000D01*
X173375010Y-75899500D01*
X172024998Y-75899500D01*
X172024981Y-75899501D01*
X171922203Y-75910000D01*
X171922200Y-75910001D01*
X171755668Y-75965185D01*
X171755663Y-75965187D01*
X171606342Y-76057289D01*
X171482289Y-76181342D01*
X171407191Y-76303097D01*
X171355243Y-76349821D01*
X171301652Y-76362000D01*
X169788754Y-76362000D01*
X169747833Y-76372964D01*
X169747833Y-76372965D01*
X169710565Y-76382951D01*
X169636028Y-76402923D01*
X169636023Y-76402926D01*
X169499104Y-76481975D01*
X169499096Y-76481981D01*
X159219481Y-86761596D01*
X159219479Y-86761599D01*
X159169361Y-86848408D01*
X159169359Y-86848410D01*
X159140425Y-86898523D01*
X159140424Y-86898524D01*
X159140423Y-86898529D01*
X159099499Y-87051257D01*
X159099499Y-87051259D01*
X159099499Y-87219360D01*
X159099500Y-87219373D01*
X159099500Y-90599902D01*
X159079815Y-90666941D01*
X159063181Y-90687583D01*
X157237180Y-92513584D01*
X157175857Y-92547069D01*
X157106165Y-92542085D01*
X157050232Y-92500213D01*
X157025815Y-92434749D01*
X157025499Y-92425903D01*
X157025499Y-91637498D01*
X157025498Y-91637481D01*
X157014999Y-91534703D01*
X157014998Y-91534700D01*
X156998607Y-91485236D01*
X156959814Y-91368166D01*
X156867712Y-91218844D01*
X156743656Y-91094788D01*
X156623937Y-91020945D01*
X156594336Y-91002687D01*
X156594331Y-91002685D01*
X156592862Y-91002198D01*
X156427797Y-90947501D01*
X156427795Y-90947500D01*
X156325010Y-90937000D01*
X155599998Y-90937000D01*
X155599980Y-90937001D01*
X155510030Y-90946190D01*
X155441337Y-90933420D01*
X155409748Y-90910513D01*
X155275090Y-90775855D01*
X155275088Y-90775852D01*
X155156217Y-90656981D01*
X155156216Y-90656980D01*
X155041096Y-90590516D01*
X155019285Y-90577923D01*
X154866557Y-90536999D01*
X154708443Y-90536999D01*
X154700847Y-90536999D01*
X154700831Y-90537000D01*
X148301926Y-90537000D01*
X148301910Y-90536999D01*
X148294314Y-90536999D01*
X148136199Y-90536999D01*
X148059835Y-90557461D01*
X147983470Y-90577923D01*
X147983465Y-90577926D01*
X147846546Y-90656975D01*
X147846538Y-90656981D01*
X147051768Y-91451751D01*
X146990445Y-91485236D01*
X146920753Y-91480252D01*
X146864820Y-91438380D01*
X146846381Y-91403074D01*
X146845528Y-91400500D01*
X146834814Y-91368166D01*
X146742712Y-91218844D01*
X146618656Y-91094788D01*
X146498937Y-91020945D01*
X146469336Y-91002687D01*
X146469331Y-91002685D01*
X146467862Y-91002198D01*
X146302797Y-90947501D01*
X146302795Y-90947500D01*
X146200010Y-90937000D01*
X145474998Y-90937000D01*
X145474980Y-90937001D01*
X145385030Y-90946190D01*
X145316337Y-90933420D01*
X145284748Y-90910513D01*
X141912590Y-87538355D01*
X141912588Y-87538352D01*
X141793717Y-87419481D01*
X141793716Y-87419480D01*
X141706904Y-87369360D01*
X141706904Y-87369359D01*
X141706900Y-87369358D01*
X141656785Y-87340423D01*
X141504057Y-87299499D01*
X141345943Y-87299499D01*
X141338347Y-87299499D01*
X141338331Y-87299500D01*
X106520940Y-87299500D01*
X106480019Y-87310464D01*
X106480019Y-87310465D01*
X106442751Y-87320451D01*
X106368214Y-87340423D01*
X106368209Y-87340426D01*
X106231290Y-87419475D01*
X106231282Y-87419481D01*
X102919481Y-90731282D01*
X102919480Y-90731284D01*
X102875873Y-90806814D01*
X102840423Y-90868215D01*
X102799499Y-91020943D01*
X102799499Y-91020945D01*
X102799499Y-91189046D01*
X102799500Y-91189059D01*
X102799500Y-96679910D01*
X102779815Y-96746949D01*
X102727011Y-96792704D01*
X102688103Y-96803268D01*
X102622205Y-96810000D01*
X102622203Y-96810001D01*
X102455664Y-96865186D01*
X102455662Y-96865187D01*
X102306348Y-96957286D01*
X102306344Y-96957289D01*
X102182289Y-97081344D01*
X102182286Y-97081348D01*
X102090187Y-97230662D01*
X102090186Y-97230664D01*
X102035001Y-97397203D01*
X102035000Y-97397204D01*
X102024500Y-97499984D01*
X102024500Y-98525015D01*
X102035000Y-98627795D01*
X102035001Y-98627797D01*
X102059032Y-98700319D01*
X102090186Y-98794335D01*
X102090187Y-98794337D01*
X102182286Y-98943651D01*
X102182289Y-98943655D01*
X102306344Y-99067710D01*
X102306348Y-99067713D01*
X102455662Y-99159812D01*
X102455664Y-99159813D01*
X102455666Y-99159814D01*
X102622203Y-99214999D01*
X102724992Y-99225500D01*
X102724997Y-99225500D01*
X104075003Y-99225500D01*
X104075008Y-99225500D01*
X104177797Y-99214999D01*
X104344334Y-99159814D01*
X104493655Y-99067711D01*
X104617711Y-98943655D01*
X104709814Y-98794334D01*
X104764999Y-98627797D01*
X104775500Y-98525008D01*
X104775500Y-97499992D01*
X104764999Y-97397203D01*
X104709814Y-97230666D01*
X104688499Y-97196110D01*
X104617713Y-97081348D01*
X104617710Y-97081344D01*
X104493655Y-96957289D01*
X104493651Y-96957286D01*
X104344337Y-96865187D01*
X104344335Y-96865186D01*
X104261065Y-96837593D01*
X104177797Y-96810001D01*
X104177795Y-96810000D01*
X104177794Y-96810000D01*
X104111897Y-96803268D01*
X104047205Y-96776871D01*
X104007054Y-96719690D01*
X104000500Y-96679910D01*
X104000500Y-91400097D01*
X104020185Y-91333058D01*
X104036819Y-91312416D01*
X105987819Y-89361416D01*
X106049142Y-89327931D01*
X106118834Y-89332915D01*
X106174767Y-89374787D01*
X106199184Y-89440251D01*
X106199500Y-89449097D01*
X106199500Y-99983677D01*
X106179815Y-100050716D01*
X106127011Y-100096471D01*
X106089384Y-100106897D01*
X106020750Y-100114630D01*
X105850478Y-100174210D01*
X105697737Y-100270184D01*
X105617241Y-100350681D01*
X105555918Y-100384166D01*
X105529560Y-100387000D01*
X104859443Y-100387000D01*
X104792404Y-100367315D01*
X104746649Y-100314511D01*
X104741737Y-100302004D01*
X104732655Y-100274596D01*
X104709814Y-100205666D01*
X104690412Y-100174211D01*
X104617713Y-100056348D01*
X104617710Y-100056344D01*
X104493655Y-99932289D01*
X104493651Y-99932286D01*
X104344337Y-99840187D01*
X104344335Y-99840186D01*
X104254386Y-99810380D01*
X104177797Y-99785001D01*
X104177795Y-99785000D01*
X104075015Y-99774500D01*
X104075008Y-99774500D01*
X102724992Y-99774500D01*
X102724984Y-99774500D01*
X102622204Y-99785000D01*
X102622203Y-99785001D01*
X102455664Y-99840186D01*
X102455662Y-99840187D01*
X102306348Y-99932286D01*
X102306344Y-99932289D01*
X102182289Y-100056344D01*
X102182286Y-100056348D01*
X102090187Y-100205662D01*
X102090186Y-100205664D01*
X102035001Y-100372203D01*
X102035000Y-100372204D01*
X102024500Y-100474984D01*
X102024500Y-101125684D01*
X102004815Y-101192723D01*
X101952011Y-101238478D01*
X101882853Y-101248422D01*
X101859546Y-101242726D01*
X101779257Y-101214632D01*
X101779250Y-101214630D01*
X101710116Y-101206841D01*
X101645702Y-101179774D01*
X101606147Y-101122179D01*
X101600000Y-101083621D01*
X101600000Y-85976000D01*
X101619685Y-85908961D01*
X101672489Y-85863206D01*
X101724000Y-85852000D01*
X151891998Y-85852000D01*
X151892000Y-85852000D01*
X163576000Y-74676000D01*
X163576000Y-37716000D01*
X163595685Y-37648961D01*
X163648489Y-37603206D01*
X163700000Y-37592000D01*
X201552000Y-37592000D01*
X201619039Y-37611685D01*
G37*
%TD.AperFunction*%
%TA.AperFunction,Conductor*%
G36*
X154668039Y-100282684D02*
G01*
X154713794Y-100335488D01*
X154725000Y-100386999D01*
X154725000Y-100638000D01*
X154705315Y-100705039D01*
X154652511Y-100750794D01*
X154601000Y-100762000D01*
X154399000Y-100762000D01*
X154331961Y-100742315D01*
X154286206Y-100689511D01*
X154275000Y-100638000D01*
X154275000Y-100386999D01*
X154294685Y-100319960D01*
X154347489Y-100274205D01*
X154398997Y-100262999D01*
X154601001Y-100262999D01*
X154668039Y-100282684D01*
G37*
%TD.AperFunction*%
%TA.AperFunction,Conductor*%
G36*
X187868691Y-72007685D02*
G01*
X187907189Y-72046901D01*
X187982288Y-72168656D01*
X188106344Y-72292712D01*
X188255666Y-72384814D01*
X188422203Y-72439999D01*
X188524991Y-72450500D01*
X189650500Y-72450499D01*
X189717539Y-72470184D01*
X189763294Y-72522987D01*
X189774500Y-72574499D01*
X189774500Y-72574902D01*
X189754815Y-72641941D01*
X189738181Y-72662583D01*
X189462583Y-72938181D01*
X189401260Y-72971666D01*
X189374902Y-72974500D01*
X188499998Y-72974500D01*
X188499980Y-72974501D01*
X188397203Y-72985000D01*
X188397200Y-72985001D01*
X188230668Y-73040185D01*
X188230663Y-73040187D01*
X188081342Y-73132289D01*
X187957289Y-73256342D01*
X187865187Y-73405663D01*
X187865186Y-73405666D01*
X187810001Y-73572203D01*
X187810001Y-73572204D01*
X187810000Y-73572204D01*
X187799500Y-73674983D01*
X187799500Y-74425001D01*
X187799501Y-74425019D01*
X187810000Y-74527796D01*
X187810002Y-74527804D01*
X187821167Y-74561495D01*
X187823570Y-74631323D01*
X187787839Y-74691365D01*
X187725319Y-74722558D01*
X187703462Y-74724500D01*
X186825097Y-74724500D01*
X186758058Y-74704815D01*
X186737416Y-74688181D01*
X185306590Y-73257355D01*
X185306588Y-73257352D01*
X185187717Y-73138481D01*
X185187709Y-73138475D01*
X185064143Y-73067135D01*
X185064140Y-73067134D01*
X185064131Y-73067129D01*
X185060560Y-73065067D01*
X185050784Y-73059422D01*
X185018586Y-73050795D01*
X185004443Y-73047005D01*
X184948859Y-73014913D01*
X184884865Y-72950919D01*
X184872318Y-72943499D01*
X184743396Y-72867255D01*
X184743393Y-72867254D01*
X184585573Y-72821402D01*
X184585567Y-72821401D01*
X184548701Y-72818500D01*
X184548694Y-72818500D01*
X182767306Y-72818500D01*
X182767298Y-72818500D01*
X182730420Y-72821402D01*
X182728003Y-72821844D01*
X182726639Y-72821700D01*
X182724114Y-72821899D01*
X182724077Y-72821430D01*
X182658519Y-72814518D01*
X182604025Y-72770789D01*
X182581824Y-72704541D01*
X182598964Y-72636806D01*
X182618048Y-72612186D01*
X183205917Y-72024319D01*
X183267240Y-71990834D01*
X183293598Y-71988000D01*
X187801652Y-71988000D01*
X187868691Y-72007685D01*
G37*
%TD.AperFunction*%
%TA.AperFunction,Conductor*%
G36*
X186388203Y-67375384D02*
G01*
X186394679Y-67381414D01*
X187107048Y-68093784D01*
X187791739Y-68778475D01*
X187825224Y-68839798D01*
X187827416Y-68853553D01*
X187835001Y-68927797D01*
X187835001Y-68927799D01*
X187868137Y-69027795D01*
X187890186Y-69094334D01*
X187982288Y-69243656D01*
X188106344Y-69367712D01*
X188255666Y-69459814D01*
X188422203Y-69514999D01*
X188524991Y-69525500D01*
X189875008Y-69525499D01*
X189977797Y-69514999D01*
X190144334Y-69459814D01*
X190293656Y-69367712D01*
X190417712Y-69243656D01*
X190417715Y-69243650D01*
X190418384Y-69242982D01*
X190479707Y-69209497D01*
X190549399Y-69214481D01*
X190593747Y-69242982D01*
X192958139Y-71607374D01*
X192958149Y-71607385D01*
X192962479Y-71611715D01*
X192962480Y-71611716D01*
X193074284Y-71723520D01*
X193074286Y-71723521D01*
X193126262Y-71753529D01*
X193126261Y-71753529D01*
X193126264Y-71753530D01*
X193211209Y-71802574D01*
X193211210Y-71802575D01*
X193211212Y-71802575D01*
X193211215Y-71802577D01*
X193363943Y-71843501D01*
X193363946Y-71843501D01*
X193529654Y-71843501D01*
X193529670Y-71843500D01*
X193855360Y-71843500D01*
X193922399Y-71863185D01*
X193968154Y-71915989D01*
X193970785Y-71922192D01*
X193994607Y-71982888D01*
X194122041Y-72203612D01*
X194280950Y-72402877D01*
X194467783Y-72576232D01*
X194678366Y-72719805D01*
X194678371Y-72719807D01*
X194678372Y-72719808D01*
X194678373Y-72719809D01*
X194784235Y-72770789D01*
X194907992Y-72830387D01*
X194907993Y-72830387D01*
X194907996Y-72830389D01*
X195151542Y-72905513D01*
X195359292Y-72936826D01*
X195381982Y-72940247D01*
X195445339Y-72969704D01*
X195482712Y-73028738D01*
X195487500Y-73062862D01*
X195487500Y-74093587D01*
X195467815Y-74160626D01*
X195460450Y-74170896D01*
X195458186Y-74173734D01*
X195362210Y-74326478D01*
X195302630Y-74496750D01*
X195292837Y-74583667D01*
X195265770Y-74648081D01*
X195257301Y-74657461D01*
X195226586Y-74688178D01*
X195165264Y-74721665D01*
X195138902Y-74724500D01*
X190696538Y-74724500D01*
X190629499Y-74704815D01*
X190583744Y-74652011D01*
X190573800Y-74582853D01*
X190578832Y-74561496D01*
X190589999Y-74527797D01*
X190600500Y-74425009D01*
X190600499Y-73674992D01*
X190590150Y-73573686D01*
X190602919Y-73504996D01*
X190625824Y-73473409D01*
X190733506Y-73365728D01*
X190733511Y-73365724D01*
X190743714Y-73355520D01*
X190743716Y-73355520D01*
X190855520Y-73243716D01*
X190916277Y-73138481D01*
X190934577Y-73106785D01*
X190975501Y-72954057D01*
X190975501Y-72795943D01*
X190975501Y-72788348D01*
X190975500Y-72788330D01*
X190975500Y-70695943D01*
X190973471Y-70688372D01*
X190970975Y-70679057D01*
X190945644Y-70584519D01*
X190934577Y-70543216D01*
X190911423Y-70503111D01*
X190855524Y-70406290D01*
X190855521Y-70406286D01*
X190855520Y-70406284D01*
X190743716Y-70294480D01*
X190743715Y-70294479D01*
X190739385Y-70290149D01*
X190739374Y-70290139D01*
X190612590Y-70163355D01*
X190612588Y-70163352D01*
X190493717Y-70044481D01*
X190493709Y-70044475D01*
X190372547Y-69974523D01*
X190372544Y-69974522D01*
X190356785Y-69965423D01*
X190204057Y-69924499D01*
X190045943Y-69924499D01*
X190038347Y-69924499D01*
X190038331Y-69924500D01*
X188426925Y-69924500D01*
X188426909Y-69924499D01*
X188419313Y-69924499D01*
X188261199Y-69924499D01*
X188261197Y-69924499D01*
X188253143Y-69925560D01*
X188252971Y-69924255D01*
X188191507Y-69922786D01*
X188141595Y-69892359D01*
X186236590Y-67987355D01*
X186236588Y-67987352D01*
X186219319Y-67970083D01*
X186207574Y-67948574D01*
X186165707Y-67906707D01*
X186157560Y-67904315D01*
X186136918Y-67887681D01*
X186120829Y-67871592D01*
X186109244Y-67858222D01*
X186045679Y-67773311D01*
X186021261Y-67707847D01*
X186036112Y-67639574D01*
X186045673Y-67624696D01*
X186121289Y-67523688D01*
X186169105Y-67487894D01*
X186183000Y-67474000D01*
X186183000Y-67469097D01*
X186202685Y-67402058D01*
X186255489Y-67356303D01*
X186324647Y-67346359D01*
X186388203Y-67375384D01*
G37*
%TD.AperFunction*%
%TA.AperFunction,Conductor*%
G36*
X183351834Y-61906913D02*
G01*
X183407767Y-61948785D01*
X183432184Y-62014249D01*
X183432500Y-62023094D01*
X183432500Y-62121868D01*
X183432501Y-62121872D01*
X183436931Y-62163093D01*
X183436931Y-62189596D01*
X183433000Y-62226165D01*
X183433000Y-62274000D01*
X183448611Y-62289611D01*
X183462484Y-62293685D01*
X183494711Y-62323688D01*
X183575455Y-62431547D01*
X183667876Y-62500734D01*
X183709747Y-62556668D01*
X183714731Y-62626359D01*
X183681245Y-62687682D01*
X183619922Y-62721166D01*
X183593565Y-62724000D01*
X183433000Y-62724000D01*
X183433000Y-62771834D01*
X183437183Y-62810748D01*
X183437183Y-62837252D01*
X183433000Y-62876164D01*
X183433000Y-62924000D01*
X183593565Y-62924000D01*
X183660604Y-62943685D01*
X183706359Y-62996489D01*
X183716303Y-63065647D01*
X183687278Y-63129203D01*
X183667876Y-63147266D01*
X183575455Y-63216452D01*
X183494711Y-63324312D01*
X183446894Y-63360105D01*
X183433000Y-63374000D01*
X183433000Y-63421832D01*
X183436931Y-63458399D01*
X183436931Y-63484905D01*
X183432500Y-63526122D01*
X183432500Y-64071869D01*
X183432501Y-64071878D01*
X183436679Y-64110745D01*
X183436679Y-64137250D01*
X183432500Y-64176122D01*
X183432500Y-64721869D01*
X183432501Y-64721878D01*
X183436679Y-64760745D01*
X183436679Y-64787250D01*
X183432500Y-64826122D01*
X183432500Y-65371869D01*
X183432501Y-65371880D01*
X183436931Y-65413093D01*
X183436931Y-65439596D01*
X183433000Y-65476165D01*
X183433000Y-65524000D01*
X183448611Y-65539611D01*
X183462484Y-65543685D01*
X183494711Y-65573689D01*
X183514549Y-65600189D01*
X183538967Y-65665653D01*
X183524116Y-65733926D01*
X183474711Y-65783332D01*
X183415283Y-65798500D01*
X182148783Y-65798500D01*
X182081744Y-65778815D01*
X182061102Y-65762181D01*
X180260102Y-63961181D01*
X180226617Y-63899858D01*
X180231601Y-63830166D01*
X180273473Y-63774233D01*
X180338937Y-63749816D01*
X180347783Y-63749500D01*
X181071331Y-63749500D01*
X181071347Y-63749501D01*
X181078943Y-63749501D01*
X181237054Y-63749501D01*
X181237057Y-63749501D01*
X181389785Y-63708577D01*
X181445612Y-63676345D01*
X181526716Y-63629520D01*
X181638520Y-63517716D01*
X181638520Y-63517714D01*
X181648724Y-63507511D01*
X181648728Y-63507506D01*
X183220821Y-61935412D01*
X183282142Y-61901929D01*
X183351834Y-61906913D01*
G37*
%TD.AperFunction*%
%TA.AperFunction,Conductor*%
G36*
X184976039Y-62594184D02*
G01*
X185021794Y-62646988D01*
X185033000Y-62698499D01*
X185033000Y-62949500D01*
X185013315Y-63016539D01*
X184960511Y-63062294D01*
X184909000Y-63073500D01*
X184707000Y-63073500D01*
X184639961Y-63053815D01*
X184594206Y-63001011D01*
X184583000Y-62949500D01*
X184583000Y-62698499D01*
X184602685Y-62631460D01*
X184655489Y-62585705D01*
X184706997Y-62574499D01*
X184909001Y-62574499D01*
X184976039Y-62594184D01*
G37*
%TD.AperFunction*%
%TD*%
M02*
