M48
; DRILL file {KiCad 8.0.4-8.0.4-0~ubuntu22.04.1} date 2024-08-29T16:00:55-0300
; FORMAT={-:-/ absolute / inch / decimal}
; #@! TF.CreationDate,2024-08-29T16:00:55-03:00
; #@! TF.GenerationSoftware,Kicad,Pcbnew,8.0.4-8.0.4-0~ubuntu22.04.1
; #@! TF.FileFunction,Plated,1,2,PTH
FMAT,2
INCH
; #@! TA.AperFunction,Plated,PTH,ViaDrill
T1C0.0118
; #@! TA.AperFunction,Plated,PTH,ComponentDrill
T2C0.0197
; #@! TA.AperFunction,Plated,PTH,ComponentDrill
T3C0.0374
; #@! TA.AperFunction,Plated,PTH,ComponentDrill
T4C0.0394
; #@! TA.AperFunction,Plated,PTH,ComponentDrill
T5C0.0630
; #@! TA.AperFunction,Plated,PTH,ComponentDrill
T6C0.1181
%
G90
G05
T1
X4.0Y-4.0157
X4.1811Y-3.9724
X5.9449Y-4.0453
X5.9843Y-4.0157
X6.39Y-4.17
X6.46Y-3.55
X6.54Y-4.085
X6.555Y-4.055
X6.75Y-4.125
X6.8Y-4.025
X6.92Y-3.69
X6.9213Y-4.1417
X6.95Y-4.05
X6.99Y-3.7918
X7.0315Y-4.0236
X7.125Y-2.76
X7.17Y-2.76
X7.25Y-4.225
X7.72Y-2.94
T2
X3.9783Y-1.1142
X3.9783Y-4.689
X4.0043Y-1.0515
X4.0043Y-1.1768
X4.0043Y-4.6263
X4.0043Y-4.7516
X4.0669Y-1.0256
X4.0669Y-1.2028
X4.0669Y-4.6004
X4.0669Y-4.7776
X4.1296Y-1.0515
X4.1296Y-1.1768
X4.1296Y-4.6263
X4.1296Y-4.7516
X4.1555Y-1.1142
X4.1555Y-4.689
X7.7185Y-1.1142
X7.7185Y-4.689
X7.7444Y-1.0515
X7.7444Y-1.1768
X7.7444Y-4.6263
X7.7444Y-4.7516
X7.8071Y-1.0256
X7.8071Y-1.2028
X7.8071Y-4.6004
X7.8071Y-4.7776
X7.8697Y-1.0515
X7.8697Y-1.1768
X7.8697Y-4.6263
X7.8697Y-4.7516
X7.8957Y-1.1142
X7.8957Y-4.689
T3
X7.8425Y-1.626
X7.8425Y-1.7244
X7.8425Y-1.8228
X7.8425Y-1.9213
T4
X5.4724Y-3.9638
X5.4724Y-4.0638
X5.4724Y-4.1638
X5.4724Y-4.2638
X7.47Y-3.575
X7.47Y-3.675
X7.47Y-3.775
X7.47Y-3.875
T5
X7.6981Y-2.8048
X7.6981Y-3.3352
X7.8319Y-2.8048
X7.8319Y-3.3352
T6
X4.0669Y-1.1142
X4.0669Y-4.689
X7.8071Y-1.1142
X7.8071Y-4.689
M30
