%TF.GenerationSoftware,KiCad,Pcbnew,8.0.4-8.0.4-0~ubuntu22.04.1*%
%TF.CreationDate,2024-08-29T16:01:05-03:00*%
%TF.ProjectId,communication_board,636f6d6d-756e-4696-9361-74696f6e5f62,rev?*%
%TF.SameCoordinates,Original*%
%TF.FileFunction,Paste,Top*%
%TF.FilePolarity,Positive*%
%FSLAX46Y46*%
G04 Gerber Fmt 4.6, Leading zero omitted, Abs format (unit mm)*
G04 Created by KiCad (PCBNEW 8.0.4-8.0.4-0~ubuntu22.04.1) date 2024-08-29 16:01:05*
%MOMM*%
%LPD*%
G01*
G04 APERTURE LIST*
G04 Aperture macros list*
%AMRoundRect*
0 Rectangle with rounded corners*
0 $1 Rounding radius*
0 $2 $3 $4 $5 $6 $7 $8 $9 X,Y pos of 4 corners*
0 Add a 4 corners polygon primitive as box body*
4,1,4,$2,$3,$4,$5,$6,$7,$8,$9,$2,$3,0*
0 Add four circle primitives for the rounded corners*
1,1,$1+$1,$2,$3*
1,1,$1+$1,$4,$5*
1,1,$1+$1,$6,$7*
1,1,$1+$1,$8,$9*
0 Add four rect primitives between the rounded corners*
20,1,$1+$1,$2,$3,$4,$5,0*
20,1,$1+$1,$4,$5,$6,$7,0*
20,1,$1+$1,$6,$7,$8,$9,0*
20,1,$1+$1,$8,$9,$2,$3,0*%
G04 Aperture macros list end*
%ADD10RoundRect,0.250000X0.650000X-0.325000X0.650000X0.325000X-0.650000X0.325000X-0.650000X-0.325000X0*%
%ADD11R,1.200000X0.400000*%
%ADD12RoundRect,0.250000X-0.312500X-0.625000X0.312500X-0.625000X0.312500X0.625000X-0.312500X0.625000X0*%
%ADD13RoundRect,0.250000X0.325000X0.650000X-0.325000X0.650000X-0.325000X-0.650000X0.325000X-0.650000X0*%
%ADD14RoundRect,0.150000X-0.825000X-0.150000X0.825000X-0.150000X0.825000X0.150000X-0.825000X0.150000X0*%
%ADD15RoundRect,0.250000X0.312500X0.625000X-0.312500X0.625000X-0.312500X-0.625000X0.312500X-0.625000X0*%
%ADD16R,5.500000X2.000000*%
%ADD17RoundRect,0.250001X-0.624999X0.462499X-0.624999X-0.462499X0.624999X-0.462499X0.624999X0.462499X0*%
%ADD18R,1.524000X1.524000*%
%ADD19RoundRect,0.250001X0.624999X-0.462499X0.624999X0.462499X-0.624999X0.462499X-0.624999X-0.462499X0*%
%ADD20RoundRect,0.250000X-0.325000X-0.650000X0.325000X-0.650000X0.325000X0.650000X-0.325000X0.650000X0*%
%ADD21RoundRect,0.250000X0.625000X-0.312500X0.625000X0.312500X-0.625000X0.312500X-0.625000X-0.312500X0*%
%ADD22R,1.750000X0.450000*%
%ADD23RoundRect,0.250000X-0.625000X0.312500X-0.625000X-0.312500X0.625000X-0.312500X0.625000X0.312500X0*%
G04 APERTURE END LIST*
D10*
%TO.C,C10*%
X189200000Y-77000000D03*
X189200000Y-74050000D03*
%TD*%
D11*
%TO.C,U1*%
X168975000Y-98985000D03*
X168975000Y-99620000D03*
X168975000Y-100255000D03*
X168975000Y-100890000D03*
X168975000Y-101525000D03*
X168975000Y-102160000D03*
X168975000Y-102795000D03*
X168975000Y-103430000D03*
X168975000Y-104065000D03*
X168975000Y-104700000D03*
X168975000Y-105335000D03*
X168975000Y-105970000D03*
X168975000Y-106605000D03*
X168975000Y-107240000D03*
X174175000Y-107240000D03*
X174175000Y-106605000D03*
X174175000Y-105970000D03*
X174175000Y-105335000D03*
X174175000Y-104700000D03*
X174175000Y-104065000D03*
X174175000Y-103430000D03*
X174175000Y-102795000D03*
X174175000Y-102160000D03*
X174175000Y-101525000D03*
X174175000Y-100890000D03*
X174175000Y-100255000D03*
X174175000Y-99620000D03*
X174175000Y-98985000D03*
%TD*%
D12*
%TO.C,R4*%
X160977500Y-112490000D03*
X163902500Y-112490000D03*
%TD*%
D13*
%TO.C,C1*%
X163912500Y-96312500D03*
X160962500Y-96312500D03*
%TD*%
D14*
%TO.C,U4*%
X178708000Y-73619000D03*
X178708000Y-74889000D03*
X178708000Y-76159000D03*
X178708000Y-77429000D03*
X183658000Y-77429000D03*
X183658000Y-76159000D03*
X183658000Y-74889000D03*
X183658000Y-73619000D03*
%TD*%
D15*
%TO.C,R1*%
X163900000Y-108312500D03*
X160975000Y-108312500D03*
%TD*%
D12*
%TO.C,R5*%
X178612500Y-96312500D03*
X181537500Y-96312500D03*
%TD*%
D15*
%TO.C,R2*%
X173162500Y-112512500D03*
X170237500Y-112512500D03*
%TD*%
D16*
%TO.C,Y1*%
X167250000Y-86000000D03*
X176750000Y-86000000D03*
%TD*%
D13*
%TO.C,C3*%
X163912500Y-104312500D03*
X160962500Y-104312500D03*
%TD*%
D17*
%TO.C,D7*%
X198860000Y-55862500D03*
X198860000Y-58837500D03*
%TD*%
D15*
%TO.C,R6*%
X181537500Y-92312500D03*
X178612500Y-92312500D03*
%TD*%
D18*
%TO.C,REF\u002A\u002A*%
X128572000Y-34632000D03*
X130572000Y-34632000D03*
X132572000Y-34632000D03*
X134572000Y-34632000D03*
X128572000Y-36632000D03*
X130572000Y-36632000D03*
X132572000Y-36632000D03*
X134572000Y-36632000D03*
%TD*%
D19*
%TO.C,HUB1*%
X190246000Y-104484500D03*
X190246000Y-101509500D03*
%TD*%
D20*
%TO.C,C8*%
X178600000Y-100312500D03*
X181550000Y-100312500D03*
%TD*%
D12*
%TO.C,R9*%
X145837500Y-92312500D03*
X148762500Y-92312500D03*
%TD*%
D15*
%TO.C,R3*%
X181562500Y-112512500D03*
X178637500Y-112512500D03*
%TD*%
D21*
%TO.C,R14*%
X172700000Y-60862500D03*
X172700000Y-57937500D03*
%TD*%
D13*
%TO.C,C5*%
X163912500Y-92312500D03*
X160962500Y-92312500D03*
%TD*%
D21*
%TO.C,R13*%
X172600000Y-68562500D03*
X172600000Y-65637500D03*
%TD*%
D19*
%TO.C,D4*%
X103400000Y-108987500D03*
X103400000Y-106012500D03*
%TD*%
D22*
%TO.C,U3*%
X177608000Y-61199000D03*
X177608000Y-61849000D03*
X177608000Y-62499000D03*
X177608000Y-63149000D03*
X177608000Y-63799000D03*
X177608000Y-64449000D03*
X177608000Y-65099000D03*
X177608000Y-65749000D03*
X177608000Y-66399000D03*
X177608000Y-67049000D03*
X177608000Y-67699000D03*
X177608000Y-68349000D03*
X177608000Y-68999000D03*
X177608000Y-69649000D03*
X184808000Y-69649000D03*
X184808000Y-68999000D03*
X184808000Y-68349000D03*
X184808000Y-67699000D03*
X184808000Y-67049000D03*
X184808000Y-66399000D03*
X184808000Y-65749000D03*
X184808000Y-65099000D03*
X184808000Y-64449000D03*
X184808000Y-63799000D03*
X184808000Y-63149000D03*
X184808000Y-62499000D03*
X184808000Y-61849000D03*
X184808000Y-61199000D03*
%TD*%
D19*
%TO.C,MTRS1*%
X190246000Y-109818500D03*
X190246000Y-106843500D03*
%TD*%
D13*
%TO.C,C2*%
X163912500Y-100312500D03*
X160962500Y-100312500D03*
%TD*%
D19*
%TO.C,D5*%
X103400000Y-100987500D03*
X103400000Y-98012500D03*
%TD*%
D20*
%TO.C,C9*%
X149425000Y-112512500D03*
X152375000Y-112512500D03*
%TD*%
D22*
%TO.C,U2*%
X147300000Y-98887500D03*
X147300000Y-99537500D03*
X147300000Y-100187500D03*
X147300000Y-100837500D03*
X147300000Y-101487500D03*
X147300000Y-102137500D03*
X147300000Y-102787500D03*
X147300000Y-103437500D03*
X147300000Y-104087500D03*
X147300000Y-104737500D03*
X147300000Y-105387500D03*
X147300000Y-106037500D03*
X147300000Y-106687500D03*
X147300000Y-107337500D03*
X154500000Y-107337500D03*
X154500000Y-106687500D03*
X154500000Y-106037500D03*
X154500000Y-105387500D03*
X154500000Y-104737500D03*
X154500000Y-104087500D03*
X154500000Y-103437500D03*
X154500000Y-102787500D03*
X154500000Y-102137500D03*
X154500000Y-101487500D03*
X154500000Y-100837500D03*
X154500000Y-100187500D03*
X154500000Y-99537500D03*
X154500000Y-98887500D03*
%TD*%
D15*
%TO.C,R8*%
X155962500Y-92312500D03*
X153037500Y-92312500D03*
%TD*%
D21*
%TO.C,R12*%
X172700000Y-76962500D03*
X172700000Y-74037500D03*
%TD*%
D19*
%TO.C,D6*%
X198860000Y-64607500D03*
X198860000Y-61632500D03*
%TD*%
D13*
%TO.C,C6*%
X172975000Y-92312500D03*
X170025000Y-92312500D03*
%TD*%
D21*
%TO.C,R11*%
X189200000Y-66062500D03*
X189200000Y-63137500D03*
%TD*%
D20*
%TO.C,C4*%
X178600000Y-108312500D03*
X181550000Y-108312500D03*
%TD*%
D23*
%TO.C,R7*%
X189200000Y-68462500D03*
X189200000Y-71387500D03*
%TD*%
%TO.C,R10*%
X189200000Y-57937500D03*
X189200000Y-60862500D03*
%TD*%
D19*
%TO.C,IMU1*%
X190246000Y-115152500D03*
X190246000Y-112177500D03*
%TD*%
D20*
%TO.C,C7*%
X178600000Y-104312500D03*
X181550000Y-104312500D03*
%TD*%
M02*
