%TF.GenerationSoftware,KiCad,Pcbnew,8.0.4-8.0.4-0~ubuntu22.04.1*%
%TF.CreationDate,2024-08-29T14:54:41-03:00*%
%TF.ProjectId,communication_board,636f6d6d-756e-4696-9361-74696f6e5f62,rev?*%
%TF.SameCoordinates,Original*%
%TF.FileFunction,Soldermask,Bot*%
%TF.FilePolarity,Negative*%
%FSLAX46Y46*%
G04 Gerber Fmt 4.6, Leading zero omitted, Abs format (unit mm)*
G04 Created by KiCad (PCBNEW 8.0.4-8.0.4-0~ubuntu22.04.1) date 2024-08-29 14:54:41*
%MOMM*%
%LPD*%
G01*
G04 APERTURE LIST*
G04 Aperture macros list*
%AMRoundRect*
0 Rectangle with rounded corners*
0 $1 Rounding radius*
0 $2 $3 $4 $5 $6 $7 $8 $9 X,Y pos of 4 corners*
0 Add a 4 corners polygon primitive as box body*
4,1,4,$2,$3,$4,$5,$6,$7,$8,$9,$2,$3,0*
0 Add four circle primitives for the rounded corners*
1,1,$1+$1,$2,$3*
1,1,$1+$1,$4,$5*
1,1,$1+$1,$6,$7*
1,1,$1+$1,$8,$9*
0 Add four rect primitives between the rounded corners*
20,1,$1+$1,$2,$3,$4,$5,0*
20,1,$1+$1,$4,$5,$6,$7,0*
20,1,$1+$1,$6,$7,$8,$9,0*
20,1,$1+$1,$8,$9,$2,$3,0*%
G04 Aperture macros list end*
%ADD10C,2.100000*%
%ADD11C,0.800000*%
%ADD12C,6.000000*%
%ADD13R,1.700000X1.700000*%
%ADD14O,1.700000X1.700000*%
%ADD15RoundRect,0.250000X-0.725000X0.600000X-0.725000X-0.600000X0.725000X-0.600000X0.725000X0.600000X0*%
%ADD16O,1.950000X1.700000*%
%ADD17C,2.400000*%
G04 APERTURE END LIST*
D10*
%TO.C,*%
X132800000Y-109500000D03*
%TD*%
%TO.C,*%
X132800000Y-93200000D03*
%TD*%
D11*
%TO.C,REF\u002A\u002A*%
X196050000Y-28300000D03*
X196709010Y-26709010D03*
X196709010Y-29890990D03*
X198300000Y-26050000D03*
D12*
X198300000Y-28300000D03*
D11*
X198300000Y-30550000D03*
X199890990Y-26709010D03*
X199890990Y-29890990D03*
X200550000Y-28300000D03*
%TD*%
%TO.C,REF\u002A\u002A*%
X196050000Y-119100000D03*
X196709010Y-117509010D03*
X196709010Y-120690990D03*
X198300000Y-116850000D03*
D12*
X198300000Y-119100000D03*
D11*
X198300000Y-121350000D03*
X199890990Y-117509010D03*
X199890990Y-120690990D03*
X200550000Y-119100000D03*
%TD*%
D13*
%TO.C,J2*%
X139000000Y-108300000D03*
D14*
X139000000Y-105760000D03*
X139000000Y-103220000D03*
X139000000Y-100680000D03*
%TD*%
D11*
%TO.C,REF\u002A\u002A*%
X101050000Y-119100000D03*
X101709010Y-117509010D03*
X101709010Y-120690990D03*
X103300000Y-116850000D03*
D12*
X103300000Y-119100000D03*
D11*
X103300000Y-121350000D03*
X104890990Y-117509010D03*
X104890990Y-120690990D03*
X105550000Y-119100000D03*
%TD*%
D13*
%TO.C,J1*%
X189738000Y-90805000D03*
D14*
X189738000Y-93345000D03*
X189738000Y-95885000D03*
X189738000Y-98425000D03*
%TD*%
D15*
%TO.C,J4*%
X199200000Y-41300000D03*
D16*
X199200000Y-43800000D03*
X199200000Y-46300000D03*
X199200000Y-48800000D03*
%TD*%
D11*
%TO.C,REF\u002A\u002A*%
X101050000Y-28300000D03*
X101709010Y-26709010D03*
X101709010Y-29890990D03*
X103300000Y-26050000D03*
D12*
X103300000Y-28300000D03*
D11*
X103300000Y-30550000D03*
X104890990Y-26709010D03*
X104890990Y-29890990D03*
X105550000Y-28300000D03*
%TD*%
D17*
%TO.C,J3*%
X195531000Y-84713000D03*
X195531000Y-71243000D03*
X198931000Y-84713000D03*
X198931000Y-71243000D03*
%TD*%
D10*
%TO.C,*%
X111200000Y-109500000D03*
%TD*%
%TO.C,*%
X111200000Y-93200000D03*
%TD*%
M02*
