%TF.GenerationSoftware,KiCad,Pcbnew,8.0.4-8.0.4-0~ubuntu22.04.1*%
%TF.CreationDate,2024-08-29T14:54:41-03:00*%
%TF.ProjectId,communication_board,636f6d6d-756e-4696-9361-74696f6e5f62,rev?*%
%TF.SameCoordinates,Original*%
%TF.FileFunction,Legend,Top*%
%TF.FilePolarity,Positive*%
%FSLAX46Y46*%
G04 Gerber Fmt 4.6, Leading zero omitted, Abs format (unit mm)*
G04 Created by KiCad (PCBNEW 8.0.4-8.0.4-0~ubuntu22.04.1) date 2024-08-29 14:54:41*
%MOMM*%
%LPD*%
G01*
G04 APERTURE LIST*
%ADD10C,0.200000*%
%ADD11C,0.175000*%
%ADD12C,0.145000*%
%ADD13C,0.100000*%
%ADD14C,0.150000*%
%ADD15C,0.254000*%
%ADD16C,0.120000*%
%ADD17C,0.000000*%
G04 APERTURE END LIST*
D10*
X107750000Y-90500000D02*
X136250000Y-90500000D01*
X136250000Y-119000000D01*
X107750000Y-119000000D01*
X107750000Y-90500000D01*
D11*
X101880757Y-99406297D02*
X101452185Y-99706297D01*
X101880757Y-99920583D02*
X100980757Y-99920583D01*
X100980757Y-99920583D02*
X100980757Y-99577726D01*
X100980757Y-99577726D02*
X101023614Y-99492011D01*
X101023614Y-99492011D02*
X101066471Y-99449154D01*
X101066471Y-99449154D02*
X101152185Y-99406297D01*
X101152185Y-99406297D02*
X101280757Y-99406297D01*
X101280757Y-99406297D02*
X101366471Y-99449154D01*
X101366471Y-99449154D02*
X101409328Y-99492011D01*
X101409328Y-99492011D02*
X101452185Y-99577726D01*
X101452185Y-99577726D02*
X101452185Y-99920583D01*
X100980757Y-99106297D02*
X101880757Y-98506297D01*
X100980757Y-98506297D02*
X101880757Y-99106297D01*
D12*
X187032650Y-98990082D02*
X186994555Y-99066272D01*
X186994555Y-99066272D02*
X186994555Y-99180558D01*
X186994555Y-99180558D02*
X187032650Y-99294844D01*
X187032650Y-99294844D02*
X187108840Y-99371034D01*
X187108840Y-99371034D02*
X187185031Y-99409129D01*
X187185031Y-99409129D02*
X187337412Y-99447225D01*
X187337412Y-99447225D02*
X187451698Y-99447225D01*
X187451698Y-99447225D02*
X187604079Y-99409129D01*
X187604079Y-99409129D02*
X187680269Y-99371034D01*
X187680269Y-99371034D02*
X187756460Y-99294844D01*
X187756460Y-99294844D02*
X187794555Y-99180558D01*
X187794555Y-99180558D02*
X187794555Y-99104367D01*
X187794555Y-99104367D02*
X187756460Y-98990082D01*
X187756460Y-98990082D02*
X187718364Y-98951986D01*
X187718364Y-98951986D02*
X187451698Y-98951986D01*
X187451698Y-98951986D02*
X187451698Y-99104367D01*
X187794555Y-98609129D02*
X186994555Y-98609129D01*
X186994555Y-98609129D02*
X187794555Y-98151986D01*
X187794555Y-98151986D02*
X186994555Y-98151986D01*
X187794555Y-97771034D02*
X186994555Y-97771034D01*
X186994555Y-97771034D02*
X186994555Y-97580558D01*
X186994555Y-97580558D02*
X187032650Y-97466272D01*
X187032650Y-97466272D02*
X187108840Y-97390082D01*
X187108840Y-97390082D02*
X187185031Y-97351987D01*
X187185031Y-97351987D02*
X187337412Y-97313891D01*
X187337412Y-97313891D02*
X187451698Y-97313891D01*
X187451698Y-97313891D02*
X187604079Y-97351987D01*
X187604079Y-97351987D02*
X187680269Y-97390082D01*
X187680269Y-97390082D02*
X187756460Y-97466272D01*
X187756460Y-97466272D02*
X187794555Y-97580558D01*
X187794555Y-97580558D02*
X187794555Y-97771034D01*
D11*
X192793757Y-109525583D02*
X191893757Y-109525583D01*
X191893757Y-109525583D02*
X192536614Y-109225583D01*
X192536614Y-109225583D02*
X191893757Y-108925583D01*
X191893757Y-108925583D02*
X192793757Y-108925583D01*
X191893757Y-108625583D02*
X191893757Y-108111298D01*
X192793757Y-108368440D02*
X191893757Y-108368440D01*
X192793757Y-107297012D02*
X192365185Y-107597012D01*
X192793757Y-107811298D02*
X191893757Y-107811298D01*
X191893757Y-107811298D02*
X191893757Y-107468441D01*
X191893757Y-107468441D02*
X191936614Y-107382726D01*
X191936614Y-107382726D02*
X191979471Y-107339869D01*
X191979471Y-107339869D02*
X192065185Y-107297012D01*
X192065185Y-107297012D02*
X192193757Y-107297012D01*
X192193757Y-107297012D02*
X192279471Y-107339869D01*
X192279471Y-107339869D02*
X192322328Y-107382726D01*
X192322328Y-107382726D02*
X192365185Y-107468441D01*
X192365185Y-107468441D02*
X192365185Y-107811298D01*
X192793757Y-114351583D02*
X191893757Y-114351583D01*
X192793757Y-113923012D02*
X191893757Y-113923012D01*
X191893757Y-113923012D02*
X192536614Y-113623012D01*
X192536614Y-113623012D02*
X191893757Y-113323012D01*
X191893757Y-113323012D02*
X192793757Y-113323012D01*
X191893757Y-112894441D02*
X192622328Y-112894441D01*
X192622328Y-112894441D02*
X192708042Y-112851584D01*
X192708042Y-112851584D02*
X192750900Y-112808727D01*
X192750900Y-112808727D02*
X192793757Y-112723012D01*
X192793757Y-112723012D02*
X192793757Y-112551584D01*
X192793757Y-112551584D02*
X192750900Y-112465869D01*
X192750900Y-112465869D02*
X192708042Y-112423012D01*
X192708042Y-112423012D02*
X192622328Y-112380155D01*
X192622328Y-112380155D02*
X191893757Y-112380155D01*
X200580757Y-64199154D02*
X200580757Y-63684869D01*
X201480757Y-63942011D02*
X200580757Y-63942011D01*
X200580757Y-63470583D02*
X201480757Y-62870583D01*
X200580757Y-62870583D02*
X201480757Y-63470583D01*
D12*
X186994555Y-91776415D02*
X187794555Y-91509748D01*
X187794555Y-91509748D02*
X186994555Y-91243082D01*
X187718364Y-90519272D02*
X187756460Y-90557368D01*
X187756460Y-90557368D02*
X187794555Y-90671653D01*
X187794555Y-90671653D02*
X187794555Y-90747844D01*
X187794555Y-90747844D02*
X187756460Y-90862130D01*
X187756460Y-90862130D02*
X187680269Y-90938320D01*
X187680269Y-90938320D02*
X187604079Y-90976415D01*
X187604079Y-90976415D02*
X187451698Y-91014511D01*
X187451698Y-91014511D02*
X187337412Y-91014511D01*
X187337412Y-91014511D02*
X187185031Y-90976415D01*
X187185031Y-90976415D02*
X187108840Y-90938320D01*
X187108840Y-90938320D02*
X187032650Y-90862130D01*
X187032650Y-90862130D02*
X186994555Y-90747844D01*
X186994555Y-90747844D02*
X186994555Y-90671653D01*
X186994555Y-90671653D02*
X187032650Y-90557368D01*
X187032650Y-90557368D02*
X187070745Y-90519272D01*
X187718364Y-89719272D02*
X187756460Y-89757368D01*
X187756460Y-89757368D02*
X187794555Y-89871653D01*
X187794555Y-89871653D02*
X187794555Y-89947844D01*
X187794555Y-89947844D02*
X187756460Y-90062130D01*
X187756460Y-90062130D02*
X187680269Y-90138320D01*
X187680269Y-90138320D02*
X187604079Y-90176415D01*
X187604079Y-90176415D02*
X187451698Y-90214511D01*
X187451698Y-90214511D02*
X187337412Y-90214511D01*
X187337412Y-90214511D02*
X187185031Y-90176415D01*
X187185031Y-90176415D02*
X187108840Y-90138320D01*
X187108840Y-90138320D02*
X187032650Y-90062130D01*
X187032650Y-90062130D02*
X186994555Y-89947844D01*
X186994555Y-89947844D02*
X186994555Y-89871653D01*
X186994555Y-89871653D02*
X187032650Y-89757368D01*
X187032650Y-89757368D02*
X187070745Y-89719272D01*
D11*
X192793757Y-104191583D02*
X191893757Y-104191583D01*
X192322328Y-104191583D02*
X192322328Y-103677297D01*
X192793757Y-103677297D02*
X191893757Y-103677297D01*
X191893757Y-103248726D02*
X192622328Y-103248726D01*
X192622328Y-103248726D02*
X192708042Y-103205869D01*
X192708042Y-103205869D02*
X192750900Y-103163012D01*
X192750900Y-103163012D02*
X192793757Y-103077297D01*
X192793757Y-103077297D02*
X192793757Y-102905869D01*
X192793757Y-102905869D02*
X192750900Y-102820154D01*
X192750900Y-102820154D02*
X192708042Y-102777297D01*
X192708042Y-102777297D02*
X192622328Y-102734440D01*
X192622328Y-102734440D02*
X191893757Y-102734440D01*
X192322328Y-102005869D02*
X192365185Y-101877297D01*
X192365185Y-101877297D02*
X192408042Y-101834440D01*
X192408042Y-101834440D02*
X192493757Y-101791583D01*
X192493757Y-101791583D02*
X192622328Y-101791583D01*
X192622328Y-101791583D02*
X192708042Y-101834440D01*
X192708042Y-101834440D02*
X192750900Y-101877297D01*
X192750900Y-101877297D02*
X192793757Y-101963012D01*
X192793757Y-101963012D02*
X192793757Y-102305869D01*
X192793757Y-102305869D02*
X191893757Y-102305869D01*
X191893757Y-102305869D02*
X191893757Y-102005869D01*
X191893757Y-102005869D02*
X191936614Y-101920155D01*
X191936614Y-101920155D02*
X191979471Y-101877297D01*
X191979471Y-101877297D02*
X192065185Y-101834440D01*
X192065185Y-101834440D02*
X192150900Y-101834440D01*
X192150900Y-101834440D02*
X192236614Y-101877297D01*
X192236614Y-101877297D02*
X192279471Y-101920155D01*
X192279471Y-101920155D02*
X192322328Y-102005869D01*
X192322328Y-102005869D02*
X192322328Y-102305869D01*
X100980757Y-108049154D02*
X100980757Y-107534869D01*
X101880757Y-107792011D02*
X100980757Y-107792011D01*
X100980757Y-107320583D02*
X101880757Y-106720583D01*
X100980757Y-106720583D02*
X101880757Y-107320583D01*
D12*
X187794555Y-96361129D02*
X186994555Y-96361129D01*
X186994555Y-96361129D02*
X186994555Y-96170653D01*
X186994555Y-96170653D02*
X187032650Y-96056367D01*
X187032650Y-96056367D02*
X187108840Y-95980177D01*
X187108840Y-95980177D02*
X187185031Y-95942082D01*
X187185031Y-95942082D02*
X187337412Y-95903986D01*
X187337412Y-95903986D02*
X187451698Y-95903986D01*
X187451698Y-95903986D02*
X187604079Y-95942082D01*
X187604079Y-95942082D02*
X187680269Y-95980177D01*
X187680269Y-95980177D02*
X187756460Y-96056367D01*
X187756460Y-96056367D02*
X187794555Y-96170653D01*
X187794555Y-96170653D02*
X187794555Y-96361129D01*
X187489793Y-95561129D02*
X187489793Y-94951606D01*
X187794555Y-95256367D02*
X187185031Y-95256367D01*
X187794555Y-93948129D02*
X186994555Y-93948129D01*
X186994555Y-93948129D02*
X186994555Y-93757653D01*
X186994555Y-93757653D02*
X187032650Y-93643367D01*
X187032650Y-93643367D02*
X187108840Y-93567177D01*
X187108840Y-93567177D02*
X187185031Y-93529082D01*
X187185031Y-93529082D02*
X187337412Y-93490986D01*
X187337412Y-93490986D02*
X187451698Y-93490986D01*
X187451698Y-93490986D02*
X187604079Y-93529082D01*
X187604079Y-93529082D02*
X187680269Y-93567177D01*
X187680269Y-93567177D02*
X187756460Y-93643367D01*
X187756460Y-93643367D02*
X187794555Y-93757653D01*
X187794555Y-93757653D02*
X187794555Y-93948129D01*
X187489793Y-93148129D02*
X187489793Y-92538606D01*
D13*
X117785198Y-92598419D02*
X117785198Y-93312704D01*
X117785198Y-93312704D02*
X117737579Y-93455561D01*
X117737579Y-93455561D02*
X117642341Y-93550800D01*
X117642341Y-93550800D02*
X117499484Y-93598419D01*
X117499484Y-93598419D02*
X117404246Y-93598419D01*
X118737579Y-93598419D02*
X118261389Y-93598419D01*
X118261389Y-93598419D02*
X118261389Y-92598419D01*
X119642341Y-93503180D02*
X119594722Y-93550800D01*
X119594722Y-93550800D02*
X119451865Y-93598419D01*
X119451865Y-93598419D02*
X119356627Y-93598419D01*
X119356627Y-93598419D02*
X119213770Y-93550800D01*
X119213770Y-93550800D02*
X119118532Y-93455561D01*
X119118532Y-93455561D02*
X119070913Y-93360323D01*
X119070913Y-93360323D02*
X119023294Y-93169847D01*
X119023294Y-93169847D02*
X119023294Y-93026990D01*
X119023294Y-93026990D02*
X119070913Y-92836514D01*
X119070913Y-92836514D02*
X119118532Y-92741276D01*
X119118532Y-92741276D02*
X119213770Y-92646038D01*
X119213770Y-92646038D02*
X119356627Y-92598419D01*
X119356627Y-92598419D02*
X119451865Y-92598419D01*
X119451865Y-92598419D02*
X119594722Y-92646038D01*
X119594722Y-92646038D02*
X119642341Y-92693657D01*
X120356627Y-92598419D02*
X120356627Y-93312704D01*
X120356627Y-93312704D02*
X120309008Y-93455561D01*
X120309008Y-93455561D02*
X120213770Y-93550800D01*
X120213770Y-93550800D02*
X120070913Y-93598419D01*
X120070913Y-93598419D02*
X119975675Y-93598419D01*
X121309008Y-93598419D02*
X120832818Y-93598419D01*
X120832818Y-93598419D02*
X120832818Y-92598419D01*
X122213770Y-93503180D02*
X122166151Y-93550800D01*
X122166151Y-93550800D02*
X122023294Y-93598419D01*
X122023294Y-93598419D02*
X121928056Y-93598419D01*
X121928056Y-93598419D02*
X121785199Y-93550800D01*
X121785199Y-93550800D02*
X121689961Y-93455561D01*
X121689961Y-93455561D02*
X121642342Y-93360323D01*
X121642342Y-93360323D02*
X121594723Y-93169847D01*
X121594723Y-93169847D02*
X121594723Y-93026990D01*
X121594723Y-93026990D02*
X121642342Y-92836514D01*
X121642342Y-92836514D02*
X121689961Y-92741276D01*
X121689961Y-92741276D02*
X121785199Y-92646038D01*
X121785199Y-92646038D02*
X121928056Y-92598419D01*
X121928056Y-92598419D02*
X122023294Y-92598419D01*
X122023294Y-92598419D02*
X122166151Y-92646038D01*
X122166151Y-92646038D02*
X122213770Y-92693657D01*
X122928056Y-92598419D02*
X122928056Y-93312704D01*
X122928056Y-93312704D02*
X122880437Y-93455561D01*
X122880437Y-93455561D02*
X122785199Y-93550800D01*
X122785199Y-93550800D02*
X122642342Y-93598419D01*
X122642342Y-93598419D02*
X122547104Y-93598419D01*
X123880437Y-93598419D02*
X123404247Y-93598419D01*
X123404247Y-93598419D02*
X123404247Y-92598419D01*
X124785199Y-93503180D02*
X124737580Y-93550800D01*
X124737580Y-93550800D02*
X124594723Y-93598419D01*
X124594723Y-93598419D02*
X124499485Y-93598419D01*
X124499485Y-93598419D02*
X124356628Y-93550800D01*
X124356628Y-93550800D02*
X124261390Y-93455561D01*
X124261390Y-93455561D02*
X124213771Y-93360323D01*
X124213771Y-93360323D02*
X124166152Y-93169847D01*
X124166152Y-93169847D02*
X124166152Y-93026990D01*
X124166152Y-93026990D02*
X124213771Y-92836514D01*
X124213771Y-92836514D02*
X124261390Y-92741276D01*
X124261390Y-92741276D02*
X124356628Y-92646038D01*
X124356628Y-92646038D02*
X124499485Y-92598419D01*
X124499485Y-92598419D02*
X124594723Y-92598419D01*
X124594723Y-92598419D02*
X124737580Y-92646038D01*
X124737580Y-92646038D02*
X124785199Y-92693657D01*
X125499485Y-92598419D02*
X125499485Y-93312704D01*
X125499485Y-93312704D02*
X125451866Y-93455561D01*
X125451866Y-93455561D02*
X125356628Y-93550800D01*
X125356628Y-93550800D02*
X125213771Y-93598419D01*
X125213771Y-93598419D02*
X125118533Y-93598419D01*
X126451866Y-93598419D02*
X125975676Y-93598419D01*
X125975676Y-93598419D02*
X125975676Y-92598419D01*
X127356628Y-93503180D02*
X127309009Y-93550800D01*
X127309009Y-93550800D02*
X127166152Y-93598419D01*
X127166152Y-93598419D02*
X127070914Y-93598419D01*
X127070914Y-93598419D02*
X126928057Y-93550800D01*
X126928057Y-93550800D02*
X126832819Y-93455561D01*
X126832819Y-93455561D02*
X126785200Y-93360323D01*
X126785200Y-93360323D02*
X126737581Y-93169847D01*
X126737581Y-93169847D02*
X126737581Y-93026990D01*
X126737581Y-93026990D02*
X126785200Y-92836514D01*
X126785200Y-92836514D02*
X126832819Y-92741276D01*
X126832819Y-92741276D02*
X126928057Y-92646038D01*
X126928057Y-92646038D02*
X127070914Y-92598419D01*
X127070914Y-92598419D02*
X127166152Y-92598419D01*
X127166152Y-92598419D02*
X127309009Y-92646038D01*
X127309009Y-92646038D02*
X127356628Y-92693657D01*
D11*
X201480757Y-57356297D02*
X201052185Y-57656297D01*
X201480757Y-57870583D02*
X200580757Y-57870583D01*
X200580757Y-57870583D02*
X200580757Y-57527726D01*
X200580757Y-57527726D02*
X200623614Y-57442011D01*
X200623614Y-57442011D02*
X200666471Y-57399154D01*
X200666471Y-57399154D02*
X200752185Y-57356297D01*
X200752185Y-57356297D02*
X200880757Y-57356297D01*
X200880757Y-57356297D02*
X200966471Y-57399154D01*
X200966471Y-57399154D02*
X201009328Y-57442011D01*
X201009328Y-57442011D02*
X201052185Y-57527726D01*
X201052185Y-57527726D02*
X201052185Y-57870583D01*
X200580757Y-57056297D02*
X201480757Y-56456297D01*
X200580757Y-56456297D02*
X201480757Y-57056297D01*
D14*
X187709580Y-76167857D02*
X187757200Y-76215476D01*
X187757200Y-76215476D02*
X187804819Y-76358333D01*
X187804819Y-76358333D02*
X187804819Y-76453571D01*
X187804819Y-76453571D02*
X187757200Y-76596428D01*
X187757200Y-76596428D02*
X187661961Y-76691666D01*
X187661961Y-76691666D02*
X187566723Y-76739285D01*
X187566723Y-76739285D02*
X187376247Y-76786904D01*
X187376247Y-76786904D02*
X187233390Y-76786904D01*
X187233390Y-76786904D02*
X187042914Y-76739285D01*
X187042914Y-76739285D02*
X186947676Y-76691666D01*
X186947676Y-76691666D02*
X186852438Y-76596428D01*
X186852438Y-76596428D02*
X186804819Y-76453571D01*
X186804819Y-76453571D02*
X186804819Y-76358333D01*
X186804819Y-76358333D02*
X186852438Y-76215476D01*
X186852438Y-76215476D02*
X186900057Y-76167857D01*
X187804819Y-75215476D02*
X187804819Y-75786904D01*
X187804819Y-75501190D02*
X186804819Y-75501190D01*
X186804819Y-75501190D02*
X186947676Y-75596428D01*
X186947676Y-75596428D02*
X187042914Y-75691666D01*
X187042914Y-75691666D02*
X187090533Y-75786904D01*
X186804819Y-74596428D02*
X186804819Y-74501190D01*
X186804819Y-74501190D02*
X186852438Y-74405952D01*
X186852438Y-74405952D02*
X186900057Y-74358333D01*
X186900057Y-74358333D02*
X186995295Y-74310714D01*
X186995295Y-74310714D02*
X187185771Y-74263095D01*
X187185771Y-74263095D02*
X187423866Y-74263095D01*
X187423866Y-74263095D02*
X187614342Y-74310714D01*
X187614342Y-74310714D02*
X187709580Y-74358333D01*
X187709580Y-74358333D02*
X187757200Y-74405952D01*
X187757200Y-74405952D02*
X187804819Y-74501190D01*
X187804819Y-74501190D02*
X187804819Y-74596428D01*
X187804819Y-74596428D02*
X187757200Y-74691666D01*
X187757200Y-74691666D02*
X187709580Y-74739285D01*
X187709580Y-74739285D02*
X187614342Y-74786904D01*
X187614342Y-74786904D02*
X187423866Y-74834523D01*
X187423866Y-74834523D02*
X187185771Y-74834523D01*
X187185771Y-74834523D02*
X186995295Y-74786904D01*
X186995295Y-74786904D02*
X186900057Y-74739285D01*
X186900057Y-74739285D02*
X186852438Y-74691666D01*
X186852438Y-74691666D02*
X186804819Y-74596428D01*
X170813095Y-96667319D02*
X170813095Y-97476842D01*
X170813095Y-97476842D02*
X170860714Y-97572080D01*
X170860714Y-97572080D02*
X170908333Y-97619700D01*
X170908333Y-97619700D02*
X171003571Y-97667319D01*
X171003571Y-97667319D02*
X171194047Y-97667319D01*
X171194047Y-97667319D02*
X171289285Y-97619700D01*
X171289285Y-97619700D02*
X171336904Y-97572080D01*
X171336904Y-97572080D02*
X171384523Y-97476842D01*
X171384523Y-97476842D02*
X171384523Y-96667319D01*
X172384523Y-97667319D02*
X171813095Y-97667319D01*
X172098809Y-97667319D02*
X172098809Y-96667319D01*
X172098809Y-96667319D02*
X172003571Y-96810176D01*
X172003571Y-96810176D02*
X171908333Y-96905414D01*
X171908333Y-96905414D02*
X171813095Y-96953033D01*
X162273333Y-114744819D02*
X161940000Y-114268628D01*
X161701905Y-114744819D02*
X161701905Y-113744819D01*
X161701905Y-113744819D02*
X162082857Y-113744819D01*
X162082857Y-113744819D02*
X162178095Y-113792438D01*
X162178095Y-113792438D02*
X162225714Y-113840057D01*
X162225714Y-113840057D02*
X162273333Y-113935295D01*
X162273333Y-113935295D02*
X162273333Y-114078152D01*
X162273333Y-114078152D02*
X162225714Y-114173390D01*
X162225714Y-114173390D02*
X162178095Y-114221009D01*
X162178095Y-114221009D02*
X162082857Y-114268628D01*
X162082857Y-114268628D02*
X161701905Y-114268628D01*
X163130476Y-114078152D02*
X163130476Y-114744819D01*
X162892381Y-113697200D02*
X162654286Y-114411485D01*
X162654286Y-114411485D02*
X163273333Y-114411485D01*
X162270833Y-98522080D02*
X162223214Y-98569700D01*
X162223214Y-98569700D02*
X162080357Y-98617319D01*
X162080357Y-98617319D02*
X161985119Y-98617319D01*
X161985119Y-98617319D02*
X161842262Y-98569700D01*
X161842262Y-98569700D02*
X161747024Y-98474461D01*
X161747024Y-98474461D02*
X161699405Y-98379223D01*
X161699405Y-98379223D02*
X161651786Y-98188747D01*
X161651786Y-98188747D02*
X161651786Y-98045890D01*
X161651786Y-98045890D02*
X161699405Y-97855414D01*
X161699405Y-97855414D02*
X161747024Y-97760176D01*
X161747024Y-97760176D02*
X161842262Y-97664938D01*
X161842262Y-97664938D02*
X161985119Y-97617319D01*
X161985119Y-97617319D02*
X162080357Y-97617319D01*
X162080357Y-97617319D02*
X162223214Y-97664938D01*
X162223214Y-97664938D02*
X162270833Y-97712557D01*
X163223214Y-98617319D02*
X162651786Y-98617319D01*
X162937500Y-98617319D02*
X162937500Y-97617319D01*
X162937500Y-97617319D02*
X162842262Y-97760176D01*
X162842262Y-97760176D02*
X162747024Y-97855414D01*
X162747024Y-97855414D02*
X162651786Y-97903033D01*
X180421095Y-71578819D02*
X180421095Y-72388342D01*
X180421095Y-72388342D02*
X180468714Y-72483580D01*
X180468714Y-72483580D02*
X180516333Y-72531200D01*
X180516333Y-72531200D02*
X180611571Y-72578819D01*
X180611571Y-72578819D02*
X180802047Y-72578819D01*
X180802047Y-72578819D02*
X180897285Y-72531200D01*
X180897285Y-72531200D02*
X180944904Y-72483580D01*
X180944904Y-72483580D02*
X180992523Y-72388342D01*
X180992523Y-72388342D02*
X180992523Y-71578819D01*
X181897285Y-71912152D02*
X181897285Y-72578819D01*
X181659190Y-71531200D02*
X181421095Y-72245485D01*
X181421095Y-72245485D02*
X182040142Y-72245485D01*
X162270833Y-110587319D02*
X161937500Y-110111128D01*
X161699405Y-110587319D02*
X161699405Y-109587319D01*
X161699405Y-109587319D02*
X162080357Y-109587319D01*
X162080357Y-109587319D02*
X162175595Y-109634938D01*
X162175595Y-109634938D02*
X162223214Y-109682557D01*
X162223214Y-109682557D02*
X162270833Y-109777795D01*
X162270833Y-109777795D02*
X162270833Y-109920652D01*
X162270833Y-109920652D02*
X162223214Y-110015890D01*
X162223214Y-110015890D02*
X162175595Y-110063509D01*
X162175595Y-110063509D02*
X162080357Y-110111128D01*
X162080357Y-110111128D02*
X161699405Y-110111128D01*
X163223214Y-110587319D02*
X162651786Y-110587319D01*
X162937500Y-110587319D02*
X162937500Y-109587319D01*
X162937500Y-109587319D02*
X162842262Y-109730176D01*
X162842262Y-109730176D02*
X162747024Y-109825414D01*
X162747024Y-109825414D02*
X162651786Y-109873033D01*
X179908333Y-98498819D02*
X179575000Y-98022628D01*
X179336905Y-98498819D02*
X179336905Y-97498819D01*
X179336905Y-97498819D02*
X179717857Y-97498819D01*
X179717857Y-97498819D02*
X179813095Y-97546438D01*
X179813095Y-97546438D02*
X179860714Y-97594057D01*
X179860714Y-97594057D02*
X179908333Y-97689295D01*
X179908333Y-97689295D02*
X179908333Y-97832152D01*
X179908333Y-97832152D02*
X179860714Y-97927390D01*
X179860714Y-97927390D02*
X179813095Y-97975009D01*
X179813095Y-97975009D02*
X179717857Y-98022628D01*
X179717857Y-98022628D02*
X179336905Y-98022628D01*
X180813095Y-97498819D02*
X180336905Y-97498819D01*
X180336905Y-97498819D02*
X180289286Y-97975009D01*
X180289286Y-97975009D02*
X180336905Y-97927390D01*
X180336905Y-97927390D02*
X180432143Y-97879771D01*
X180432143Y-97879771D02*
X180670238Y-97879771D01*
X180670238Y-97879771D02*
X180765476Y-97927390D01*
X180765476Y-97927390D02*
X180813095Y-97975009D01*
X180813095Y-97975009D02*
X180860714Y-98070247D01*
X180860714Y-98070247D02*
X180860714Y-98308342D01*
X180860714Y-98308342D02*
X180813095Y-98403580D01*
X180813095Y-98403580D02*
X180765476Y-98451200D01*
X180765476Y-98451200D02*
X180670238Y-98498819D01*
X180670238Y-98498819D02*
X180432143Y-98498819D01*
X180432143Y-98498819D02*
X180336905Y-98451200D01*
X180336905Y-98451200D02*
X180289286Y-98403580D01*
X171533333Y-114787319D02*
X171200000Y-114311128D01*
X170961905Y-114787319D02*
X170961905Y-113787319D01*
X170961905Y-113787319D02*
X171342857Y-113787319D01*
X171342857Y-113787319D02*
X171438095Y-113834938D01*
X171438095Y-113834938D02*
X171485714Y-113882557D01*
X171485714Y-113882557D02*
X171533333Y-113977795D01*
X171533333Y-113977795D02*
X171533333Y-114120652D01*
X171533333Y-114120652D02*
X171485714Y-114215890D01*
X171485714Y-114215890D02*
X171438095Y-114263509D01*
X171438095Y-114263509D02*
X171342857Y-114311128D01*
X171342857Y-114311128D02*
X170961905Y-114311128D01*
X171914286Y-113882557D02*
X171961905Y-113834938D01*
X171961905Y-113834938D02*
X172057143Y-113787319D01*
X172057143Y-113787319D02*
X172295238Y-113787319D01*
X172295238Y-113787319D02*
X172390476Y-113834938D01*
X172390476Y-113834938D02*
X172438095Y-113882557D01*
X172438095Y-113882557D02*
X172485714Y-113977795D01*
X172485714Y-113977795D02*
X172485714Y-114073033D01*
X172485714Y-114073033D02*
X172438095Y-114215890D01*
X172438095Y-114215890D02*
X171866667Y-114787319D01*
X171866667Y-114787319D02*
X172485714Y-114787319D01*
D15*
X171395238Y-85969556D02*
X171395238Y-86574318D01*
X170971905Y-85304318D02*
X171395238Y-85969556D01*
X171395238Y-85969556D02*
X171818572Y-85304318D01*
X172907143Y-86574318D02*
X172181428Y-86574318D01*
X172544285Y-86574318D02*
X172544285Y-85304318D01*
X172544285Y-85304318D02*
X172423333Y-85485746D01*
X172423333Y-85485746D02*
X172302381Y-85606699D01*
X172302381Y-85606699D02*
X172181428Y-85667175D01*
D14*
X162270833Y-106522080D02*
X162223214Y-106569700D01*
X162223214Y-106569700D02*
X162080357Y-106617319D01*
X162080357Y-106617319D02*
X161985119Y-106617319D01*
X161985119Y-106617319D02*
X161842262Y-106569700D01*
X161842262Y-106569700D02*
X161747024Y-106474461D01*
X161747024Y-106474461D02*
X161699405Y-106379223D01*
X161699405Y-106379223D02*
X161651786Y-106188747D01*
X161651786Y-106188747D02*
X161651786Y-106045890D01*
X161651786Y-106045890D02*
X161699405Y-105855414D01*
X161699405Y-105855414D02*
X161747024Y-105760176D01*
X161747024Y-105760176D02*
X161842262Y-105664938D01*
X161842262Y-105664938D02*
X161985119Y-105617319D01*
X161985119Y-105617319D02*
X162080357Y-105617319D01*
X162080357Y-105617319D02*
X162223214Y-105664938D01*
X162223214Y-105664938D02*
X162270833Y-105712557D01*
X162604167Y-105617319D02*
X163223214Y-105617319D01*
X163223214Y-105617319D02*
X162889881Y-105998271D01*
X162889881Y-105998271D02*
X163032738Y-105998271D01*
X163032738Y-105998271D02*
X163127976Y-106045890D01*
X163127976Y-106045890D02*
X163175595Y-106093509D01*
X163175595Y-106093509D02*
X163223214Y-106188747D01*
X163223214Y-106188747D02*
X163223214Y-106426842D01*
X163223214Y-106426842D02*
X163175595Y-106522080D01*
X163175595Y-106522080D02*
X163127976Y-106569700D01*
X163127976Y-106569700D02*
X163032738Y-106617319D01*
X163032738Y-106617319D02*
X162747024Y-106617319D01*
X162747024Y-106617319D02*
X162651786Y-106569700D01*
X162651786Y-106569700D02*
X162604167Y-106522080D01*
X179908333Y-94587319D02*
X179575000Y-94111128D01*
X179336905Y-94587319D02*
X179336905Y-93587319D01*
X179336905Y-93587319D02*
X179717857Y-93587319D01*
X179717857Y-93587319D02*
X179813095Y-93634938D01*
X179813095Y-93634938D02*
X179860714Y-93682557D01*
X179860714Y-93682557D02*
X179908333Y-93777795D01*
X179908333Y-93777795D02*
X179908333Y-93920652D01*
X179908333Y-93920652D02*
X179860714Y-94015890D01*
X179860714Y-94015890D02*
X179813095Y-94063509D01*
X179813095Y-94063509D02*
X179717857Y-94111128D01*
X179717857Y-94111128D02*
X179336905Y-94111128D01*
X180765476Y-93587319D02*
X180575000Y-93587319D01*
X180575000Y-93587319D02*
X180479762Y-93634938D01*
X180479762Y-93634938D02*
X180432143Y-93682557D01*
X180432143Y-93682557D02*
X180336905Y-93825414D01*
X180336905Y-93825414D02*
X180289286Y-94015890D01*
X180289286Y-94015890D02*
X180289286Y-94396842D01*
X180289286Y-94396842D02*
X180336905Y-94492080D01*
X180336905Y-94492080D02*
X180384524Y-94539700D01*
X180384524Y-94539700D02*
X180479762Y-94587319D01*
X180479762Y-94587319D02*
X180670238Y-94587319D01*
X180670238Y-94587319D02*
X180765476Y-94539700D01*
X180765476Y-94539700D02*
X180813095Y-94492080D01*
X180813095Y-94492080D02*
X180860714Y-94396842D01*
X180860714Y-94396842D02*
X180860714Y-94158747D01*
X180860714Y-94158747D02*
X180813095Y-94063509D01*
X180813095Y-94063509D02*
X180765476Y-94015890D01*
X180765476Y-94015890D02*
X180670238Y-93968271D01*
X180670238Y-93968271D02*
X180479762Y-93968271D01*
X180479762Y-93968271D02*
X180384524Y-94015890D01*
X180384524Y-94015890D02*
X180336905Y-94063509D01*
X180336905Y-94063509D02*
X180289286Y-94158747D01*
X138666666Y-110084819D02*
X138666666Y-110799104D01*
X138666666Y-110799104D02*
X138619047Y-110941961D01*
X138619047Y-110941961D02*
X138523809Y-111037200D01*
X138523809Y-111037200D02*
X138380952Y-111084819D01*
X138380952Y-111084819D02*
X138285714Y-111084819D01*
X139095238Y-110180057D02*
X139142857Y-110132438D01*
X139142857Y-110132438D02*
X139238095Y-110084819D01*
X139238095Y-110084819D02*
X139476190Y-110084819D01*
X139476190Y-110084819D02*
X139571428Y-110132438D01*
X139571428Y-110132438D02*
X139619047Y-110180057D01*
X139619047Y-110180057D02*
X139666666Y-110275295D01*
X139666666Y-110275295D02*
X139666666Y-110370533D01*
X139666666Y-110370533D02*
X139619047Y-110513390D01*
X139619047Y-110513390D02*
X139047619Y-111084819D01*
X139047619Y-111084819D02*
X139666666Y-111084819D01*
D13*
X130643428Y-32767990D02*
X130738666Y-32815609D01*
X130738666Y-32815609D02*
X130786285Y-32863228D01*
X130786285Y-32863228D02*
X130833904Y-32958466D01*
X130833904Y-32958466D02*
X130833904Y-33148942D01*
X130833904Y-33148942D02*
X130786285Y-33244180D01*
X130786285Y-33244180D02*
X130738666Y-33291800D01*
X130738666Y-33291800D02*
X130643428Y-33339419D01*
X130643428Y-33339419D02*
X130500571Y-33339419D01*
X130500571Y-33339419D02*
X130405333Y-33291800D01*
X130405333Y-33291800D02*
X130357714Y-33244180D01*
X130262476Y-33672752D02*
X130310095Y-33625133D01*
X130310095Y-33625133D02*
X130357714Y-33529895D01*
X130357714Y-33529895D02*
X130357714Y-32482276D01*
X130357714Y-32482276D02*
X130405333Y-32387038D01*
X130405333Y-32387038D02*
X130500571Y-32339419D01*
X130500571Y-32339419D02*
X130643428Y-32339419D01*
X130643428Y-32339419D02*
X130738666Y-32387038D01*
X130738666Y-32387038D02*
X130786285Y-32482276D01*
X130786285Y-32482276D02*
X130786285Y-32625133D01*
X130786285Y-32625133D02*
X130738666Y-32720371D01*
X130738666Y-32720371D02*
X130643428Y-32767990D01*
X130643428Y-32767990D02*
X130548190Y-32767990D01*
X130572000Y-37922752D02*
X130333905Y-38589419D01*
X130333905Y-37589419D02*
X130429143Y-37589419D01*
X130429143Y-37589419D02*
X130476762Y-37637038D01*
X130476762Y-37637038D02*
X130572000Y-37922752D01*
X130572000Y-37922752D02*
X130810095Y-38589419D01*
X128881523Y-32672752D02*
X128738666Y-33148942D01*
X128738666Y-33148942D02*
X128691047Y-33244180D01*
X128691047Y-33244180D02*
X128643428Y-33291800D01*
X128643428Y-33291800D02*
X128548190Y-33339419D01*
X128548190Y-33339419D02*
X128452952Y-33339419D01*
X128452952Y-33339419D02*
X128357714Y-33291800D01*
X128357714Y-33291800D02*
X128310095Y-33244180D01*
X128310095Y-33244180D02*
X128262476Y-33101323D01*
X128262476Y-33101323D02*
X128262476Y-32910847D01*
X128262476Y-32910847D02*
X128310095Y-32767990D01*
X128310095Y-32767990D02*
X128357714Y-32720371D01*
X128357714Y-32720371D02*
X128452952Y-32672752D01*
X128452952Y-32672752D02*
X128548190Y-32672752D01*
X128548190Y-32672752D02*
X128643428Y-32720371D01*
X128643428Y-32720371D02*
X128691047Y-32767990D01*
X128691047Y-32767990D02*
X128738666Y-32863228D01*
X128738666Y-32863228D02*
X128786285Y-33196561D01*
X128786285Y-33196561D02*
X128833904Y-33291800D01*
X128833904Y-33291800D02*
X128929142Y-33339419D01*
X128238667Y-38589419D02*
X128572000Y-37589419D01*
X128572000Y-37589419D02*
X128905333Y-38589419D01*
X128905333Y-38589419D02*
X128238667Y-38589419D01*
X134286286Y-37922752D02*
X134286286Y-38922752D01*
X134762476Y-38446561D02*
X134810095Y-38541800D01*
X134810095Y-38541800D02*
X134905333Y-38589419D01*
X134286286Y-38446561D02*
X134333905Y-38541800D01*
X134333905Y-38541800D02*
X134429143Y-38589419D01*
X134429143Y-38589419D02*
X134619619Y-38589419D01*
X134619619Y-38589419D02*
X134714857Y-38541800D01*
X134714857Y-38541800D02*
X134762476Y-38446561D01*
X134762476Y-38446561D02*
X134762476Y-37922752D01*
X132572000Y-33244180D02*
X132572000Y-33672752D01*
X132286286Y-32672752D02*
X132333905Y-32672752D01*
X132333905Y-32672752D02*
X132381524Y-32720371D01*
X132381524Y-32720371D02*
X132572000Y-33244180D01*
X132572000Y-33244180D02*
X132810095Y-32672752D01*
X134310095Y-32815609D02*
X134833904Y-32815609D01*
X134500571Y-32339419D02*
X134643428Y-32339419D01*
X134643428Y-32339419D02*
X134738666Y-32387038D01*
X134738666Y-32387038D02*
X134786285Y-32434657D01*
X134786285Y-32434657D02*
X134833904Y-32577514D01*
X134833904Y-32577514D02*
X134833904Y-33101323D01*
X134833904Y-33101323D02*
X134786285Y-33244180D01*
X134786285Y-33244180D02*
X134738666Y-33291800D01*
X134738666Y-33291800D02*
X134643428Y-33339419D01*
X134643428Y-33339419D02*
X134500571Y-33339419D01*
X134500571Y-33339419D02*
X134405333Y-33291800D01*
X134405333Y-33291800D02*
X134357714Y-33244180D01*
X134357714Y-33244180D02*
X134310095Y-33101323D01*
X134310095Y-33101323D02*
X134310095Y-32577514D01*
X134310095Y-32577514D02*
X134357714Y-32434657D01*
X134357714Y-32434657D02*
X134405333Y-32387038D01*
X134405333Y-32387038D02*
X134500571Y-32339419D01*
X132786285Y-37922752D02*
X132786285Y-38589419D01*
X132452952Y-37922752D02*
X132452952Y-38446561D01*
X132452952Y-38446561D02*
X132405333Y-38541800D01*
X132405333Y-38541800D02*
X132310095Y-38589419D01*
X132976761Y-37922752D02*
X132357714Y-37922752D01*
X132357714Y-37922752D02*
X132262476Y-37970371D01*
X132262476Y-37970371D02*
X132214857Y-38065609D01*
D14*
X179908333Y-102467580D02*
X179860714Y-102515200D01*
X179860714Y-102515200D02*
X179717857Y-102562819D01*
X179717857Y-102562819D02*
X179622619Y-102562819D01*
X179622619Y-102562819D02*
X179479762Y-102515200D01*
X179479762Y-102515200D02*
X179384524Y-102419961D01*
X179384524Y-102419961D02*
X179336905Y-102324723D01*
X179336905Y-102324723D02*
X179289286Y-102134247D01*
X179289286Y-102134247D02*
X179289286Y-101991390D01*
X179289286Y-101991390D02*
X179336905Y-101800914D01*
X179336905Y-101800914D02*
X179384524Y-101705676D01*
X179384524Y-101705676D02*
X179479762Y-101610438D01*
X179479762Y-101610438D02*
X179622619Y-101562819D01*
X179622619Y-101562819D02*
X179717857Y-101562819D01*
X179717857Y-101562819D02*
X179860714Y-101610438D01*
X179860714Y-101610438D02*
X179908333Y-101658057D01*
X180479762Y-101991390D02*
X180384524Y-101943771D01*
X180384524Y-101943771D02*
X180336905Y-101896152D01*
X180336905Y-101896152D02*
X180289286Y-101800914D01*
X180289286Y-101800914D02*
X180289286Y-101753295D01*
X180289286Y-101753295D02*
X180336905Y-101658057D01*
X180336905Y-101658057D02*
X180384524Y-101610438D01*
X180384524Y-101610438D02*
X180479762Y-101562819D01*
X180479762Y-101562819D02*
X180670238Y-101562819D01*
X180670238Y-101562819D02*
X180765476Y-101610438D01*
X180765476Y-101610438D02*
X180813095Y-101658057D01*
X180813095Y-101658057D02*
X180860714Y-101753295D01*
X180860714Y-101753295D02*
X180860714Y-101800914D01*
X180860714Y-101800914D02*
X180813095Y-101896152D01*
X180813095Y-101896152D02*
X180765476Y-101943771D01*
X180765476Y-101943771D02*
X180670238Y-101991390D01*
X180670238Y-101991390D02*
X180479762Y-101991390D01*
X180479762Y-101991390D02*
X180384524Y-102039009D01*
X180384524Y-102039009D02*
X180336905Y-102086628D01*
X180336905Y-102086628D02*
X180289286Y-102181866D01*
X180289286Y-102181866D02*
X180289286Y-102372342D01*
X180289286Y-102372342D02*
X180336905Y-102467580D01*
X180336905Y-102467580D02*
X180384524Y-102515200D01*
X180384524Y-102515200D02*
X180479762Y-102562819D01*
X180479762Y-102562819D02*
X180670238Y-102562819D01*
X180670238Y-102562819D02*
X180765476Y-102515200D01*
X180765476Y-102515200D02*
X180813095Y-102467580D01*
X180813095Y-102467580D02*
X180860714Y-102372342D01*
X180860714Y-102372342D02*
X180860714Y-102181866D01*
X180860714Y-102181866D02*
X180813095Y-102086628D01*
X180813095Y-102086628D02*
X180765476Y-102039009D01*
X180765476Y-102039009D02*
X180670238Y-101991390D01*
X147133333Y-90947319D02*
X146800000Y-90471128D01*
X146561905Y-90947319D02*
X146561905Y-89947319D01*
X146561905Y-89947319D02*
X146942857Y-89947319D01*
X146942857Y-89947319D02*
X147038095Y-89994938D01*
X147038095Y-89994938D02*
X147085714Y-90042557D01*
X147085714Y-90042557D02*
X147133333Y-90137795D01*
X147133333Y-90137795D02*
X147133333Y-90280652D01*
X147133333Y-90280652D02*
X147085714Y-90375890D01*
X147085714Y-90375890D02*
X147038095Y-90423509D01*
X147038095Y-90423509D02*
X146942857Y-90471128D01*
X146942857Y-90471128D02*
X146561905Y-90471128D01*
X147609524Y-90947319D02*
X147800000Y-90947319D01*
X147800000Y-90947319D02*
X147895238Y-90899700D01*
X147895238Y-90899700D02*
X147942857Y-90852080D01*
X147942857Y-90852080D02*
X148038095Y-90709223D01*
X148038095Y-90709223D02*
X148085714Y-90518747D01*
X148085714Y-90518747D02*
X148085714Y-90137795D01*
X148085714Y-90137795D02*
X148038095Y-90042557D01*
X148038095Y-90042557D02*
X147990476Y-89994938D01*
X147990476Y-89994938D02*
X147895238Y-89947319D01*
X147895238Y-89947319D02*
X147704762Y-89947319D01*
X147704762Y-89947319D02*
X147609524Y-89994938D01*
X147609524Y-89994938D02*
X147561905Y-90042557D01*
X147561905Y-90042557D02*
X147514286Y-90137795D01*
X147514286Y-90137795D02*
X147514286Y-90375890D01*
X147514286Y-90375890D02*
X147561905Y-90471128D01*
X147561905Y-90471128D02*
X147609524Y-90518747D01*
X147609524Y-90518747D02*
X147704762Y-90566366D01*
X147704762Y-90566366D02*
X147895238Y-90566366D01*
X147895238Y-90566366D02*
X147990476Y-90518747D01*
X147990476Y-90518747D02*
X148038095Y-90471128D01*
X148038095Y-90471128D02*
X148085714Y-90375890D01*
X195454819Y-45533333D02*
X196169104Y-45533333D01*
X196169104Y-45533333D02*
X196311961Y-45580952D01*
X196311961Y-45580952D02*
X196407200Y-45676190D01*
X196407200Y-45676190D02*
X196454819Y-45819047D01*
X196454819Y-45819047D02*
X196454819Y-45914285D01*
X195788152Y-44628571D02*
X196454819Y-44628571D01*
X195407200Y-44866666D02*
X196121485Y-45104761D01*
X196121485Y-45104761D02*
X196121485Y-44485714D01*
X179933333Y-114787319D02*
X179600000Y-114311128D01*
X179361905Y-114787319D02*
X179361905Y-113787319D01*
X179361905Y-113787319D02*
X179742857Y-113787319D01*
X179742857Y-113787319D02*
X179838095Y-113834938D01*
X179838095Y-113834938D02*
X179885714Y-113882557D01*
X179885714Y-113882557D02*
X179933333Y-113977795D01*
X179933333Y-113977795D02*
X179933333Y-114120652D01*
X179933333Y-114120652D02*
X179885714Y-114215890D01*
X179885714Y-114215890D02*
X179838095Y-114263509D01*
X179838095Y-114263509D02*
X179742857Y-114311128D01*
X179742857Y-114311128D02*
X179361905Y-114311128D01*
X180266667Y-113787319D02*
X180885714Y-113787319D01*
X180885714Y-113787319D02*
X180552381Y-114168271D01*
X180552381Y-114168271D02*
X180695238Y-114168271D01*
X180695238Y-114168271D02*
X180790476Y-114215890D01*
X180790476Y-114215890D02*
X180838095Y-114263509D01*
X180838095Y-114263509D02*
X180885714Y-114358747D01*
X180885714Y-114358747D02*
X180885714Y-114596842D01*
X180885714Y-114596842D02*
X180838095Y-114692080D01*
X180838095Y-114692080D02*
X180790476Y-114739700D01*
X180790476Y-114739700D02*
X180695238Y-114787319D01*
X180695238Y-114787319D02*
X180409524Y-114787319D01*
X180409524Y-114787319D02*
X180314286Y-114739700D01*
X180314286Y-114739700D02*
X180266667Y-114692080D01*
X171334819Y-60042857D02*
X170858628Y-60376190D01*
X171334819Y-60614285D02*
X170334819Y-60614285D01*
X170334819Y-60614285D02*
X170334819Y-60233333D01*
X170334819Y-60233333D02*
X170382438Y-60138095D01*
X170382438Y-60138095D02*
X170430057Y-60090476D01*
X170430057Y-60090476D02*
X170525295Y-60042857D01*
X170525295Y-60042857D02*
X170668152Y-60042857D01*
X170668152Y-60042857D02*
X170763390Y-60090476D01*
X170763390Y-60090476D02*
X170811009Y-60138095D01*
X170811009Y-60138095D02*
X170858628Y-60233333D01*
X170858628Y-60233333D02*
X170858628Y-60614285D01*
X171334819Y-59090476D02*
X171334819Y-59661904D01*
X171334819Y-59376190D02*
X170334819Y-59376190D01*
X170334819Y-59376190D02*
X170477676Y-59471428D01*
X170477676Y-59471428D02*
X170572914Y-59566666D01*
X170572914Y-59566666D02*
X170620533Y-59661904D01*
X170668152Y-58233333D02*
X171334819Y-58233333D01*
X170287200Y-58471428D02*
X171001485Y-58709523D01*
X171001485Y-58709523D02*
X171001485Y-58090476D01*
X162270833Y-94522080D02*
X162223214Y-94569700D01*
X162223214Y-94569700D02*
X162080357Y-94617319D01*
X162080357Y-94617319D02*
X161985119Y-94617319D01*
X161985119Y-94617319D02*
X161842262Y-94569700D01*
X161842262Y-94569700D02*
X161747024Y-94474461D01*
X161747024Y-94474461D02*
X161699405Y-94379223D01*
X161699405Y-94379223D02*
X161651786Y-94188747D01*
X161651786Y-94188747D02*
X161651786Y-94045890D01*
X161651786Y-94045890D02*
X161699405Y-93855414D01*
X161699405Y-93855414D02*
X161747024Y-93760176D01*
X161747024Y-93760176D02*
X161842262Y-93664938D01*
X161842262Y-93664938D02*
X161985119Y-93617319D01*
X161985119Y-93617319D02*
X162080357Y-93617319D01*
X162080357Y-93617319D02*
X162223214Y-93664938D01*
X162223214Y-93664938D02*
X162270833Y-93712557D01*
X163175595Y-93617319D02*
X162699405Y-93617319D01*
X162699405Y-93617319D02*
X162651786Y-94093509D01*
X162651786Y-94093509D02*
X162699405Y-94045890D01*
X162699405Y-94045890D02*
X162794643Y-93998271D01*
X162794643Y-93998271D02*
X163032738Y-93998271D01*
X163032738Y-93998271D02*
X163127976Y-94045890D01*
X163127976Y-94045890D02*
X163175595Y-94093509D01*
X163175595Y-94093509D02*
X163223214Y-94188747D01*
X163223214Y-94188747D02*
X163223214Y-94426842D01*
X163223214Y-94426842D02*
X163175595Y-94522080D01*
X163175595Y-94522080D02*
X163127976Y-94569700D01*
X163127976Y-94569700D02*
X163032738Y-94617319D01*
X163032738Y-94617319D02*
X162794643Y-94617319D01*
X162794643Y-94617319D02*
X162699405Y-94569700D01*
X162699405Y-94569700D02*
X162651786Y-94522080D01*
X171234819Y-67742857D02*
X170758628Y-68076190D01*
X171234819Y-68314285D02*
X170234819Y-68314285D01*
X170234819Y-68314285D02*
X170234819Y-67933333D01*
X170234819Y-67933333D02*
X170282438Y-67838095D01*
X170282438Y-67838095D02*
X170330057Y-67790476D01*
X170330057Y-67790476D02*
X170425295Y-67742857D01*
X170425295Y-67742857D02*
X170568152Y-67742857D01*
X170568152Y-67742857D02*
X170663390Y-67790476D01*
X170663390Y-67790476D02*
X170711009Y-67838095D01*
X170711009Y-67838095D02*
X170758628Y-67933333D01*
X170758628Y-67933333D02*
X170758628Y-68314285D01*
X171234819Y-66790476D02*
X171234819Y-67361904D01*
X171234819Y-67076190D02*
X170234819Y-67076190D01*
X170234819Y-67076190D02*
X170377676Y-67171428D01*
X170377676Y-67171428D02*
X170472914Y-67266666D01*
X170472914Y-67266666D02*
X170520533Y-67361904D01*
X170234819Y-66457142D02*
X170234819Y-65838095D01*
X170234819Y-65838095D02*
X170615771Y-66171428D01*
X170615771Y-66171428D02*
X170615771Y-66028571D01*
X170615771Y-66028571D02*
X170663390Y-65933333D01*
X170663390Y-65933333D02*
X170711009Y-65885714D01*
X170711009Y-65885714D02*
X170806247Y-65838095D01*
X170806247Y-65838095D02*
X171044342Y-65838095D01*
X171044342Y-65838095D02*
X171139580Y-65885714D01*
X171139580Y-65885714D02*
X171187200Y-65933333D01*
X171187200Y-65933333D02*
X171234819Y-66028571D01*
X171234819Y-66028571D02*
X171234819Y-66314285D01*
X171234819Y-66314285D02*
X171187200Y-66409523D01*
X171187200Y-66409523D02*
X171139580Y-66457142D01*
D15*
X196753318Y-78998332D02*
X197660461Y-78998332D01*
X197660461Y-78998332D02*
X197841889Y-79058809D01*
X197841889Y-79058809D02*
X197962842Y-79179761D01*
X197962842Y-79179761D02*
X198023318Y-79361190D01*
X198023318Y-79361190D02*
X198023318Y-79482142D01*
X196753318Y-78514523D02*
X196753318Y-77728332D01*
X196753318Y-77728332D02*
X197237127Y-78151666D01*
X197237127Y-78151666D02*
X197237127Y-77970237D01*
X197237127Y-77970237D02*
X197297603Y-77849285D01*
X197297603Y-77849285D02*
X197358080Y-77788809D01*
X197358080Y-77788809D02*
X197479032Y-77728332D01*
X197479032Y-77728332D02*
X197781413Y-77728332D01*
X197781413Y-77728332D02*
X197902365Y-77788809D01*
X197902365Y-77788809D02*
X197962842Y-77849285D01*
X197962842Y-77849285D02*
X198023318Y-77970237D01*
X198023318Y-77970237D02*
X198023318Y-78333094D01*
X198023318Y-78333094D02*
X197962842Y-78454047D01*
X197962842Y-78454047D02*
X197902365Y-78514523D01*
D14*
X180446095Y-58628819D02*
X180446095Y-59438342D01*
X180446095Y-59438342D02*
X180493714Y-59533580D01*
X180493714Y-59533580D02*
X180541333Y-59581200D01*
X180541333Y-59581200D02*
X180636571Y-59628819D01*
X180636571Y-59628819D02*
X180827047Y-59628819D01*
X180827047Y-59628819D02*
X180922285Y-59581200D01*
X180922285Y-59581200D02*
X180969904Y-59533580D01*
X180969904Y-59533580D02*
X181017523Y-59438342D01*
X181017523Y-59438342D02*
X181017523Y-58628819D01*
X181398476Y-58628819D02*
X182017523Y-58628819D01*
X182017523Y-58628819D02*
X181684190Y-59009771D01*
X181684190Y-59009771D02*
X181827047Y-59009771D01*
X181827047Y-59009771D02*
X181922285Y-59057390D01*
X181922285Y-59057390D02*
X181969904Y-59105009D01*
X181969904Y-59105009D02*
X182017523Y-59200247D01*
X182017523Y-59200247D02*
X182017523Y-59438342D01*
X182017523Y-59438342D02*
X181969904Y-59533580D01*
X181969904Y-59533580D02*
X181922285Y-59581200D01*
X181922285Y-59581200D02*
X181827047Y-59628819D01*
X181827047Y-59628819D02*
X181541333Y-59628819D01*
X181541333Y-59628819D02*
X181446095Y-59581200D01*
X181446095Y-59581200D02*
X181398476Y-59533580D01*
X162270833Y-102522080D02*
X162223214Y-102569700D01*
X162223214Y-102569700D02*
X162080357Y-102617319D01*
X162080357Y-102617319D02*
X161985119Y-102617319D01*
X161985119Y-102617319D02*
X161842262Y-102569700D01*
X161842262Y-102569700D02*
X161747024Y-102474461D01*
X161747024Y-102474461D02*
X161699405Y-102379223D01*
X161699405Y-102379223D02*
X161651786Y-102188747D01*
X161651786Y-102188747D02*
X161651786Y-102045890D01*
X161651786Y-102045890D02*
X161699405Y-101855414D01*
X161699405Y-101855414D02*
X161747024Y-101760176D01*
X161747024Y-101760176D02*
X161842262Y-101664938D01*
X161842262Y-101664938D02*
X161985119Y-101617319D01*
X161985119Y-101617319D02*
X162080357Y-101617319D01*
X162080357Y-101617319D02*
X162223214Y-101664938D01*
X162223214Y-101664938D02*
X162270833Y-101712557D01*
X162651786Y-101712557D02*
X162699405Y-101664938D01*
X162699405Y-101664938D02*
X162794643Y-101617319D01*
X162794643Y-101617319D02*
X163032738Y-101617319D01*
X163032738Y-101617319D02*
X163127976Y-101664938D01*
X163127976Y-101664938D02*
X163175595Y-101712557D01*
X163175595Y-101712557D02*
X163223214Y-101807795D01*
X163223214Y-101807795D02*
X163223214Y-101903033D01*
X163223214Y-101903033D02*
X163175595Y-102045890D01*
X163175595Y-102045890D02*
X162604167Y-102617319D01*
X162604167Y-102617319D02*
X163223214Y-102617319D01*
X150733333Y-111022080D02*
X150685714Y-111069700D01*
X150685714Y-111069700D02*
X150542857Y-111117319D01*
X150542857Y-111117319D02*
X150447619Y-111117319D01*
X150447619Y-111117319D02*
X150304762Y-111069700D01*
X150304762Y-111069700D02*
X150209524Y-110974461D01*
X150209524Y-110974461D02*
X150161905Y-110879223D01*
X150161905Y-110879223D02*
X150114286Y-110688747D01*
X150114286Y-110688747D02*
X150114286Y-110545890D01*
X150114286Y-110545890D02*
X150161905Y-110355414D01*
X150161905Y-110355414D02*
X150209524Y-110260176D01*
X150209524Y-110260176D02*
X150304762Y-110164938D01*
X150304762Y-110164938D02*
X150447619Y-110117319D01*
X150447619Y-110117319D02*
X150542857Y-110117319D01*
X150542857Y-110117319D02*
X150685714Y-110164938D01*
X150685714Y-110164938D02*
X150733333Y-110212557D01*
X151209524Y-111117319D02*
X151400000Y-111117319D01*
X151400000Y-111117319D02*
X151495238Y-111069700D01*
X151495238Y-111069700D02*
X151542857Y-111022080D01*
X151542857Y-111022080D02*
X151638095Y-110879223D01*
X151638095Y-110879223D02*
X151685714Y-110688747D01*
X151685714Y-110688747D02*
X151685714Y-110307795D01*
X151685714Y-110307795D02*
X151638095Y-110212557D01*
X151638095Y-110212557D02*
X151590476Y-110164938D01*
X151590476Y-110164938D02*
X151495238Y-110117319D01*
X151495238Y-110117319D02*
X151304762Y-110117319D01*
X151304762Y-110117319D02*
X151209524Y-110164938D01*
X151209524Y-110164938D02*
X151161905Y-110212557D01*
X151161905Y-110212557D02*
X151114286Y-110307795D01*
X151114286Y-110307795D02*
X151114286Y-110545890D01*
X151114286Y-110545890D02*
X151161905Y-110641128D01*
X151161905Y-110641128D02*
X151209524Y-110688747D01*
X151209524Y-110688747D02*
X151304762Y-110736366D01*
X151304762Y-110736366D02*
X151495238Y-110736366D01*
X151495238Y-110736366D02*
X151590476Y-110688747D01*
X151590476Y-110688747D02*
X151638095Y-110641128D01*
X151638095Y-110641128D02*
X151685714Y-110545890D01*
X150138095Y-96317319D02*
X150138095Y-97126842D01*
X150138095Y-97126842D02*
X150185714Y-97222080D01*
X150185714Y-97222080D02*
X150233333Y-97269700D01*
X150233333Y-97269700D02*
X150328571Y-97317319D01*
X150328571Y-97317319D02*
X150519047Y-97317319D01*
X150519047Y-97317319D02*
X150614285Y-97269700D01*
X150614285Y-97269700D02*
X150661904Y-97222080D01*
X150661904Y-97222080D02*
X150709523Y-97126842D01*
X150709523Y-97126842D02*
X150709523Y-96317319D01*
X151138095Y-96412557D02*
X151185714Y-96364938D01*
X151185714Y-96364938D02*
X151280952Y-96317319D01*
X151280952Y-96317319D02*
X151519047Y-96317319D01*
X151519047Y-96317319D02*
X151614285Y-96364938D01*
X151614285Y-96364938D02*
X151661904Y-96412557D01*
X151661904Y-96412557D02*
X151709523Y-96507795D01*
X151709523Y-96507795D02*
X151709523Y-96603033D01*
X151709523Y-96603033D02*
X151661904Y-96745890D01*
X151661904Y-96745890D02*
X151090476Y-97317319D01*
X151090476Y-97317319D02*
X151709523Y-97317319D01*
X154265333Y-91132819D02*
X153932000Y-90656628D01*
X153693905Y-91132819D02*
X153693905Y-90132819D01*
X153693905Y-90132819D02*
X154074857Y-90132819D01*
X154074857Y-90132819D02*
X154170095Y-90180438D01*
X154170095Y-90180438D02*
X154217714Y-90228057D01*
X154217714Y-90228057D02*
X154265333Y-90323295D01*
X154265333Y-90323295D02*
X154265333Y-90466152D01*
X154265333Y-90466152D02*
X154217714Y-90561390D01*
X154217714Y-90561390D02*
X154170095Y-90609009D01*
X154170095Y-90609009D02*
X154074857Y-90656628D01*
X154074857Y-90656628D02*
X153693905Y-90656628D01*
X154836762Y-90561390D02*
X154741524Y-90513771D01*
X154741524Y-90513771D02*
X154693905Y-90466152D01*
X154693905Y-90466152D02*
X154646286Y-90370914D01*
X154646286Y-90370914D02*
X154646286Y-90323295D01*
X154646286Y-90323295D02*
X154693905Y-90228057D01*
X154693905Y-90228057D02*
X154741524Y-90180438D01*
X154741524Y-90180438D02*
X154836762Y-90132819D01*
X154836762Y-90132819D02*
X155027238Y-90132819D01*
X155027238Y-90132819D02*
X155122476Y-90180438D01*
X155122476Y-90180438D02*
X155170095Y-90228057D01*
X155170095Y-90228057D02*
X155217714Y-90323295D01*
X155217714Y-90323295D02*
X155217714Y-90370914D01*
X155217714Y-90370914D02*
X155170095Y-90466152D01*
X155170095Y-90466152D02*
X155122476Y-90513771D01*
X155122476Y-90513771D02*
X155027238Y-90561390D01*
X155027238Y-90561390D02*
X154836762Y-90561390D01*
X154836762Y-90561390D02*
X154741524Y-90609009D01*
X154741524Y-90609009D02*
X154693905Y-90656628D01*
X154693905Y-90656628D02*
X154646286Y-90751866D01*
X154646286Y-90751866D02*
X154646286Y-90942342D01*
X154646286Y-90942342D02*
X154693905Y-91037580D01*
X154693905Y-91037580D02*
X154741524Y-91085200D01*
X154741524Y-91085200D02*
X154836762Y-91132819D01*
X154836762Y-91132819D02*
X155027238Y-91132819D01*
X155027238Y-91132819D02*
X155122476Y-91085200D01*
X155122476Y-91085200D02*
X155170095Y-91037580D01*
X155170095Y-91037580D02*
X155217714Y-90942342D01*
X155217714Y-90942342D02*
X155217714Y-90751866D01*
X155217714Y-90751866D02*
X155170095Y-90656628D01*
X155170095Y-90656628D02*
X155122476Y-90609009D01*
X155122476Y-90609009D02*
X155027238Y-90561390D01*
X171334819Y-76142857D02*
X170858628Y-76476190D01*
X171334819Y-76714285D02*
X170334819Y-76714285D01*
X170334819Y-76714285D02*
X170334819Y-76333333D01*
X170334819Y-76333333D02*
X170382438Y-76238095D01*
X170382438Y-76238095D02*
X170430057Y-76190476D01*
X170430057Y-76190476D02*
X170525295Y-76142857D01*
X170525295Y-76142857D02*
X170668152Y-76142857D01*
X170668152Y-76142857D02*
X170763390Y-76190476D01*
X170763390Y-76190476D02*
X170811009Y-76238095D01*
X170811009Y-76238095D02*
X170858628Y-76333333D01*
X170858628Y-76333333D02*
X170858628Y-76714285D01*
X171334819Y-75190476D02*
X171334819Y-75761904D01*
X171334819Y-75476190D02*
X170334819Y-75476190D01*
X170334819Y-75476190D02*
X170477676Y-75571428D01*
X170477676Y-75571428D02*
X170572914Y-75666666D01*
X170572914Y-75666666D02*
X170620533Y-75761904D01*
X170430057Y-74809523D02*
X170382438Y-74761904D01*
X170382438Y-74761904D02*
X170334819Y-74666666D01*
X170334819Y-74666666D02*
X170334819Y-74428571D01*
X170334819Y-74428571D02*
X170382438Y-74333333D01*
X170382438Y-74333333D02*
X170430057Y-74285714D01*
X170430057Y-74285714D02*
X170525295Y-74238095D01*
X170525295Y-74238095D02*
X170620533Y-74238095D01*
X170620533Y-74238095D02*
X170763390Y-74285714D01*
X170763390Y-74285714D02*
X171334819Y-74857142D01*
X171334819Y-74857142D02*
X171334819Y-74238095D01*
X171333333Y-94522080D02*
X171285714Y-94569700D01*
X171285714Y-94569700D02*
X171142857Y-94617319D01*
X171142857Y-94617319D02*
X171047619Y-94617319D01*
X171047619Y-94617319D02*
X170904762Y-94569700D01*
X170904762Y-94569700D02*
X170809524Y-94474461D01*
X170809524Y-94474461D02*
X170761905Y-94379223D01*
X170761905Y-94379223D02*
X170714286Y-94188747D01*
X170714286Y-94188747D02*
X170714286Y-94045890D01*
X170714286Y-94045890D02*
X170761905Y-93855414D01*
X170761905Y-93855414D02*
X170809524Y-93760176D01*
X170809524Y-93760176D02*
X170904762Y-93664938D01*
X170904762Y-93664938D02*
X171047619Y-93617319D01*
X171047619Y-93617319D02*
X171142857Y-93617319D01*
X171142857Y-93617319D02*
X171285714Y-93664938D01*
X171285714Y-93664938D02*
X171333333Y-93712557D01*
X172190476Y-93617319D02*
X172000000Y-93617319D01*
X172000000Y-93617319D02*
X171904762Y-93664938D01*
X171904762Y-93664938D02*
X171857143Y-93712557D01*
X171857143Y-93712557D02*
X171761905Y-93855414D01*
X171761905Y-93855414D02*
X171714286Y-94045890D01*
X171714286Y-94045890D02*
X171714286Y-94426842D01*
X171714286Y-94426842D02*
X171761905Y-94522080D01*
X171761905Y-94522080D02*
X171809524Y-94569700D01*
X171809524Y-94569700D02*
X171904762Y-94617319D01*
X171904762Y-94617319D02*
X172095238Y-94617319D01*
X172095238Y-94617319D02*
X172190476Y-94569700D01*
X172190476Y-94569700D02*
X172238095Y-94522080D01*
X172238095Y-94522080D02*
X172285714Y-94426842D01*
X172285714Y-94426842D02*
X172285714Y-94188747D01*
X172285714Y-94188747D02*
X172238095Y-94093509D01*
X172238095Y-94093509D02*
X172190476Y-94045890D01*
X172190476Y-94045890D02*
X172095238Y-93998271D01*
X172095238Y-93998271D02*
X171904762Y-93998271D01*
X171904762Y-93998271D02*
X171809524Y-94045890D01*
X171809524Y-94045890D02*
X171761905Y-94093509D01*
X171761905Y-94093509D02*
X171714286Y-94188747D01*
X187834819Y-65242857D02*
X187358628Y-65576190D01*
X187834819Y-65814285D02*
X186834819Y-65814285D01*
X186834819Y-65814285D02*
X186834819Y-65433333D01*
X186834819Y-65433333D02*
X186882438Y-65338095D01*
X186882438Y-65338095D02*
X186930057Y-65290476D01*
X186930057Y-65290476D02*
X187025295Y-65242857D01*
X187025295Y-65242857D02*
X187168152Y-65242857D01*
X187168152Y-65242857D02*
X187263390Y-65290476D01*
X187263390Y-65290476D02*
X187311009Y-65338095D01*
X187311009Y-65338095D02*
X187358628Y-65433333D01*
X187358628Y-65433333D02*
X187358628Y-65814285D01*
X187834819Y-64290476D02*
X187834819Y-64861904D01*
X187834819Y-64576190D02*
X186834819Y-64576190D01*
X186834819Y-64576190D02*
X186977676Y-64671428D01*
X186977676Y-64671428D02*
X187072914Y-64766666D01*
X187072914Y-64766666D02*
X187120533Y-64861904D01*
X187834819Y-63338095D02*
X187834819Y-63909523D01*
X187834819Y-63623809D02*
X186834819Y-63623809D01*
X186834819Y-63623809D02*
X186977676Y-63719047D01*
X186977676Y-63719047D02*
X187072914Y-63814285D01*
X187072914Y-63814285D02*
X187120533Y-63909523D01*
X179908333Y-110672080D02*
X179860714Y-110719700D01*
X179860714Y-110719700D02*
X179717857Y-110767319D01*
X179717857Y-110767319D02*
X179622619Y-110767319D01*
X179622619Y-110767319D02*
X179479762Y-110719700D01*
X179479762Y-110719700D02*
X179384524Y-110624461D01*
X179384524Y-110624461D02*
X179336905Y-110529223D01*
X179336905Y-110529223D02*
X179289286Y-110338747D01*
X179289286Y-110338747D02*
X179289286Y-110195890D01*
X179289286Y-110195890D02*
X179336905Y-110005414D01*
X179336905Y-110005414D02*
X179384524Y-109910176D01*
X179384524Y-109910176D02*
X179479762Y-109814938D01*
X179479762Y-109814938D02*
X179622619Y-109767319D01*
X179622619Y-109767319D02*
X179717857Y-109767319D01*
X179717857Y-109767319D02*
X179860714Y-109814938D01*
X179860714Y-109814938D02*
X179908333Y-109862557D01*
X180765476Y-110100652D02*
X180765476Y-110767319D01*
X180527381Y-109719700D02*
X180289286Y-110433985D01*
X180289286Y-110433985D02*
X180908333Y-110433985D01*
X191474819Y-70091666D02*
X190998628Y-70424999D01*
X191474819Y-70663094D02*
X190474819Y-70663094D01*
X190474819Y-70663094D02*
X190474819Y-70282142D01*
X190474819Y-70282142D02*
X190522438Y-70186904D01*
X190522438Y-70186904D02*
X190570057Y-70139285D01*
X190570057Y-70139285D02*
X190665295Y-70091666D01*
X190665295Y-70091666D02*
X190808152Y-70091666D01*
X190808152Y-70091666D02*
X190903390Y-70139285D01*
X190903390Y-70139285D02*
X190951009Y-70186904D01*
X190951009Y-70186904D02*
X190998628Y-70282142D01*
X190998628Y-70282142D02*
X190998628Y-70663094D01*
X190474819Y-69758332D02*
X190474819Y-69091666D01*
X190474819Y-69091666D02*
X191474819Y-69520237D01*
X191474819Y-60042857D02*
X190998628Y-60376190D01*
X191474819Y-60614285D02*
X190474819Y-60614285D01*
X190474819Y-60614285D02*
X190474819Y-60233333D01*
X190474819Y-60233333D02*
X190522438Y-60138095D01*
X190522438Y-60138095D02*
X190570057Y-60090476D01*
X190570057Y-60090476D02*
X190665295Y-60042857D01*
X190665295Y-60042857D02*
X190808152Y-60042857D01*
X190808152Y-60042857D02*
X190903390Y-60090476D01*
X190903390Y-60090476D02*
X190951009Y-60138095D01*
X190951009Y-60138095D02*
X190998628Y-60233333D01*
X190998628Y-60233333D02*
X190998628Y-60614285D01*
X191474819Y-59090476D02*
X191474819Y-59661904D01*
X191474819Y-59376190D02*
X190474819Y-59376190D01*
X190474819Y-59376190D02*
X190617676Y-59471428D01*
X190617676Y-59471428D02*
X190712914Y-59566666D01*
X190712914Y-59566666D02*
X190760533Y-59661904D01*
X190474819Y-58471428D02*
X190474819Y-58376190D01*
X190474819Y-58376190D02*
X190522438Y-58280952D01*
X190522438Y-58280952D02*
X190570057Y-58233333D01*
X190570057Y-58233333D02*
X190665295Y-58185714D01*
X190665295Y-58185714D02*
X190855771Y-58138095D01*
X190855771Y-58138095D02*
X191093866Y-58138095D01*
X191093866Y-58138095D02*
X191284342Y-58185714D01*
X191284342Y-58185714D02*
X191379580Y-58233333D01*
X191379580Y-58233333D02*
X191427200Y-58280952D01*
X191427200Y-58280952D02*
X191474819Y-58376190D01*
X191474819Y-58376190D02*
X191474819Y-58471428D01*
X191474819Y-58471428D02*
X191427200Y-58566666D01*
X191427200Y-58566666D02*
X191379580Y-58614285D01*
X191379580Y-58614285D02*
X191284342Y-58661904D01*
X191284342Y-58661904D02*
X191093866Y-58709523D01*
X191093866Y-58709523D02*
X190855771Y-58709523D01*
X190855771Y-58709523D02*
X190665295Y-58661904D01*
X190665295Y-58661904D02*
X190570057Y-58614285D01*
X190570057Y-58614285D02*
X190522438Y-58566666D01*
X190522438Y-58566666D02*
X190474819Y-58471428D01*
X179908333Y-106531580D02*
X179860714Y-106579200D01*
X179860714Y-106579200D02*
X179717857Y-106626819D01*
X179717857Y-106626819D02*
X179622619Y-106626819D01*
X179622619Y-106626819D02*
X179479762Y-106579200D01*
X179479762Y-106579200D02*
X179384524Y-106483961D01*
X179384524Y-106483961D02*
X179336905Y-106388723D01*
X179336905Y-106388723D02*
X179289286Y-106198247D01*
X179289286Y-106198247D02*
X179289286Y-106055390D01*
X179289286Y-106055390D02*
X179336905Y-105864914D01*
X179336905Y-105864914D02*
X179384524Y-105769676D01*
X179384524Y-105769676D02*
X179479762Y-105674438D01*
X179479762Y-105674438D02*
X179622619Y-105626819D01*
X179622619Y-105626819D02*
X179717857Y-105626819D01*
X179717857Y-105626819D02*
X179860714Y-105674438D01*
X179860714Y-105674438D02*
X179908333Y-105722057D01*
X180241667Y-105626819D02*
X180908333Y-105626819D01*
X180908333Y-105626819D02*
X180479762Y-106626819D01*
D16*
%TO.C,C10*%
X188290000Y-76236252D02*
X188290000Y-74813748D01*
X190110000Y-76236252D02*
X190110000Y-74813748D01*
D14*
%TO.C,U1*%
X169500000Y-98032500D02*
X169500000Y-98512500D01*
X169500000Y-98032500D02*
X173650000Y-98032500D01*
X169500000Y-108192500D02*
X169500000Y-107712500D01*
X169500000Y-108192500D02*
X173650000Y-108192500D01*
X173650000Y-98032500D02*
X173650000Y-98512500D01*
X173650000Y-108192500D02*
X173650000Y-107712500D01*
D16*
X168937500Y-98512500D02*
X168697500Y-98182500D01*
X169177500Y-98182500D01*
X168937500Y-98512500D01*
G36*
X168937500Y-98512500D02*
G01*
X168697500Y-98182500D01*
X169177500Y-98182500D01*
X168937500Y-98512500D01*
G37*
%TO.C,R4*%
X161712936Y-111580000D02*
X163167064Y-111580000D01*
X161712936Y-113400000D02*
X163167064Y-113400000D01*
%TO.C,C1*%
X163148752Y-95402500D02*
X161726248Y-95402500D01*
X163148752Y-97222500D02*
X161726248Y-97222500D01*
%TO.C,U4*%
X181183000Y-72964000D02*
X179233000Y-72964000D01*
X181183000Y-72964000D02*
X183133000Y-72964000D01*
X181183000Y-78084000D02*
X179233000Y-78084000D01*
X181183000Y-78084000D02*
X183133000Y-78084000D01*
X178483000Y-73059000D02*
X178243000Y-72729000D01*
X178723000Y-72729000D01*
X178483000Y-73059000D01*
G36*
X178483000Y-73059000D02*
G01*
X178243000Y-72729000D01*
X178723000Y-72729000D01*
X178483000Y-73059000D01*
G37*
%TO.C,R1*%
X163164564Y-107402500D02*
X161710436Y-107402500D01*
X163164564Y-109222500D02*
X161710436Y-109222500D01*
%TO.C,R5*%
X179347936Y-95402500D02*
X180802064Y-95402500D01*
X179347936Y-97222500D02*
X180802064Y-97222500D01*
%TO.C,R2*%
X172427064Y-111602500D02*
X170972936Y-111602500D01*
X172427064Y-113422500D02*
X170972936Y-113422500D01*
D13*
%TO.C,Y1*%
X164000000Y-86000000D02*
X164000000Y-86000000D01*
X164100000Y-86000000D02*
X164100000Y-86000000D01*
D10*
X166300000Y-83600000D02*
X177700000Y-83600000D01*
X166300000Y-84600000D02*
X166300000Y-83600000D01*
X166300000Y-88400000D02*
X166300000Y-87400000D01*
X177700000Y-83600000D02*
X177700000Y-84600000D01*
X177700000Y-87400000D02*
X177700000Y-88400000D01*
X177700000Y-88400000D02*
X166300000Y-88400000D01*
D13*
X164000000Y-86000000D02*
G75*
G02*
X164100000Y-86000000I50000J0D01*
G01*
X164100000Y-86000000D02*
G75*
G02*
X164000000Y-86000000I-50000J0D01*
G01*
D16*
%TO.C,C3*%
X163148752Y-103402500D02*
X161726248Y-103402500D01*
X163148752Y-105222500D02*
X161726248Y-105222500D01*
%TO.C,D7*%
X197725000Y-54890000D02*
X197725000Y-58950000D01*
X199995000Y-54890000D02*
X197725000Y-54890000D01*
X199995000Y-58950000D02*
X199995000Y-54890000D01*
%TO.C,R6*%
X180802064Y-91402500D02*
X179347936Y-91402500D01*
X180802064Y-93222500D02*
X179347936Y-93222500D01*
%TO.C,J2*%
X137670000Y-107030000D02*
X137670000Y-99350000D01*
X140330000Y-99350000D02*
X137670000Y-99350000D01*
X140330000Y-107030000D02*
X137670000Y-107030000D01*
X140330000Y-107030000D02*
X140330000Y-99350000D01*
X140330000Y-108300000D02*
X140330000Y-109630000D01*
X140330000Y-109630000D02*
X139000000Y-109630000D01*
D17*
%TO.C,G\u002A\u002A\u002A*%
G36*
X115145024Y-29394426D02*
G01*
X115205006Y-29457752D01*
X115224649Y-29537526D01*
X115199397Y-29623226D01*
X115134693Y-29683631D01*
X115047113Y-29713216D01*
X114953237Y-29706456D01*
X114869641Y-29657823D01*
X114868158Y-29656357D01*
X114816058Y-29575503D01*
X114818121Y-29552081D01*
X114882928Y-29552081D01*
X114890567Y-29589514D01*
X114929412Y-29621419D01*
X114994836Y-29620400D01*
X115043306Y-29599485D01*
X115071562Y-29557302D01*
X115055174Y-29511758D01*
X115004632Y-29481641D01*
X114975543Y-29478111D01*
X114906640Y-29498187D01*
X114882928Y-29552081D01*
X114818121Y-29552081D01*
X114823148Y-29495026D01*
X114877500Y-29423874D01*
X114965613Y-29372361D01*
X115060007Y-29364253D01*
X115145024Y-29394426D01*
G37*
G36*
X115334144Y-30034646D02*
G01*
X115413402Y-30091406D01*
X115456600Y-30170181D01*
X115457912Y-30258021D01*
X115411515Y-30341979D01*
X115384035Y-30367183D01*
X115275765Y-30420692D01*
X115165854Y-30418934D01*
X115066635Y-30362340D01*
X115059907Y-30355836D01*
X115001049Y-30264451D01*
X114996524Y-30203275D01*
X115063052Y-30203275D01*
X115063923Y-30261597D01*
X115104436Y-30296373D01*
X115174143Y-30310520D01*
X115247065Y-30303671D01*
X115297222Y-30275457D01*
X115303174Y-30264984D01*
X115299957Y-30203275D01*
X115253974Y-30152952D01*
X115181541Y-30131686D01*
X115180088Y-30131678D01*
X115105630Y-30152282D01*
X115063052Y-30203275D01*
X114996524Y-30203275D01*
X114994223Y-30172173D01*
X115033528Y-30091289D01*
X115113061Y-30034087D01*
X115224649Y-30012848D01*
X115334144Y-30034646D01*
G37*
G36*
X119576813Y-41168052D02*
G01*
X119584721Y-41979508D01*
X119586723Y-42226205D01*
X119587144Y-42420832D01*
X119585653Y-42570719D01*
X119581920Y-42683200D01*
X119575614Y-42765606D01*
X119566403Y-42825268D01*
X119553956Y-42869519D01*
X119543406Y-42894694D01*
X119454369Y-43019394D01*
X119328296Y-43113851D01*
X119184402Y-43163934D01*
X119175549Y-43165229D01*
X119054282Y-43181494D01*
X119063033Y-42335918D01*
X119065673Y-42089895D01*
X119068328Y-41896036D01*
X119071626Y-41747094D01*
X119076194Y-41635819D01*
X119082661Y-41554965D01*
X119091652Y-41497283D01*
X119103796Y-41455525D01*
X119119720Y-41422444D01*
X119140052Y-41390791D01*
X119145543Y-41382768D01*
X119226767Y-41291657D01*
X119327483Y-41216608D01*
X119429532Y-41168783D01*
X119510210Y-41158591D01*
X119576813Y-41168052D01*
G37*
G36*
X115500804Y-30759858D02*
G01*
X115592323Y-30811527D01*
X115593588Y-30812705D01*
X115659311Y-30905501D01*
X115672630Y-31000696D01*
X115639140Y-31087788D01*
X115564435Y-31156276D01*
X115454108Y-31195658D01*
X115386676Y-31201152D01*
X115293998Y-31192593D01*
X115228697Y-31157588D01*
X115180689Y-31107325D01*
X115124008Y-31006104D01*
X115124335Y-30993881D01*
X115195508Y-30993881D01*
X115222318Y-31055627D01*
X115285790Y-31099404D01*
X115350907Y-31111126D01*
X115409327Y-31091920D01*
X115462991Y-31051933D01*
X115501201Y-30985291D01*
X115491245Y-30924056D01*
X115444189Y-30878326D01*
X115371096Y-30858197D01*
X115283031Y-30873765D01*
X115272624Y-30878218D01*
X115210548Y-30929600D01*
X115195508Y-30993881D01*
X115124335Y-30993881D01*
X115126658Y-30907055D01*
X115188679Y-30809303D01*
X115194742Y-30802997D01*
X115278981Y-30755032D01*
X115388679Y-30740840D01*
X115500804Y-30759858D01*
G37*
G36*
X115615091Y-31592836D02*
G01*
X115676363Y-31615092D01*
X115725300Y-31662819D01*
X115727522Y-31665626D01*
X115781201Y-31769604D01*
X115775594Y-31869944D01*
X115722252Y-31954828D01*
X115620194Y-32026330D01*
X115498004Y-32047011D01*
X115382953Y-32019722D01*
X115283176Y-31951449D01*
X115232491Y-31862576D01*
X115232788Y-31836753D01*
X115313772Y-31836753D01*
X115338768Y-31902253D01*
X115404307Y-31939546D01*
X115496218Y-31943586D01*
X115563857Y-31925810D01*
X115600124Y-31883463D01*
X115610848Y-31822399D01*
X115597913Y-31754864D01*
X115548800Y-31721869D01*
X115534389Y-31717831D01*
X115438970Y-31714375D01*
X115361192Y-31747524D01*
X115317780Y-31808264D01*
X115313772Y-31836753D01*
X115232788Y-31836753D01*
X115233620Y-31764566D01*
X115289287Y-31668879D01*
X115297568Y-31660269D01*
X115360571Y-31612426D01*
X115438629Y-31591029D01*
X115518219Y-31587351D01*
X115615091Y-31592836D01*
G37*
G36*
X113000709Y-32465476D02*
G01*
X113212279Y-32522669D01*
X113409142Y-32626177D01*
X113583294Y-32775635D01*
X113723717Y-32965479D01*
X113818096Y-33165792D01*
X113870053Y-33375823D01*
X113880390Y-33605209D01*
X113849911Y-33863585D01*
X113812811Y-34034733D01*
X113758374Y-34215489D01*
X113692795Y-34349349D01*
X113608366Y-34448730D01*
X113513458Y-34516881D01*
X113301061Y-34617471D01*
X113079400Y-34679720D01*
X112861192Y-34702171D01*
X112659152Y-34683365D01*
X112506404Y-34632301D01*
X112366663Y-34545418D01*
X112217623Y-34421627D01*
X112075347Y-34277093D01*
X111955898Y-34127978D01*
X111881151Y-34003140D01*
X111837600Y-33900502D01*
X111812205Y-33805426D01*
X111803507Y-33724349D01*
X112343775Y-33724349D01*
X112357462Y-33896985D01*
X112396620Y-34064443D01*
X112455963Y-34215242D01*
X112530206Y-34337900D01*
X112614061Y-34420934D01*
X112677738Y-34449808D01*
X112825309Y-34464140D01*
X112999090Y-34454301D01*
X113172601Y-34423573D01*
X113319362Y-34375242D01*
X113333890Y-34368430D01*
X113517877Y-34248815D01*
X113666142Y-34085473D01*
X113744759Y-33955706D01*
X113784296Y-33859223D01*
X113805215Y-33748085D01*
X113811784Y-33607468D01*
X113797780Y-33410904D01*
X113747364Y-33247217D01*
X113653090Y-33099286D01*
X113538122Y-32977995D01*
X113368361Y-32853039D01*
X113175962Y-32777722D01*
X112952791Y-32749148D01*
X112894638Y-32748908D01*
X112751769Y-32754553D01*
X112655011Y-32770278D01*
X112591162Y-32802663D01*
X112547021Y-32858289D01*
X112510698Y-32940274D01*
X112457130Y-33102618D01*
X112409277Y-33286957D01*
X112371631Y-33472193D01*
X112348684Y-33637227D01*
X112343775Y-33724349D01*
X111803507Y-33724349D01*
X111800255Y-33694036D01*
X111797213Y-33577760D01*
X111809769Y-33350445D01*
X111854966Y-33158143D01*
X111938068Y-32983131D01*
X112002436Y-32887010D01*
X112167464Y-32707154D01*
X112357811Y-32575437D01*
X112565470Y-32491495D01*
X112782438Y-32454963D01*
X113000709Y-32465476D01*
G37*
G36*
X116774002Y-41176954D02*
G01*
X116857331Y-41188870D01*
X116923486Y-41209217D01*
X116959124Y-41225327D01*
X117043283Y-41284951D01*
X117124980Y-41371866D01*
X117192130Y-41469268D01*
X117232649Y-41560353D01*
X117238402Y-41613667D01*
X117232037Y-41635852D01*
X117214504Y-41651945D01*
X117177159Y-41663137D01*
X117111358Y-41670623D01*
X117008458Y-41675595D01*
X116859815Y-41679247D01*
X116748935Y-41681236D01*
X116569269Y-41684735D01*
X116440202Y-41688967D01*
X116352916Y-41695107D01*
X116298597Y-41704329D01*
X116268428Y-41717808D01*
X116253595Y-41736720D01*
X116249415Y-41747812D01*
X116240839Y-41804991D01*
X116264655Y-41840811D01*
X116329166Y-41859687D01*
X116442676Y-41866029D01*
X116472188Y-41866181D01*
X116590181Y-41870782D01*
X116695761Y-41882782D01*
X116760084Y-41897779D01*
X116868110Y-41959314D01*
X116968230Y-42051829D01*
X117047062Y-42159056D01*
X117091226Y-42264730D01*
X117096228Y-42306433D01*
X117083264Y-42341486D01*
X117040022Y-42367210D01*
X116959978Y-42384770D01*
X116836606Y-42395331D01*
X116663382Y-42400058D01*
X116568918Y-42400591D01*
X116264415Y-42400918D01*
X116262155Y-42586590D01*
X116248159Y-42765205D01*
X116207385Y-42904829D01*
X116134218Y-43021991D01*
X116101751Y-43058813D01*
X116009581Y-43136729D01*
X115903258Y-43198038D01*
X115805528Y-43230462D01*
X115779644Y-43232731D01*
X115766636Y-43222879D01*
X115755830Y-43189365D01*
X115746760Y-43126255D01*
X115738958Y-43027612D01*
X115731958Y-42887501D01*
X115725294Y-42699986D01*
X115718498Y-42459131D01*
X115718337Y-42452906D01*
X115712263Y-42196099D01*
X115709341Y-41991024D01*
X115710309Y-41830048D01*
X115715904Y-41705537D01*
X115726866Y-41609856D01*
X115743931Y-41535372D01*
X115767839Y-41474452D01*
X115799327Y-41419460D01*
X115821383Y-41387234D01*
X115900017Y-41302464D01*
X116002932Y-41241320D01*
X116138958Y-41200996D01*
X116316930Y-41178688D01*
X116499642Y-41171881D01*
X116659455Y-41171836D01*
X116774002Y-41176954D01*
G37*
G36*
X118297928Y-41154524D02*
G01*
X118411654Y-41159676D01*
X118492738Y-41170415D01*
X118554551Y-41188504D01*
X118609835Y-41215351D01*
X118702243Y-41285935D01*
X118784824Y-41381131D01*
X118845622Y-41483474D01*
X118872679Y-41575501D01*
X118872391Y-41598813D01*
X118863831Y-41673082D01*
X118373655Y-41687936D01*
X118192675Y-41693792D01*
X118062691Y-41699526D01*
X117975300Y-41706410D01*
X117922099Y-41715719D01*
X117894686Y-41728725D01*
X117884657Y-41746701D01*
X117883480Y-41762205D01*
X117889704Y-41793755D01*
X117916792Y-41812772D01*
X117977364Y-41823366D01*
X118084042Y-41829650D01*
X118091433Y-41829950D01*
X118286257Y-41852710D01*
X118436302Y-41906847D01*
X118550142Y-41997592D01*
X118636349Y-42130175D01*
X118656307Y-42174557D01*
X118684916Y-42249350D01*
X118693341Y-42302304D01*
X118674488Y-42337181D01*
X118621263Y-42357744D01*
X118526573Y-42367754D01*
X118383324Y-42370972D01*
X118285465Y-42371210D01*
X117898334Y-42371210D01*
X117898334Y-42519748D01*
X117898334Y-42668286D01*
X118211447Y-42668286D01*
X118407233Y-42674995D01*
X118556463Y-42697353D01*
X118670706Y-42738706D01*
X118761534Y-42802401D01*
X118796206Y-42837419D01*
X118837113Y-42898953D01*
X118877059Y-42984098D01*
X118908638Y-43072784D01*
X118924446Y-43144939D01*
X118921291Y-43176479D01*
X118887773Y-43184801D01*
X118804409Y-43191985D01*
X118680763Y-43197597D01*
X118526399Y-43201204D01*
X118350881Y-43202372D01*
X118349621Y-43202371D01*
X118147341Y-43201403D01*
X117994650Y-43198497D01*
X117881734Y-43192840D01*
X117798776Y-43183617D01*
X117735962Y-43170016D01*
X117683476Y-43151221D01*
X117672078Y-43146189D01*
X117575132Y-43085473D01*
X117484354Y-43002685D01*
X117464125Y-42978422D01*
X117378451Y-42866184D01*
X117369337Y-42226386D01*
X117367381Y-42033603D01*
X117367085Y-41857854D01*
X117368346Y-41708922D01*
X117371063Y-41596593D01*
X117375131Y-41530648D01*
X117376755Y-41520721D01*
X117423178Y-41425689D01*
X117507668Y-41326206D01*
X117613366Y-41240481D01*
X117663226Y-41211311D01*
X117723865Y-41185481D01*
X117794153Y-41168406D01*
X117887503Y-41158447D01*
X118017329Y-41153961D01*
X118138193Y-41153199D01*
X118297928Y-41154524D01*
G37*
G36*
X116412243Y-26404374D02*
G01*
X116614453Y-26407112D01*
X116776873Y-26412386D01*
X116909305Y-26420721D01*
X117021552Y-26432643D01*
X117123417Y-26448677D01*
X117170497Y-26457784D01*
X117655073Y-26573513D01*
X118111659Y-26719785D01*
X118557223Y-26903057D01*
X119008733Y-27129786D01*
X119164317Y-27216609D01*
X119422325Y-27378387D01*
X119704358Y-27580751D01*
X120000898Y-27815244D01*
X120302427Y-28073413D01*
X120599424Y-28346802D01*
X120882371Y-28626956D01*
X121141749Y-28905419D01*
X121368040Y-29173739D01*
X121368743Y-29174625D01*
X121782664Y-29743844D01*
X122154718Y-30353839D01*
X122483811Y-31002171D01*
X122768850Y-31686402D01*
X123008743Y-32404092D01*
X123202396Y-33152801D01*
X123248619Y-33369807D01*
X123277279Y-33510449D01*
X123304973Y-33645656D01*
X123327230Y-33753624D01*
X123333904Y-33785713D01*
X123351866Y-33888752D01*
X123374828Y-34049517D01*
X123402605Y-34266545D01*
X123435013Y-34538375D01*
X123471869Y-34863543D01*
X123488948Y-35018579D01*
X123499438Y-35148148D01*
X123508371Y-35325500D01*
X123515750Y-35542823D01*
X123521578Y-35792301D01*
X123525860Y-36066121D01*
X123528597Y-36356470D01*
X123529793Y-36655533D01*
X123529452Y-36955497D01*
X123527576Y-37248549D01*
X123524169Y-37526873D01*
X123519235Y-37782657D01*
X123512775Y-38008087D01*
X123504794Y-38195348D01*
X123495295Y-38336628D01*
X123487554Y-38405245D01*
X123422321Y-38820243D01*
X123360610Y-39177561D01*
X123302110Y-39478809D01*
X123246512Y-39725599D01*
X123202231Y-39890626D01*
X123170087Y-39999340D01*
X123130422Y-40133372D01*
X123097214Y-40245514D01*
X122989010Y-40564627D01*
X122850240Y-40902418D01*
X122690036Y-41239738D01*
X122517529Y-41557437D01*
X122341850Y-41836366D01*
X122331493Y-41851327D01*
X121941100Y-42368203D01*
X121527523Y-42830883D01*
X121090998Y-43239186D01*
X120631759Y-43592933D01*
X120150041Y-43891943D01*
X119646082Y-44136037D01*
X119120114Y-44325033D01*
X119086638Y-44334976D01*
X118972003Y-44368751D01*
X118867379Y-44399804D01*
X118804415Y-44418698D01*
X118721999Y-44439763D01*
X118592785Y-44467934D01*
X118428631Y-44500826D01*
X118241392Y-44536058D01*
X118061725Y-44568004D01*
X117883549Y-44592406D01*
X117660960Y-44612825D01*
X117404388Y-44629139D01*
X117124260Y-44641228D01*
X116831005Y-44648972D01*
X116535050Y-44652250D01*
X116246824Y-44650941D01*
X115976754Y-44644925D01*
X115735270Y-44634080D01*
X115532799Y-44618287D01*
X115388041Y-44598942D01*
X115198206Y-44564487D01*
X115045567Y-44535700D01*
X114908729Y-44508395D01*
X114766296Y-44478384D01*
X114712073Y-44466663D01*
X114481718Y-44416639D01*
X114325874Y-44554321D01*
X114230353Y-44628164D01*
X114108891Y-44707125D01*
X113975533Y-44783725D01*
X113844325Y-44850491D01*
X113729312Y-44899946D01*
X113644539Y-44924614D01*
X113627449Y-44926064D01*
X113568407Y-44938614D01*
X113546170Y-44955772D01*
X113509535Y-44970140D01*
X113429740Y-44980687D01*
X113323013Y-44985400D01*
X113306756Y-44985479D01*
X113195140Y-44981766D01*
X113117421Y-44971727D01*
X113085866Y-44957009D01*
X113085702Y-44955772D01*
X113060516Y-44932472D01*
X113018860Y-44925774D01*
X112916898Y-44905334D01*
X112787879Y-44850567D01*
X112645681Y-44770212D01*
X112504180Y-44673005D01*
X112377255Y-44567685D01*
X112371802Y-44561887D01*
X112743076Y-44561887D01*
X112744823Y-44596053D01*
X112800000Y-44631747D01*
X112892722Y-44671203D01*
X113110268Y-44737474D01*
X113321010Y-44755606D01*
X113541386Y-44725896D01*
X113684080Y-44685558D01*
X113779932Y-44648320D01*
X113887044Y-44597970D01*
X113991716Y-44542169D01*
X114080244Y-44488578D01*
X114138926Y-44444860D01*
X114155176Y-44422152D01*
X114129117Y-44372094D01*
X114059364Y-44310271D01*
X113958550Y-44243820D01*
X113839308Y-44179877D01*
X113714272Y-44125578D01*
X113596077Y-44088062D01*
X113546374Y-44078241D01*
X113482062Y-44072149D01*
X113430812Y-44081452D01*
X113376329Y-44113906D01*
X113302318Y-44177266D01*
X113263948Y-44212675D01*
X113146762Y-44308544D01*
X113008231Y-44403362D01*
X112901263Y-44464470D01*
X112795106Y-44520832D01*
X112743076Y-44561887D01*
X112371802Y-44561887D01*
X112278782Y-44462990D01*
X112273944Y-44456739D01*
X112156896Y-44255741D01*
X112081882Y-44017284D01*
X112050351Y-43747305D01*
X112051839Y-43669105D01*
X112254931Y-43669105D01*
X112260947Y-43784352D01*
X112272639Y-43899537D01*
X112289483Y-43999917D01*
X112295916Y-44026658D01*
X112333279Y-44139671D01*
X112380437Y-44247612D01*
X112401963Y-44286600D01*
X112459613Y-44357490D01*
X112527059Y-44387950D01*
X112615497Y-44378833D01*
X112736122Y-44330995D01*
X112769458Y-44314674D01*
X112883030Y-44252040D01*
X112992356Y-44182057D01*
X113085341Y-44113615D01*
X113149891Y-44055603D01*
X113173906Y-44017429D01*
X113154144Y-43984061D01*
X113100296Y-43920878D01*
X113021796Y-43838521D01*
X112969760Y-43787195D01*
X112852227Y-43680179D01*
X112764533Y-43615971D01*
X112700429Y-43590182D01*
X112687857Y-43589222D01*
X112616712Y-43578715D01*
X112518061Y-43551806D01*
X112454734Y-43529822D01*
X112365249Y-43497208D01*
X112298987Y-43475626D01*
X112276170Y-43470407D01*
X112262019Y-43497390D01*
X112255114Y-43568537D01*
X112254931Y-43669105D01*
X112051839Y-43669105D01*
X112053996Y-43555712D01*
X112061111Y-43435395D01*
X112059648Y-43355773D01*
X112045593Y-43298304D01*
X112014929Y-43244443D01*
X111974893Y-43190377D01*
X111911466Y-43099516D01*
X111859306Y-43011483D01*
X111843067Y-42977638D01*
X111791172Y-42902501D01*
X111725844Y-42853693D01*
X111625976Y-42797217D01*
X111493930Y-42705329D01*
X111338751Y-42585406D01*
X111169484Y-42444824D01*
X110995176Y-42290957D01*
X110824870Y-42131184D01*
X110753086Y-42060463D01*
X110389993Y-41655072D01*
X110064736Y-41204713D01*
X109948595Y-41004661D01*
X111545019Y-41004661D01*
X111562597Y-41349775D01*
X111621100Y-41719226D01*
X111717822Y-42097018D01*
X111743453Y-42178111D01*
X111811851Y-42374997D01*
X111886835Y-42570202D01*
X111962983Y-42751059D01*
X112034868Y-42904905D01*
X112097067Y-43019075D01*
X112116084Y-43048081D01*
X112184311Y-43127989D01*
X112273045Y-43210112D01*
X112367041Y-43282620D01*
X112451054Y-43333683D01*
X112507201Y-43351561D01*
X112529877Y-43323210D01*
X112549513Y-43243573D01*
X112561312Y-43151035D01*
X112571785Y-43010129D01*
X112578754Y-42859010D01*
X112580462Y-42768216D01*
X112599941Y-42586460D01*
X112656105Y-42367133D01*
X112746105Y-42117014D01*
X112777433Y-42046029D01*
X115449622Y-42046029D01*
X115451407Y-42300346D01*
X115453463Y-42460333D01*
X115456961Y-42681538D01*
X115460958Y-42885551D01*
X115465230Y-43064177D01*
X115469557Y-43209223D01*
X115473717Y-43312494D01*
X115477489Y-43365796D01*
X115478016Y-43369014D01*
X115520358Y-43439475D01*
X115606953Y-43482098D01*
X115728688Y-43495160D01*
X115876448Y-43476938D01*
X115949104Y-43458042D01*
X116142536Y-43370111D01*
X116303187Y-43236247D01*
X116424262Y-43063948D01*
X116498969Y-42860713D01*
X116501732Y-42848154D01*
X116539903Y-42668286D01*
X116758650Y-42663335D01*
X116873025Y-42660569D01*
X116968266Y-42657948D01*
X117024945Y-42656008D01*
X117027038Y-42655908D01*
X117060040Y-42670741D01*
X117086723Y-42725584D01*
X117110888Y-42824757D01*
X117179672Y-43026160D01*
X117295801Y-43198411D01*
X117451763Y-43333728D01*
X117640048Y-43424325D01*
X117707362Y-43442937D01*
X117805420Y-43456381D01*
X117960744Y-43464804D01*
X118173914Y-43468223D01*
X118445509Y-43466651D01*
X118554028Y-43464933D01*
X118780065Y-43460407D01*
X118955252Y-43455492D01*
X119088152Y-43449432D01*
X119187331Y-43441473D01*
X119261352Y-43430860D01*
X119318778Y-43416839D01*
X119368175Y-43398656D01*
X119383714Y-43391821D01*
X119573470Y-43279850D01*
X119714576Y-43136621D01*
X119788721Y-43011138D01*
X119808418Y-42967201D01*
X119824006Y-42924649D01*
X119835963Y-42876214D01*
X119844770Y-42814625D01*
X119850906Y-42732612D01*
X119854849Y-42622905D01*
X119857078Y-42478236D01*
X119858073Y-42291334D01*
X119858314Y-42054929D01*
X119858307Y-41955304D01*
X119857528Y-41673346D01*
X119855170Y-41446077D01*
X119851054Y-41268790D01*
X119844999Y-41136775D01*
X119836825Y-41045322D01*
X119826350Y-40989724D01*
X119820741Y-40974953D01*
X119789687Y-40930405D01*
X119741915Y-40905961D01*
X119659135Y-40893984D01*
X119620744Y-40891450D01*
X119411984Y-40901679D01*
X119230361Y-40960382D01*
X119090060Y-41049840D01*
X118963804Y-41149750D01*
X118832851Y-41049792D01*
X118717081Y-40977010D01*
X118585246Y-40927262D01*
X118426357Y-40898345D01*
X118229425Y-40888058D01*
X118043219Y-40891514D01*
X117802441Y-40911039D01*
X117615423Y-40948805D01*
X117479108Y-41005678D01*
X117397094Y-41074102D01*
X117339373Y-41117113D01*
X117271530Y-41110378D01*
X117184278Y-41052862D01*
X117180862Y-41050003D01*
X117105322Y-40997138D01*
X117016842Y-40959170D01*
X116905643Y-40934457D01*
X116761948Y-40921359D01*
X116575979Y-40918233D01*
X116413254Y-40921159D01*
X116218235Y-40928319D01*
X116070466Y-40940309D01*
X115957788Y-40961104D01*
X115868040Y-40994679D01*
X115789064Y-41045010D01*
X115708700Y-41116071D01*
X115656447Y-41168571D01*
X115598782Y-41231410D01*
X115552416Y-41293565D01*
X115516245Y-41362069D01*
X115489163Y-41443958D01*
X115470065Y-41546264D01*
X115457846Y-41676022D01*
X115451400Y-41840265D01*
X115449622Y-42046029D01*
X112777433Y-42046029D01*
X112867089Y-41842884D01*
X113016207Y-41551521D01*
X113190608Y-41249707D01*
X113276827Y-41111899D01*
X113357334Y-40984938D01*
X113424037Y-40877197D01*
X113471427Y-40797777D01*
X113493995Y-40755779D01*
X113494968Y-40751560D01*
X113464925Y-40737818D01*
X113827201Y-40737818D01*
X114043177Y-40720217D01*
X114155050Y-40709865D01*
X114246172Y-40699190D01*
X114297946Y-40690390D01*
X114299633Y-40689895D01*
X114321128Y-40664641D01*
X114296212Y-40624443D01*
X114233005Y-40577956D01*
X114161340Y-40542476D01*
X114068032Y-40508937D01*
X114006256Y-40509481D01*
X113955046Y-40550370D01*
X113906013Y-40618725D01*
X113827201Y-40737818D01*
X113464925Y-40737818D01*
X113455950Y-40733713D01*
X113373455Y-40704832D01*
X113261437Y-40669120D01*
X113133847Y-40630776D01*
X113004638Y-40594001D01*
X112887763Y-40562995D01*
X112802096Y-40542964D01*
X112662740Y-40521906D01*
X112491608Y-40507648D01*
X112304308Y-40500276D01*
X112116447Y-40499878D01*
X111943634Y-40506540D01*
X111801476Y-40520350D01*
X111719221Y-40536923D01*
X111651864Y-40560849D01*
X111604949Y-40592809D01*
X111574639Y-40643100D01*
X111557099Y-40722020D01*
X111548496Y-40839866D01*
X111545019Y-41004661D01*
X109948595Y-41004661D01*
X109777970Y-40710761D01*
X109571490Y-40263667D01*
X111808275Y-40263667D01*
X111835829Y-40275974D01*
X111909906Y-40285629D01*
X112017627Y-40291296D01*
X112083070Y-40292222D01*
X112260947Y-40298479D01*
X112464648Y-40315017D01*
X112674331Y-40339425D01*
X112870152Y-40369293D01*
X113032270Y-40402213D01*
X113070848Y-40412180D01*
X113214405Y-40454354D01*
X113345240Y-40497240D01*
X113447502Y-40535388D01*
X113499287Y-40559524D01*
X113591989Y-40586509D01*
X113679329Y-40566388D01*
X113716229Y-40536766D01*
X113804016Y-40405163D01*
X113853103Y-40248992D01*
X113867849Y-40063027D01*
X113863020Y-39944888D01*
X113849925Y-39853089D01*
X113832408Y-39806342D01*
X113760581Y-39751353D01*
X113646459Y-39698755D01*
X113507061Y-39654414D01*
X113359406Y-39624194D01*
X113278801Y-39615581D01*
X113040238Y-39617193D01*
X112812287Y-39657197D01*
X112575626Y-39739616D01*
X112482642Y-39781356D01*
X112373937Y-39838486D01*
X112251929Y-39911818D01*
X112127091Y-39993860D01*
X112009901Y-40077121D01*
X111910834Y-40154106D01*
X111840366Y-40217326D01*
X111808973Y-40259286D01*
X111808275Y-40263667D01*
X109571490Y-40263667D01*
X109530353Y-40174593D01*
X109322541Y-39597585D01*
X109155191Y-38981114D01*
X109059349Y-38509222D01*
X109011732Y-38185019D01*
X108974547Y-37818952D01*
X108947693Y-37420885D01*
X108931066Y-37000681D01*
X108924567Y-36568202D01*
X108928092Y-36133312D01*
X108941541Y-35705874D01*
X108964810Y-35295750D01*
X108970594Y-35228613D01*
X110399043Y-35228613D01*
X110399891Y-35445933D01*
X110402057Y-35618402D01*
X110405882Y-35753303D01*
X110411705Y-35857917D01*
X110419868Y-35939525D01*
X110430709Y-36005407D01*
X110444571Y-36062846D01*
X110451937Y-36088052D01*
X110486897Y-36206820D01*
X110519098Y-36323097D01*
X110535022Y-36385128D01*
X110562481Y-36485297D01*
X110599994Y-36604769D01*
X110642303Y-36728784D01*
X110684154Y-36842578D01*
X110720289Y-36931391D01*
X110745452Y-36980460D01*
X110748149Y-36983677D01*
X110766310Y-37028468D01*
X110768509Y-37052515D01*
X110781901Y-37095882D01*
X110818691Y-37181465D01*
X110873803Y-37299331D01*
X110942160Y-37439549D01*
X111018686Y-37592187D01*
X111098302Y-37747314D01*
X111175933Y-37894998D01*
X111246502Y-38025307D01*
X111304931Y-38128310D01*
X111346144Y-38194076D01*
X111361290Y-38212146D01*
X111390627Y-38249967D01*
X111401773Y-38271561D01*
X111435958Y-38336771D01*
X111478234Y-38404751D01*
X111511706Y-38448465D01*
X111513157Y-38449807D01*
X111537054Y-38480597D01*
X111583087Y-38546561D01*
X111637726Y-38628052D01*
X111698268Y-38710189D01*
X111789266Y-38821676D01*
X111899610Y-38949411D01*
X112018187Y-39080291D01*
X112050526Y-39114842D01*
X112173364Y-39246334D01*
X112260789Y-39344313D01*
X112319029Y-39417648D01*
X112354312Y-39475206D01*
X112372868Y-39525855D01*
X112380924Y-39578464D01*
X112381541Y-39586123D01*
X112388202Y-39630834D01*
X112409014Y-39626581D01*
X112437440Y-39600443D01*
X112509734Y-39557004D01*
X112627094Y-39515361D01*
X112775194Y-39479030D01*
X112939712Y-39451526D01*
X113106112Y-39436372D01*
X113263994Y-39432669D01*
X113389068Y-39440969D01*
X113507206Y-39463972D01*
X113587731Y-39486623D01*
X113799772Y-39573509D01*
X114023854Y-39706122D01*
X114247144Y-39876229D01*
X114372802Y-39990344D01*
X114458953Y-40081727D01*
X114552095Y-40193364D01*
X114644033Y-40313759D01*
X114726574Y-40431420D01*
X114791526Y-40534852D01*
X114830696Y-40612562D01*
X114838451Y-40643599D01*
X114849375Y-40666522D01*
X114890080Y-40675458D01*
X114972466Y-40671941D01*
X115021717Y-40667186D01*
X115120333Y-40654704D01*
X115193016Y-40641449D01*
X115221192Y-40631821D01*
X115220664Y-40597758D01*
X115208745Y-40576643D01*
X115134721Y-40472182D01*
X115090545Y-40395031D01*
X115068635Y-40326355D01*
X115061408Y-40247318D01*
X115060932Y-40209441D01*
X115059657Y-40161490D01*
X115227818Y-40161490D01*
X115228170Y-40248041D01*
X115246651Y-40323921D01*
X115261784Y-40347715D01*
X115303565Y-40365897D01*
X115385460Y-40372582D01*
X115511881Y-40367582D01*
X115687243Y-40350707D01*
X115915958Y-40321769D01*
X115937632Y-40318798D01*
X116433761Y-40241265D01*
X116872234Y-40153213D01*
X117253921Y-40054356D01*
X117579692Y-39944410D01*
X117850417Y-39823089D01*
X118066968Y-39690108D01*
X118199130Y-39577805D01*
X118293391Y-39471802D01*
X118335754Y-39391149D01*
X118325850Y-39331619D01*
X118263310Y-39288985D01*
X118171727Y-39263515D01*
X118098019Y-39260853D01*
X118017132Y-39287700D01*
X117936897Y-39332331D01*
X117621762Y-39502368D01*
X117261934Y-39656771D01*
X116871003Y-39791467D01*
X116462556Y-39902385D01*
X116050182Y-39985452D01*
X115647467Y-40036595D01*
X115566287Y-40042838D01*
X115438631Y-40054415D01*
X115333771Y-40069437D01*
X115265525Y-40085616D01*
X115247385Y-40095609D01*
X115227818Y-40161490D01*
X115059657Y-40161490D01*
X115058454Y-40116218D01*
X115043082Y-40060578D01*
X115002176Y-40020687D01*
X114925953Y-39976282D01*
X114814632Y-39903175D01*
X114746065Y-39821628D01*
X114707503Y-39712366D01*
X114693369Y-39624730D01*
X114689075Y-39589548D01*
X114873618Y-39589548D01*
X114885003Y-39701206D01*
X114935112Y-39779698D01*
X115016924Y-39815256D01*
X115036659Y-39816357D01*
X115092636Y-39810248D01*
X115192177Y-39793643D01*
X115320889Y-39769126D01*
X115455388Y-39741221D01*
X115983968Y-39618851D01*
X116454942Y-39491896D01*
X116869984Y-39359777D01*
X117230769Y-39221915D01*
X117538970Y-39077732D01*
X117779503Y-38937702D01*
X117920140Y-38835974D01*
X118020732Y-38742309D01*
X118077112Y-38661703D01*
X118085114Y-38599152D01*
X118075778Y-38582526D01*
X118005954Y-38535633D01*
X117900408Y-38523700D01*
X117754832Y-38546812D01*
X117603087Y-38591796D01*
X117479781Y-38635636D01*
X117399510Y-38671748D01*
X117348283Y-38709068D01*
X117312104Y-38756530D01*
X117294134Y-38789067D01*
X117262020Y-38841297D01*
X117219630Y-38886407D01*
X117158893Y-38928524D01*
X117071738Y-38971772D01*
X116950094Y-39020278D01*
X116785891Y-39078166D01*
X116620907Y-39133201D01*
X116231603Y-39248871D01*
X115834908Y-39343636D01*
X115452240Y-39412769D01*
X115224649Y-39441373D01*
X114883012Y-39475741D01*
X114873618Y-39589548D01*
X114689075Y-39589548D01*
X114675059Y-39474719D01*
X114244299Y-39455651D01*
X114061092Y-39444617D01*
X113871571Y-39428241D01*
X113696876Y-39408641D01*
X113558151Y-39387936D01*
X113546170Y-39385716D01*
X113340507Y-39339968D01*
X113125141Y-39280458D01*
X112910329Y-39211122D01*
X112706329Y-39135899D01*
X112523399Y-39058726D01*
X112371795Y-38983538D01*
X112261775Y-38914274D01*
X112219289Y-38876417D01*
X112161837Y-38792675D01*
X112090679Y-38656398D01*
X112007629Y-38472402D01*
X111914504Y-38245506D01*
X111813117Y-37980526D01*
X111705285Y-37682278D01*
X111592823Y-37355581D01*
X111477545Y-37005250D01*
X111361267Y-36636103D01*
X111302888Y-36444544D01*
X111254428Y-36284364D01*
X111208450Y-36133531D01*
X111169389Y-36006509D01*
X111141677Y-35917765D01*
X111141609Y-35917553D01*
X111292023Y-35917553D01*
X111303160Y-35977306D01*
X111321262Y-36034882D01*
X111352715Y-36136239D01*
X111393487Y-36268340D01*
X111439549Y-36418150D01*
X111452202Y-36459398D01*
X111562440Y-36812634D01*
X111672402Y-37153032D01*
X111780079Y-37475033D01*
X111883462Y-37773077D01*
X111980544Y-38041606D01*
X112069316Y-38275061D01*
X112147769Y-38467883D01*
X112213895Y-38614512D01*
X112264335Y-38707310D01*
X112340813Y-38786340D01*
X112467699Y-38870374D01*
X112636682Y-38955358D01*
X112839448Y-39037238D01*
X113067687Y-39111957D01*
X113130263Y-39129735D01*
X113328583Y-39182981D01*
X113497200Y-39224014D01*
X113649432Y-39254502D01*
X113798594Y-39276110D01*
X113958005Y-39290506D01*
X114140982Y-39299357D01*
X114360841Y-39304331D01*
X114541375Y-39306376D01*
X114784339Y-39306065D01*
X114984955Y-39299708D01*
X115160076Y-39286263D01*
X115326559Y-39264691D01*
X115393349Y-39253753D01*
X115610022Y-39212757D01*
X115841767Y-39162474D01*
X116078918Y-39105595D01*
X116311806Y-39044813D01*
X116530766Y-38982818D01*
X116726129Y-38922303D01*
X116888229Y-38865958D01*
X117007398Y-38816477D01*
X117054019Y-38791363D01*
X117092248Y-38749452D01*
X117147456Y-38666678D01*
X117211507Y-38556023D01*
X117261789Y-38459874D01*
X117390385Y-38209000D01*
X117397276Y-38196155D01*
X117606366Y-38196155D01*
X117620823Y-38213928D01*
X117672061Y-38193916D01*
X117743366Y-38152450D01*
X117830045Y-38085713D01*
X117859858Y-38023052D01*
X117834610Y-37959144D01*
X117815891Y-37938254D01*
X117754900Y-37877264D01*
X117678079Y-38028864D01*
X117626261Y-38135999D01*
X117606366Y-38196155D01*
X117397276Y-38196155D01*
X117525110Y-37957885D01*
X117658132Y-37720536D01*
X117781623Y-37510957D01*
X117876969Y-37359440D01*
X118009773Y-37157526D01*
X118044822Y-36682205D01*
X118074326Y-36338140D01*
X118112931Y-35974220D01*
X118158459Y-35607095D01*
X118208734Y-35253411D01*
X118261579Y-34929817D01*
X118302156Y-34714076D01*
X118311348Y-34648753D01*
X118292321Y-34622455D01*
X118230206Y-34617370D01*
X118221404Y-34617343D01*
X118121920Y-34603281D01*
X118036049Y-34572782D01*
X117963912Y-34542412D01*
X117901495Y-34527536D01*
X117869097Y-34532618D01*
X117868032Y-34535830D01*
X117863143Y-34566440D01*
X117850668Y-34641279D01*
X117833004Y-34746004D01*
X117827083Y-34780918D01*
X117805880Y-34906683D01*
X117778683Y-35069300D01*
X117749124Y-35246990D01*
X117723013Y-35404778D01*
X117694277Y-35577152D01*
X117664219Y-35754450D01*
X117636559Y-35914884D01*
X117616469Y-36028637D01*
X117592796Y-36165128D01*
X117570729Y-36301069D01*
X117554780Y-36408601D01*
X117553944Y-36414836D01*
X117536554Y-36519402D01*
X117510563Y-36601752D01*
X117466762Y-36680433D01*
X117395944Y-36773991D01*
X117345697Y-36834310D01*
X117209474Y-36969561D01*
X117072288Y-37050670D01*
X116925494Y-37082412D01*
X116894850Y-37083257D01*
X116821415Y-37080092D01*
X116771050Y-37065384D01*
X116742498Y-37031311D01*
X116734498Y-36970053D01*
X116745793Y-36873788D01*
X116775123Y-36734695D01*
X116813328Y-36576809D01*
X116849347Y-36426529D01*
X116878005Y-36297626D01*
X116897141Y-36200603D01*
X116904594Y-36145962D01*
X116903597Y-36138033D01*
X116871462Y-36140891D01*
X116793039Y-36158699D01*
X116678782Y-36188788D01*
X116539146Y-36228490D01*
X116477408Y-36246801D01*
X116325406Y-36291156D01*
X116189641Y-36328444D01*
X116082206Y-36355516D01*
X116015192Y-36369220D01*
X116003531Y-36370275D01*
X115942242Y-36386302D01*
X115917900Y-36407409D01*
X115910153Y-36449282D01*
X115904872Y-36538685D01*
X115902413Y-36663769D01*
X115903134Y-36812688D01*
X115904122Y-36864639D01*
X115913583Y-37284735D01*
X115814204Y-37316393D01*
X115650260Y-37362063D01*
X115465612Y-37402644D01*
X115270223Y-37437096D01*
X115074057Y-37464383D01*
X114887079Y-37483465D01*
X114719252Y-37493306D01*
X114580540Y-37492866D01*
X114480907Y-37481107D01*
X114433173Y-37460280D01*
X114423197Y-37426092D01*
X114407460Y-37343622D01*
X114403027Y-37316593D01*
X114963958Y-37316593D01*
X115001199Y-37319109D01*
X115082440Y-37309617D01*
X115212703Y-37287585D01*
X115347784Y-37262087D01*
X115477378Y-37234378D01*
X115585998Y-37206341D01*
X115659713Y-37181846D01*
X115683047Y-37168923D01*
X115693084Y-37147401D01*
X115655119Y-37151126D01*
X115640556Y-37154935D01*
X115579752Y-37169099D01*
X115477478Y-37190424D01*
X115350718Y-37215429D01*
X115275148Y-37229783D01*
X115150127Y-37254598D01*
X115048043Y-37277504D01*
X114982377Y-37295330D01*
X114965694Y-37302603D01*
X114963958Y-37316593D01*
X114403027Y-37316593D01*
X114387762Y-37223520D01*
X114365900Y-37076436D01*
X114354406Y-36993802D01*
X114327241Y-36806237D01*
X114303499Y-36671355D01*
X114281695Y-36582631D01*
X114260344Y-36533537D01*
X114246575Y-36520080D01*
X114199255Y-36505494D01*
X114107301Y-36485324D01*
X113984884Y-36462459D01*
X113872954Y-36443919D01*
X113731641Y-36421640D01*
X113604645Y-36401325D01*
X113508007Y-36385556D01*
X113464474Y-36378154D01*
X113382778Y-36363531D01*
X113382778Y-36798596D01*
X113381806Y-36972945D01*
X113378328Y-37096458D01*
X113371507Y-37177693D01*
X113360503Y-37225205D01*
X113344475Y-37247551D01*
X113338427Y-37250679D01*
X113289281Y-37252267D01*
X113195392Y-37241424D01*
X113069523Y-37220667D01*
X112924434Y-37192512D01*
X112772890Y-37159477D01*
X112627650Y-37124076D01*
X112501477Y-37088828D01*
X112474140Y-37080248D01*
X112371425Y-37041578D01*
X112288379Y-37000469D01*
X112253770Y-36974769D01*
X112744175Y-36974769D01*
X112751330Y-36985978D01*
X112801538Y-37004664D01*
X112879534Y-37026933D01*
X112970053Y-37048891D01*
X113057830Y-37066644D01*
X113127600Y-37076298D01*
X113145117Y-37077043D01*
X113154249Y-37070688D01*
X113113868Y-37054038D01*
X113032338Y-37030246D01*
X112996579Y-37021052D01*
X112886670Y-36995636D01*
X112798390Y-36978993D01*
X112748079Y-36974121D01*
X112744175Y-36974769D01*
X112253770Y-36974769D01*
X112247772Y-36970315D01*
X112215642Y-36905096D01*
X112182809Y-36789893D01*
X112151387Y-36634070D01*
X112123492Y-36446991D01*
X112116396Y-36388513D01*
X112096221Y-36213652D01*
X111885406Y-36117119D01*
X111697056Y-36031140D01*
X111555499Y-35967361D01*
X111458386Y-35924968D01*
X111886575Y-35924968D01*
X111889201Y-35936184D01*
X111930073Y-35963822D01*
X111993467Y-35999454D01*
X112063658Y-36034653D01*
X112124921Y-36060995D01*
X112157339Y-36070064D01*
X112191703Y-36054488D01*
X112194474Y-36043491D01*
X112169945Y-36018209D01*
X112142486Y-36013600D01*
X112079844Y-36000132D01*
X112005406Y-35969039D01*
X111935907Y-35937976D01*
X111887019Y-35924967D01*
X111886575Y-35924968D01*
X111458386Y-35924968D01*
X111453665Y-35922907D01*
X111384481Y-35894902D01*
X111340877Y-35880470D01*
X111315782Y-35876735D01*
X111303015Y-35880242D01*
X111292023Y-35917553D01*
X111141609Y-35917553D01*
X111136425Y-35901342D01*
X111120828Y-35848109D01*
X111652426Y-35848109D01*
X111691342Y-35872856D01*
X111704299Y-35879026D01*
X111779743Y-35909832D01*
X111821559Y-35919963D01*
X111822289Y-35909314D01*
X111778568Y-35880099D01*
X111708649Y-35848677D01*
X111659737Y-35837930D01*
X111652426Y-35848109D01*
X111120828Y-35848109D01*
X111106477Y-35799130D01*
X111105651Y-35786025D01*
X111521102Y-35786025D01*
X111525180Y-35803686D01*
X111540907Y-35805830D01*
X111565359Y-35794961D01*
X111560712Y-35786025D01*
X111525456Y-35782470D01*
X111521102Y-35786025D01*
X111105651Y-35786025D01*
X111102380Y-35734164D01*
X111113537Y-35715205D01*
X111320239Y-35715205D01*
X111362661Y-35741143D01*
X111438481Y-35768745D01*
X111469166Y-35770351D01*
X111450972Y-35746639D01*
X111427921Y-35729341D01*
X111366218Y-35699136D01*
X111324761Y-35696244D01*
X111320239Y-35715205D01*
X111113537Y-35715205D01*
X111129623Y-35687872D01*
X111193693Y-35641685D01*
X111217444Y-35627171D01*
X111339594Y-35553316D01*
X111320637Y-35241386D01*
X111310551Y-35070745D01*
X111299248Y-34872233D01*
X111288505Y-34677316D01*
X111283730Y-34587819D01*
X111274436Y-34434973D01*
X111266547Y-34359157D01*
X111367322Y-34359157D01*
X111372062Y-34417000D01*
X111380033Y-34499919D01*
X111390683Y-34628131D01*
X111402924Y-34787631D01*
X111415668Y-34964414D01*
X111423441Y-35077994D01*
X111437551Y-35272558D01*
X111450820Y-35415531D01*
X111464415Y-35514704D01*
X111479505Y-35577867D01*
X111497259Y-35612810D01*
X111504750Y-35620158D01*
X111558405Y-35652582D01*
X111587041Y-35641321D01*
X111594106Y-35581409D01*
X111587296Y-35501327D01*
X111563553Y-35313008D01*
X111536586Y-35116929D01*
X111507848Y-34921894D01*
X111478793Y-34736704D01*
X111450875Y-34570161D01*
X111425548Y-34431069D01*
X111404265Y-34328228D01*
X111388479Y-34270440D01*
X111382470Y-34261035D01*
X111369173Y-34287920D01*
X111367322Y-34359157D01*
X111266547Y-34359157D01*
X111263004Y-34325105D01*
X111245767Y-34241796D01*
X111219056Y-34168628D01*
X111179205Y-34089183D01*
X111167596Y-34067936D01*
X111082734Y-33862885D01*
X111029743Y-33623481D01*
X111009574Y-33366109D01*
X111017787Y-33209849D01*
X111127877Y-33209849D01*
X111130628Y-33335051D01*
X111132434Y-33369807D01*
X111163340Y-33623479D01*
X111224992Y-33839447D01*
X111314188Y-34008520D01*
X111377515Y-34097643D01*
X111383227Y-34008520D01*
X111384961Y-33978813D01*
X111585468Y-33978813D01*
X111593115Y-34379599D01*
X111616577Y-34729895D01*
X111656636Y-35036689D01*
X111714075Y-35306974D01*
X111746935Y-35422218D01*
X111805644Y-35587798D01*
X111869015Y-35707052D01*
X111947636Y-35792772D01*
X112052092Y-35857752D01*
X112137760Y-35894505D01*
X112273355Y-35948100D01*
X112365010Y-35993849D01*
X112422916Y-36045139D01*
X112457261Y-36115359D01*
X112478236Y-36217894D01*
X112495908Y-36365045D01*
X112518883Y-36530865D01*
X112545358Y-36653002D01*
X112573682Y-36724103D01*
X112577690Y-36729552D01*
X112622192Y-36757715D01*
X112707311Y-36792841D01*
X112817692Y-36830462D01*
X112937975Y-36866108D01*
X113052805Y-36895309D01*
X113146823Y-36913596D01*
X113204671Y-36916500D01*
X113211959Y-36914146D01*
X113220834Y-36881152D01*
X113228032Y-36801176D01*
X113232757Y-36686647D01*
X113234240Y-36565627D01*
X113235375Y-36415981D01*
X113240126Y-36312710D01*
X113250508Y-36242796D01*
X113268541Y-36193218D01*
X113284685Y-36168588D01*
X113418164Y-36168588D01*
X113418274Y-36194722D01*
X113458294Y-36224038D01*
X113555993Y-36247281D01*
X113637708Y-36257733D01*
X113771205Y-36273626D01*
X113930581Y-36295713D01*
X114083275Y-36319457D01*
X114095761Y-36321551D01*
X114212038Y-36341189D01*
X114304774Y-36356825D01*
X114359267Y-36365981D01*
X114366918Y-36367251D01*
X114398896Y-36349950D01*
X114422252Y-36326065D01*
X114438257Y-36304281D01*
X114440116Y-36287659D01*
X114420534Y-36274666D01*
X114372217Y-36263770D01*
X114287868Y-36253439D01*
X114160192Y-36242141D01*
X113981894Y-36228343D01*
X113943052Y-36225414D01*
X113784778Y-36212442D01*
X113644845Y-36199008D01*
X113535327Y-36186417D01*
X113468295Y-36175976D01*
X113456250Y-36172759D01*
X113418164Y-36168588D01*
X113284685Y-36168588D01*
X113296239Y-36150960D01*
X113299046Y-36147362D01*
X113363852Y-36064974D01*
X113648111Y-36083615D01*
X113795561Y-36095328D01*
X113957506Y-36111539D01*
X114121997Y-36130657D01*
X114277079Y-36151092D01*
X114410802Y-36171253D01*
X114511214Y-36189547D01*
X114566364Y-36204384D01*
X114570270Y-36206381D01*
X114586105Y-36243814D01*
X114597138Y-36322718D01*
X114600790Y-36414440D01*
X114604432Y-36522832D01*
X114614120Y-36657062D01*
X114627995Y-36799901D01*
X114644198Y-36934120D01*
X114660869Y-37042490D01*
X114675356Y-37105538D01*
X114711768Y-37127609D01*
X114794099Y-37139747D01*
X114909664Y-37141813D01*
X115045779Y-37133667D01*
X115189759Y-37115171D01*
X115211766Y-37111404D01*
X115325476Y-37089082D01*
X115429771Y-37065049D01*
X115480191Y-37051137D01*
X115572341Y-37022138D01*
X115599022Y-36571983D01*
X115618270Y-36247216D01*
X115765747Y-36247216D01*
X115776615Y-36275881D01*
X115834583Y-36276066D01*
X115934717Y-36247982D01*
X115959311Y-36239013D01*
X116065263Y-36202317D01*
X116209217Y-36156633D01*
X116371634Y-36107776D01*
X116532973Y-36061561D01*
X116673697Y-36023803D01*
X116724883Y-36011169D01*
X116815514Y-35986291D01*
X116882197Y-35961781D01*
X116901148Y-35950824D01*
X116919747Y-35918238D01*
X116892524Y-35904565D01*
X116830833Y-35912570D01*
X116793242Y-35924576D01*
X116730982Y-35944979D01*
X116623888Y-35977204D01*
X116484492Y-36017595D01*
X116325323Y-36062494D01*
X116236117Y-36087174D01*
X116079886Y-36131925D01*
X115945033Y-36174034D01*
X115841512Y-36210114D01*
X115779276Y-36236779D01*
X115765747Y-36247216D01*
X115618270Y-36247216D01*
X115625702Y-36121829D01*
X116234708Y-35965318D01*
X116418796Y-35918547D01*
X116585492Y-35877209D01*
X116725469Y-35843536D01*
X116829396Y-35819761D01*
X116887946Y-35808114D01*
X116895233Y-35807319D01*
X116949006Y-35825188D01*
X117018868Y-35871467D01*
X117037810Y-35887526D01*
X117128868Y-35969222D01*
X117080826Y-36162321D01*
X117053859Y-36269604D01*
X117030900Y-36358991D01*
X117017943Y-36407409D01*
X117018239Y-36450538D01*
X117031540Y-36459398D01*
X117064888Y-36431958D01*
X117111675Y-36354300D01*
X117169294Y-36233410D01*
X117235138Y-36076276D01*
X117306601Y-35889886D01*
X117381073Y-35681228D01*
X117455949Y-35457289D01*
X117528621Y-35225058D01*
X117596483Y-34991522D01*
X117641163Y-34825479D01*
X117737370Y-34454134D01*
X117682965Y-34246181D01*
X117618919Y-33887353D01*
X117615750Y-33719198D01*
X117798578Y-33719198D01*
X117807443Y-33914282D01*
X117826883Y-34084076D01*
X117836697Y-34136049D01*
X117864719Y-34245185D01*
X117900586Y-34316728D01*
X117958481Y-34365216D01*
X118052586Y-34405190D01*
X118121141Y-34427626D01*
X118212899Y-34455291D01*
X118261733Y-34464118D01*
X118281119Y-34453963D01*
X118284532Y-34425876D01*
X118277373Y-34375027D01*
X118258866Y-34288315D01*
X118239971Y-34211681D01*
X118210909Y-34043851D01*
X118197979Y-33839147D01*
X118197982Y-33838949D01*
X118347741Y-33838949D01*
X118362261Y-34032511D01*
X118372383Y-34085509D01*
X118414268Y-34252912D01*
X118453511Y-34364709D01*
X118494734Y-34424261D01*
X118542561Y-34434930D01*
X118601615Y-34400080D01*
X118676518Y-34323073D01*
X118685195Y-34313023D01*
X118838363Y-34090134D01*
X118943956Y-33840135D01*
X119000779Y-33573049D01*
X119007639Y-33298899D01*
X118963343Y-33027709D01*
X118868586Y-32773328D01*
X118818635Y-32679652D01*
X118774996Y-32611593D01*
X118746485Y-32582761D01*
X118745000Y-32582555D01*
X118712312Y-32608589D01*
X118665103Y-32679103D01*
X118609097Y-32782718D01*
X118550020Y-32908057D01*
X118493595Y-33043740D01*
X118446089Y-33176707D01*
X118391264Y-33391207D01*
X118357945Y-33618568D01*
X118347741Y-33838949D01*
X118197982Y-33838949D01*
X118201117Y-33617861D01*
X118220257Y-33400286D01*
X118243034Y-33261581D01*
X118279637Y-33123112D01*
X118335195Y-32960262D01*
X118399989Y-32800688D01*
X118421280Y-32754428D01*
X118476015Y-32637377D01*
X118519471Y-32539992D01*
X118546149Y-32474858D01*
X118551901Y-32455395D01*
X118528230Y-32427240D01*
X118468114Y-32384357D01*
X118428518Y-32360759D01*
X118305135Y-32291414D01*
X118219779Y-32392423D01*
X118153480Y-32486876D01*
X118076885Y-32620554D01*
X117998268Y-32776248D01*
X117925902Y-32936743D01*
X117868060Y-33084828D01*
X117835660Y-33191561D01*
X117812663Y-33336903D01*
X117800310Y-33519760D01*
X117798578Y-33719198D01*
X117615750Y-33719198D01*
X117612115Y-33526277D01*
X117661679Y-33170137D01*
X117766736Y-32826120D01*
X117886953Y-32570254D01*
X117953002Y-32457303D01*
X118022241Y-32350185D01*
X118076566Y-32276103D01*
X118124362Y-32214623D01*
X118144331Y-32167052D01*
X118140317Y-32109431D01*
X118117349Y-32021990D01*
X117957949Y-31542570D01*
X117761000Y-31096392D01*
X117529132Y-30687025D01*
X117264972Y-30318039D01*
X116971150Y-29993003D01*
X116650294Y-29715488D01*
X116305031Y-29489063D01*
X116298471Y-29485538D01*
X116699923Y-29485538D01*
X116738223Y-29506733D01*
X116750151Y-29507819D01*
X116789540Y-29529379D01*
X116859641Y-29588865D01*
X116953217Y-29678486D01*
X117063030Y-29790451D01*
X117181845Y-29916970D01*
X117302422Y-30050251D01*
X117417527Y-30182504D01*
X117519921Y-30305937D01*
X117602367Y-30412761D01*
X117637697Y-30463285D01*
X117918625Y-30941173D01*
X118154517Y-31457016D01*
X118292661Y-31839865D01*
X118336530Y-31972644D01*
X118370351Y-32061414D01*
X118402224Y-32118741D01*
X118440247Y-32157193D01*
X118492518Y-32189337D01*
X118530541Y-32209016D01*
X118723092Y-32338949D01*
X118880324Y-32509947D01*
X119001321Y-32714636D01*
X119085168Y-32945642D01*
X119130952Y-33195589D01*
X119137755Y-33457102D01*
X119104665Y-33722808D01*
X119030765Y-33985331D01*
X118915141Y-34237296D01*
X118803678Y-34410577D01*
X118708674Y-34517506D01*
X118613652Y-34584587D01*
X118595319Y-34592277D01*
X118539072Y-34618678D01*
X118497776Y-34658021D01*
X118465781Y-34721690D01*
X118437439Y-34821065D01*
X118407100Y-34967531D01*
X118405863Y-34974017D01*
X118369076Y-35187416D01*
X118330774Y-35445502D01*
X118292701Y-35733639D01*
X118256602Y-36037187D01*
X118224221Y-36341508D01*
X118197302Y-36631966D01*
X118178179Y-36884760D01*
X118165636Y-37041963D01*
X118150149Y-37153250D01*
X118128979Y-37232121D01*
X118099387Y-37292074D01*
X118093787Y-37300666D01*
X118042027Y-37380064D01*
X117977208Y-37482649D01*
X117935641Y-37549881D01*
X117841031Y-37704575D01*
X117926959Y-37765761D01*
X118014340Y-37863923D01*
X118063463Y-38004802D01*
X118073046Y-38183457D01*
X118071383Y-38274885D01*
X118084797Y-38328840D01*
X118122207Y-38366945D01*
X118158339Y-38390257D01*
X118263405Y-38471815D01*
X118321361Y-38567250D01*
X118339249Y-38691640D01*
X118335369Y-38769375D01*
X118323113Y-38875621D01*
X118308414Y-38965992D01*
X118299216Y-39004627D01*
X118295626Y-39051268D01*
X118325853Y-39093428D01*
X118395893Y-39143220D01*
X118504160Y-39239169D01*
X118579876Y-39361560D01*
X118611097Y-39490530D01*
X118611316Y-39501490D01*
X118616577Y-39558764D01*
X118627200Y-39578696D01*
X118658310Y-39564980D01*
X118728743Y-39528154D01*
X118826302Y-39474702D01*
X118887142Y-39440542D01*
X119413289Y-39113108D01*
X119898217Y-38748768D01*
X120345718Y-38343819D01*
X120759581Y-37894555D01*
X121143597Y-37397273D01*
X121445991Y-36939552D01*
X121528349Y-36802122D01*
X121612881Y-36654416D01*
X121694187Y-36506657D01*
X121766867Y-36369070D01*
X121825522Y-36251879D01*
X121864750Y-36165309D01*
X121879152Y-36119582D01*
X121879152Y-36119446D01*
X121891071Y-36085504D01*
X121921803Y-36015687D01*
X121951330Y-35952998D01*
X121996674Y-35849236D01*
X122032322Y-35750425D01*
X122043883Y-35708056D01*
X122064067Y-35632803D01*
X122084468Y-35583613D01*
X122084868Y-35583023D01*
X122101152Y-35541318D01*
X122125372Y-35458199D01*
X122152753Y-35350288D01*
X122157418Y-35330509D01*
X122186831Y-35206158D01*
X122214988Y-35090167D01*
X122236022Y-35006691D01*
X122236802Y-35003725D01*
X122261466Y-34881923D01*
X122284205Y-34718021D01*
X122303351Y-34529337D01*
X122317236Y-34333186D01*
X122324192Y-34146884D01*
X122324683Y-34091281D01*
X122321662Y-33945341D01*
X122313330Y-33784808D01*
X122300904Y-33621651D01*
X122285602Y-33467840D01*
X122268641Y-33335344D01*
X122251238Y-33236131D01*
X122234612Y-33182172D01*
X122231799Y-33178193D01*
X122210684Y-33127609D01*
X122205936Y-33085055D01*
X122195884Y-33012452D01*
X122169551Y-32904587D01*
X122132672Y-32781383D01*
X122090982Y-32662765D01*
X122068551Y-32607773D01*
X122040589Y-32534707D01*
X122027777Y-32483460D01*
X122027690Y-32481113D01*
X122014534Y-32428676D01*
X121999863Y-32396480D01*
X121976554Y-32351001D01*
X121933105Y-32264265D01*
X121875540Y-32148358D01*
X121809882Y-32015370D01*
X121803920Y-32003257D01*
X121560737Y-31573056D01*
X121274928Y-31184240D01*
X120946445Y-30836761D01*
X120575237Y-30530567D01*
X120161254Y-30265609D01*
X119996568Y-30177680D01*
X119842175Y-30100817D01*
X119694952Y-30030228D01*
X119566449Y-29971224D01*
X119468215Y-29929113D01*
X119413421Y-29909585D01*
X119331426Y-29885539D01*
X119238073Y-29853310D01*
X119190614Y-29834447D01*
X119107366Y-29805392D01*
X118978579Y-29769620D01*
X118817321Y-29730184D01*
X118636659Y-29690134D01*
X118449662Y-29652520D01*
X118284532Y-29622903D01*
X118128917Y-29596784D01*
X117976362Y-29570960D01*
X117847082Y-29548864D01*
X117777715Y-29536830D01*
X117681116Y-29525097D01*
X117544193Y-29515251D01*
X117386034Y-29508403D01*
X117242978Y-29505731D01*
X117082420Y-29502969D01*
X116977114Y-29496894D01*
X116928494Y-29487637D01*
X116932837Y-29477352D01*
X116951759Y-29462447D01*
X116918351Y-29456108D01*
X116839281Y-29457159D01*
X116756133Y-29464397D01*
X116706622Y-29476447D01*
X116699923Y-29485538D01*
X116298471Y-29485538D01*
X116217679Y-29442127D01*
X116070368Y-29371801D01*
X115914185Y-29306605D01*
X115758500Y-29249344D01*
X115612687Y-29202821D01*
X115486116Y-29169840D01*
X115388159Y-29153205D01*
X115328187Y-29155719D01*
X115313772Y-29171693D01*
X115331968Y-29206140D01*
X115370809Y-29253389D01*
X115429688Y-29332970D01*
X115501425Y-29454656D01*
X115579037Y-29604548D01*
X115655540Y-29768747D01*
X115723951Y-29933352D01*
X115755904Y-30019895D01*
X115877437Y-30425123D01*
X115969946Y-30864115D01*
X116034575Y-31343532D01*
X116071964Y-31858955D01*
X116092028Y-32293951D01*
X116214577Y-32349130D01*
X116435890Y-32480847D01*
X116627138Y-32661134D01*
X116783677Y-32884860D01*
X116876662Y-33080999D01*
X116922793Y-33252747D01*
X116946282Y-33461590D01*
X116948049Y-33690082D01*
X116929013Y-33920775D01*
X116890095Y-34136222D01*
X116832215Y-34318974D01*
X116808690Y-34369957D01*
X116727640Y-34477257D01*
X116600385Y-34583449D01*
X116439646Y-34679825D01*
X116258145Y-34757674D01*
X116227039Y-34768149D01*
X116088923Y-34805941D01*
X115961357Y-34822107D01*
X115811565Y-34820572D01*
X115796279Y-34819723D01*
X115681404Y-34810139D01*
X115586996Y-34792625D01*
X115493236Y-34761086D01*
X115380302Y-34709426D01*
X115291931Y-34664602D01*
X115045173Y-34513316D01*
X114848688Y-34338428D01*
X114695872Y-34133517D01*
X114640049Y-34030732D01*
X114603247Y-33951051D01*
X114579103Y-33880575D01*
X114564983Y-33803210D01*
X114563990Y-33788399D01*
X115309016Y-33788399D01*
X115310397Y-33939075D01*
X115317089Y-34048307D01*
X115331947Y-34134013D01*
X115357830Y-34214113D01*
X115388369Y-34286146D01*
X115440324Y-34389337D01*
X115494523Y-34477430D01*
X115532149Y-34523825D01*
X115625287Y-34574371D01*
X115759290Y-34597666D01*
X115922075Y-34593420D01*
X116101559Y-34561341D01*
X116179208Y-34539438D01*
X116390047Y-34444005D01*
X116568512Y-34305247D01*
X116710867Y-34131897D01*
X116813376Y-33932687D01*
X116872303Y-33716349D01*
X116883911Y-33491617D01*
X116844465Y-33267222D01*
X116786679Y-33119499D01*
X116669073Y-32942240D01*
X116507935Y-32789516D01*
X116315869Y-32667991D01*
X116105481Y-32584331D01*
X115889374Y-32545201D01*
X115712791Y-32551600D01*
X115632209Y-32569279D01*
X115585420Y-32603148D01*
X115550481Y-32671599D01*
X115541409Y-32695248D01*
X115449477Y-32954976D01*
X115383549Y-33178422D01*
X115340349Y-33381003D01*
X115316600Y-33578135D01*
X115309023Y-33785234D01*
X115309016Y-33788399D01*
X114563990Y-33788399D01*
X114558255Y-33702861D01*
X114556286Y-33563434D01*
X114556228Y-33518345D01*
X114557040Y-33369080D01*
X114561577Y-33262654D01*
X114572994Y-33182492D01*
X114594444Y-33112020D01*
X114629080Y-33034665D01*
X114659949Y-32973254D01*
X114810630Y-32736131D01*
X114995705Y-32545281D01*
X115211505Y-32403174D01*
X115454362Y-32312282D01*
X115694955Y-32276206D01*
X115838104Y-32264170D01*
X115924908Y-32246175D01*
X115957638Y-32223351D01*
X115962435Y-32175916D01*
X115962225Y-32080041D01*
X115957727Y-31946426D01*
X115949660Y-31785769D01*
X115938743Y-31608770D01*
X115925696Y-31426128D01*
X115911236Y-31248541D01*
X115896082Y-31086710D01*
X115880955Y-30951332D01*
X115866572Y-30853108D01*
X115864995Y-30844661D01*
X115758575Y-30392515D01*
X115622223Y-29987757D01*
X115453988Y-29625359D01*
X115282788Y-29344427D01*
X115203177Y-29233027D01*
X115136056Y-29159275D01*
X115066201Y-29116268D01*
X114978391Y-29097105D01*
X114857402Y-29094885D01*
X114743206Y-29099800D01*
X114349806Y-29149077D01*
X113970354Y-29255671D01*
X113604448Y-29419773D01*
X113251686Y-29641577D01*
X112911666Y-29921273D01*
X112802130Y-30026368D01*
X112615247Y-30222267D01*
X112462790Y-30407835D01*
X112330135Y-30603300D01*
X112202658Y-30828887D01*
X112155580Y-30920646D01*
X112066481Y-31106563D01*
X111988782Y-31289853D01*
X111918746Y-31481953D01*
X111852634Y-31694297D01*
X111786705Y-31938319D01*
X111717222Y-32225454D01*
X111689867Y-32344895D01*
X111669602Y-32462889D01*
X111650033Y-32629543D01*
X111631847Y-32834097D01*
X111615732Y-33065796D01*
X111602376Y-33313882D01*
X111592464Y-33567599D01*
X111586686Y-33816189D01*
X111585468Y-33978813D01*
X111384961Y-33978813D01*
X111386466Y-33953039D01*
X111392291Y-33848353D01*
X111400147Y-33704589D01*
X111409485Y-33531875D01*
X111419750Y-33340338D01*
X111423425Y-33271370D01*
X111432759Y-33081242D01*
X111439592Y-32911601D01*
X111443692Y-32771238D01*
X111444829Y-32668946D01*
X111442771Y-32613519D01*
X111440921Y-32606352D01*
X111400572Y-32601400D01*
X111347163Y-32643936D01*
X111287595Y-32725483D01*
X111228768Y-32837567D01*
X111203495Y-32897980D01*
X111160458Y-33016894D01*
X111136536Y-33112324D01*
X111127877Y-33209849D01*
X111017787Y-33209849D01*
X111023184Y-33107155D01*
X111071525Y-32863004D01*
X111093413Y-32793742D01*
X111140094Y-32670626D01*
X111184570Y-32589343D01*
X111239516Y-32534207D01*
X111317606Y-32489529D01*
X111351845Y-32473860D01*
X111428017Y-32434763D01*
X111468130Y-32390794D01*
X111488832Y-32319250D01*
X111495358Y-32278162D01*
X111520693Y-32142796D01*
X111559999Y-31975530D01*
X111607086Y-31800356D01*
X111655766Y-31641265D01*
X111671421Y-31595548D01*
X111693036Y-31517093D01*
X111696008Y-31464324D01*
X111690561Y-31454356D01*
X111661668Y-31468264D01*
X111604419Y-31517083D01*
X111528853Y-31590388D01*
X111445011Y-31677748D01*
X111362933Y-31768737D01*
X111292660Y-31852925D01*
X111247887Y-31914134D01*
X111194469Y-31989144D01*
X111151455Y-32041767D01*
X111104875Y-32103976D01*
X111054210Y-32186254D01*
X111047913Y-32197732D01*
X111008534Y-32262974D01*
X110978965Y-32298280D01*
X110974184Y-32300333D01*
X110953190Y-32325266D01*
X110920331Y-32388777D01*
X110900579Y-32434017D01*
X110864160Y-32511623D01*
X110833023Y-32559854D01*
X110821834Y-32567702D01*
X110799111Y-32590712D01*
X110798217Y-32599313D01*
X110786592Y-32641734D01*
X110756497Y-32719004D01*
X110724712Y-32791621D01*
X110680544Y-32894861D01*
X110645257Y-32989182D01*
X110631493Y-33034805D01*
X110609675Y-33105819D01*
X110590041Y-33147000D01*
X110570814Y-33193457D01*
X110550040Y-33271998D01*
X110545152Y-33295538D01*
X110528178Y-33382658D01*
X110515212Y-33449201D01*
X110513316Y-33458930D01*
X110503611Y-33507188D01*
X110485285Y-33597120D01*
X110461707Y-33712207D01*
X110452707Y-33756006D01*
X110437499Y-33839530D01*
X110425411Y-33931071D01*
X110416096Y-34038402D01*
X110409210Y-34169297D01*
X110404406Y-34331530D01*
X110401338Y-34532875D01*
X110399661Y-34781107D01*
X110399172Y-34959164D01*
X110399043Y-35228613D01*
X108970594Y-35228613D01*
X108997799Y-34912804D01*
X109040406Y-34566898D01*
X109092529Y-34267895D01*
X109103663Y-34216474D01*
X109122019Y-34130493D01*
X109146728Y-34009192D01*
X109173111Y-33875634D01*
X109179015Y-33845128D01*
X109241147Y-33538428D01*
X109305214Y-33251063D01*
X109364058Y-33013316D01*
X109393642Y-32900025D01*
X109421355Y-32792177D01*
X109433012Y-32745947D01*
X109462759Y-32641648D01*
X109509871Y-32494394D01*
X109569927Y-32316509D01*
X109638508Y-32120315D01*
X109711195Y-31918136D01*
X109783569Y-31722295D01*
X109851209Y-31545115D01*
X109909698Y-31398919D01*
X109947564Y-31311163D01*
X110052370Y-31086649D01*
X110164110Y-30855052D01*
X110275869Y-30630190D01*
X110380733Y-30425881D01*
X110471786Y-30255944D01*
X110506475Y-30194257D01*
X110567696Y-30086603D01*
X110615856Y-29999911D01*
X110644518Y-29945879D01*
X110649679Y-29933995D01*
X110664392Y-29906058D01*
X110704578Y-29837614D01*
X110764302Y-29738593D01*
X110837631Y-29618926D01*
X110846818Y-29604047D01*
X111166027Y-29133907D01*
X111526785Y-28686156D01*
X111923164Y-28265502D01*
X112349234Y-27876656D01*
X112799066Y-27524328D01*
X113266732Y-27213226D01*
X113746300Y-26948060D01*
X114231844Y-26733541D01*
X114630497Y-26598669D01*
X114729525Y-26569255D01*
X114816760Y-26542244D01*
X114838451Y-26535202D01*
X114977249Y-26493893D01*
X115122041Y-26461648D01*
X115282191Y-26437537D01*
X115467063Y-26420627D01*
X115686021Y-26409985D01*
X115948430Y-26404682D01*
X116160439Y-26403646D01*
X116412243Y-26404374D01*
G37*
D16*
%TO.C,J1*%
X188408000Y-89475000D02*
X189738000Y-89475000D01*
X188408000Y-90805000D02*
X188408000Y-89475000D01*
X188408000Y-92075000D02*
X188408000Y-99755000D01*
X188408000Y-92075000D02*
X191068000Y-92075000D01*
X188408000Y-99755000D02*
X191068000Y-99755000D01*
X191068000Y-92075000D02*
X191068000Y-99755000D01*
%TO.C,HUB1*%
X189111000Y-101397000D02*
X189111000Y-105457000D01*
X189111000Y-105457000D02*
X191381000Y-105457000D01*
X191381000Y-105457000D02*
X191381000Y-101397000D01*
%TO.C,C8*%
X179363748Y-99402500D02*
X180786252Y-99402500D01*
X179363748Y-101222500D02*
X180786252Y-101222500D01*
%TO.C,R9*%
X146572936Y-91402500D02*
X148027064Y-91402500D01*
X146572936Y-93222500D02*
X148027064Y-93222500D01*
%TO.C,J4*%
X196590000Y-38390000D02*
X196590000Y-40890000D01*
X196890000Y-38690000D02*
X196890000Y-51410000D01*
X196890000Y-51410000D02*
X200910000Y-51410000D01*
X198390000Y-38690000D02*
X198390000Y-39690000D01*
X198390000Y-39690000D02*
X196890000Y-39690000D01*
X198390000Y-50410000D02*
X196890000Y-50410000D01*
X198390000Y-51410000D02*
X198390000Y-50410000D01*
X199090000Y-38390000D02*
X196590000Y-38390000D01*
X199200000Y-38690000D02*
X199200000Y-39190000D01*
X199200000Y-39190000D02*
X200410000Y-39190000D01*
X199200000Y-50910000D02*
X199200000Y-51410000D01*
X200410000Y-39190000D02*
X200410000Y-50910000D01*
X200410000Y-50910000D02*
X199200000Y-50910000D01*
X200910000Y-38690000D02*
X196890000Y-38690000D01*
X200910000Y-51410000D02*
X200910000Y-38690000D01*
%TO.C,R3*%
X180827064Y-111602500D02*
X179372936Y-111602500D01*
X180827064Y-113422500D02*
X179372936Y-113422500D01*
%TO.C,R14*%
X171790000Y-60127064D02*
X171790000Y-58672936D01*
X173610000Y-60127064D02*
X173610000Y-58672936D01*
%TO.C,C5*%
X163148752Y-91402500D02*
X161726248Y-91402500D01*
X163148752Y-93222500D02*
X161726248Y-93222500D01*
%TO.C,R13*%
X171690000Y-67827064D02*
X171690000Y-66372936D01*
X173510000Y-67827064D02*
X173510000Y-66372936D01*
D15*
%TO.C,J3*%
X193866000Y-68073000D02*
X193866000Y-87883000D01*
X193866000Y-87883000D02*
X200596000Y-87883000D01*
X200596000Y-68073000D02*
X193866000Y-68073000D01*
X200596000Y-87883000D02*
X200596000Y-68073000D01*
D16*
%TO.C,D4*%
X102265000Y-105900000D02*
X102265000Y-109960000D01*
X102265000Y-109960000D02*
X104535000Y-109960000D01*
X104535000Y-109960000D02*
X104535000Y-105900000D01*
D14*
%TO.C,U3*%
X178333000Y-60099000D02*
X178333000Y-60674000D01*
X178333000Y-60099000D02*
X184083000Y-60099000D01*
X178333000Y-70174000D02*
X178333000Y-70749000D01*
X178333000Y-70749000D02*
X184083000Y-70749000D01*
X184083000Y-60099000D02*
X184083000Y-60674000D01*
X184083000Y-70174000D02*
X184083000Y-70749000D01*
D16*
X177833000Y-60674000D02*
X177593000Y-60344000D01*
X178073000Y-60344000D01*
X177833000Y-60674000D01*
G36*
X177833000Y-60674000D02*
G01*
X177593000Y-60344000D01*
X178073000Y-60344000D01*
X177833000Y-60674000D01*
G37*
%TO.C,MTRS1*%
X189111000Y-106731000D02*
X189111000Y-110791000D01*
X189111000Y-110791000D02*
X191381000Y-110791000D01*
X191381000Y-110791000D02*
X191381000Y-106731000D01*
%TO.C,C2*%
X163148752Y-99402500D02*
X161726248Y-99402500D01*
X163148752Y-101222500D02*
X161726248Y-101222500D01*
%TO.C,D5*%
X102265000Y-97900000D02*
X102265000Y-101960000D01*
X102265000Y-101960000D02*
X104535000Y-101960000D01*
X104535000Y-101960000D02*
X104535000Y-97900000D01*
%TO.C,C9*%
X150188748Y-111602500D02*
X151611252Y-111602500D01*
X150188748Y-113422500D02*
X151611252Y-113422500D01*
D14*
%TO.C,U2*%
X148025000Y-97787500D02*
X148025000Y-98362500D01*
X148025000Y-97787500D02*
X153775000Y-97787500D01*
X148025000Y-107862500D02*
X148025000Y-108437500D01*
X148025000Y-108437500D02*
X153775000Y-108437500D01*
X153775000Y-97787500D02*
X153775000Y-98362500D01*
X153775000Y-107862500D02*
X153775000Y-108437500D01*
D16*
X147525000Y-98362500D02*
X147285000Y-98032500D01*
X147765000Y-98032500D01*
X147525000Y-98362500D01*
G36*
X147525000Y-98362500D02*
G01*
X147285000Y-98032500D01*
X147765000Y-98032500D01*
X147525000Y-98362500D01*
G37*
%TO.C,R8*%
X155227064Y-91402500D02*
X153772936Y-91402500D01*
X155227064Y-93222500D02*
X153772936Y-93222500D01*
%TO.C,R12*%
X171790000Y-76227064D02*
X171790000Y-74772936D01*
X173610000Y-76227064D02*
X173610000Y-74772936D01*
%TO.C,D6*%
X197725000Y-61520000D02*
X197725000Y-65580000D01*
X197725000Y-65580000D02*
X199995000Y-65580000D01*
X199995000Y-65580000D02*
X199995000Y-61520000D01*
%TO.C,C6*%
X172211252Y-91402500D02*
X170788748Y-91402500D01*
X172211252Y-93222500D02*
X170788748Y-93222500D01*
%TO.C,R11*%
X188290000Y-65327064D02*
X188290000Y-63872936D01*
X190110000Y-65327064D02*
X190110000Y-63872936D01*
%TO.C,C4*%
X179363748Y-107402500D02*
X180786252Y-107402500D01*
X179363748Y-109222500D02*
X180786252Y-109222500D01*
%TO.C,R7*%
X188290000Y-69197936D02*
X188290000Y-70652064D01*
X190110000Y-69197936D02*
X190110000Y-70652064D01*
%TO.C,R10*%
X188290000Y-58672936D02*
X188290000Y-60127064D01*
X190110000Y-58672936D02*
X190110000Y-60127064D01*
%TO.C,IMU1*%
X189111000Y-112065000D02*
X189111000Y-116125000D01*
X189111000Y-116125000D02*
X191381000Y-116125000D01*
X191381000Y-116125000D02*
X191381000Y-112065000D01*
%TO.C,C7*%
X179363748Y-103402500D02*
X180786252Y-103402500D01*
X179363748Y-105222500D02*
X180786252Y-105222500D01*
%TD*%
M02*
