%TF.GenerationSoftware,KiCad,Pcbnew,8.0.4-8.0.4-0~ubuntu22.04.1*%
%TF.CreationDate,2024-08-29T14:54:41-03:00*%
%TF.ProjectId,communication_board,636f6d6d-756e-4696-9361-74696f6e5f62,rev?*%
%TF.SameCoordinates,Original*%
%TF.FileFunction,Copper,L2,Bot*%
%TF.FilePolarity,Positive*%
%FSLAX46Y46*%
G04 Gerber Fmt 4.6, Leading zero omitted, Abs format (unit mm)*
G04 Created by KiCad (PCBNEW 8.0.4-8.0.4-0~ubuntu22.04.1) date 2024-08-29 14:54:41*
%MOMM*%
%LPD*%
G01*
G04 APERTURE LIST*
G04 Aperture macros list*
%AMRoundRect*
0 Rectangle with rounded corners*
0 $1 Rounding radius*
0 $2 $3 $4 $5 $6 $7 $8 $9 X,Y pos of 4 corners*
0 Add a 4 corners polygon primitive as box body*
4,1,4,$2,$3,$4,$5,$6,$7,$8,$9,$2,$3,0*
0 Add four circle primitives for the rounded corners*
1,1,$1+$1,$2,$3*
1,1,$1+$1,$4,$5*
1,1,$1+$1,$6,$7*
1,1,$1+$1,$8,$9*
0 Add four rect primitives between the rounded corners*
20,1,$1+$1,$2,$3,$4,$5,0*
20,1,$1+$1,$4,$5,$6,$7,0*
20,1,$1+$1,$6,$7,$8,$9,0*
20,1,$1+$1,$8,$9,$2,$3,0*%
G04 Aperture macros list end*
%TA.AperFunction,ComponentPad*%
%ADD10C,0.800000*%
%TD*%
%TA.AperFunction,ComponentPad*%
%ADD11C,6.000000*%
%TD*%
%TA.AperFunction,ComponentPad*%
%ADD12R,1.700000X1.700000*%
%TD*%
%TA.AperFunction,ComponentPad*%
%ADD13O,1.700000X1.700000*%
%TD*%
%TA.AperFunction,ComponentPad*%
%ADD14RoundRect,0.250000X-0.725000X0.600000X-0.725000X-0.600000X0.725000X-0.600000X0.725000X0.600000X0*%
%TD*%
%TA.AperFunction,ComponentPad*%
%ADD15O,1.950000X1.700000*%
%TD*%
%TA.AperFunction,ComponentPad*%
%ADD16C,2.400000*%
%TD*%
%TA.AperFunction,ViaPad*%
%ADD17C,0.600000*%
%TD*%
%TA.AperFunction,Conductor*%
%ADD18C,0.200000*%
%TD*%
G04 APERTURE END LIST*
D10*
%TO.P,REF\u002A\u002A,1*%
%TO.N,N/C*%
X196050000Y-28300000D03*
X196709010Y-26709010D03*
X196709010Y-29890990D03*
X198300000Y-26050000D03*
D11*
X198300000Y-28300000D03*
D10*
X198300000Y-30550000D03*
X199890990Y-26709010D03*
X199890990Y-29890990D03*
X200550000Y-28300000D03*
%TD*%
%TO.P,REF\u002A\u002A,1*%
%TO.N,N/C*%
X196050000Y-119100000D03*
X196709010Y-117509010D03*
X196709010Y-120690990D03*
X198300000Y-116850000D03*
D11*
X198300000Y-119100000D03*
D10*
X198300000Y-121350000D03*
X199890990Y-117509010D03*
X199890990Y-120690990D03*
X200550000Y-119100000D03*
%TD*%
D12*
%TO.P,J2,1,Pin_1*%
%TO.N,GNDREF*%
X139000000Y-108300000D03*
D13*
%TO.P,J2,2,Pin_2*%
%TO.N,USB_PWR*%
X139000000Y-105760000D03*
%TO.P,J2,3,Pin_3*%
%TO.N,Net-(J2-Pin_3)*%
X139000000Y-103220000D03*
%TO.P,J2,4,Pin_4*%
%TO.N,Net-(J2-Pin_4)*%
X139000000Y-100680000D03*
%TD*%
D10*
%TO.P,REF\u002A\u002A,1*%
%TO.N,N/C*%
X101050000Y-119100000D03*
X101709010Y-117509010D03*
X101709010Y-120690990D03*
X103300000Y-116850000D03*
D11*
X103300000Y-119100000D03*
D10*
X103300000Y-121350000D03*
X104890990Y-117509010D03*
X104890990Y-120690990D03*
X105550000Y-119100000D03*
%TD*%
D12*
%TO.P,J1,1,Pin_1*%
%TO.N,Net-(J1-Pin_1)*%
X189738000Y-90805000D03*
D13*
%TO.P,J1,2,Pin_2*%
%TO.N,USB_D-*%
X189738000Y-93345000D03*
%TO.P,J1,3,Pin_3*%
%TO.N,USB_D+*%
X189738000Y-95885000D03*
%TO.P,J1,4,Pin_4*%
%TO.N,GNDREF*%
X189738000Y-98425000D03*
%TD*%
D14*
%TO.P,J4,1,1*%
%TO.N,GNDREF*%
X199200000Y-41300000D03*
D15*
%TO.P,J4,2,2*%
%TO.N,unconnected-(J4-Pad2)*%
X199200000Y-43800000D03*
%TO.P,J4,3,3*%
%TO.N,Net-(U4-A)*%
X199200000Y-46300000D03*
%TO.P,J4,4,4*%
%TO.N,Net-(U4-B)*%
X199200000Y-48800000D03*
%TD*%
D10*
%TO.P,REF\u002A\u002A,1*%
%TO.N,N/C*%
X101050000Y-28300000D03*
X101709010Y-26709010D03*
X101709010Y-29890990D03*
X103300000Y-26050000D03*
D11*
X103300000Y-28300000D03*
D10*
X103300000Y-30550000D03*
X104890990Y-26709010D03*
X104890990Y-29890990D03*
X105550000Y-28300000D03*
%TD*%
D16*
%TO.P,J3,1,1*%
%TO.N,Net-(J1-Pin_1)*%
X195531000Y-84713000D03*
%TO.P,J3,2,2*%
%TO.N,USB_PWR*%
X195531000Y-71243000D03*
%TO.P,J3,3,3*%
%TO.N,Net-(J1-Pin_1)*%
X198931000Y-84713000D03*
%TO.P,J3,4,4*%
%TO.N,USB_PWR*%
X198931000Y-71243000D03*
%TD*%
D17*
%TO.N,USB_PWR*%
X196088000Y-74676000D03*
X177546000Y-96312500D03*
X162306000Y-105918000D03*
%TO.N,Net-(U1-VD18)*%
X175768000Y-93726000D03*
X164084000Y-90170000D03*
%TO.N,3v3*%
X178600000Y-102200000D03*
X175800000Y-105200000D03*
%TO.N,Net-(HUB1-A)*%
X184150000Y-107315000D03*
X176530000Y-102870000D03*
%TO.N,Net-(U1-LED1{slash}EESCL)*%
X172720000Y-102235000D03*
X171450000Y-104775000D03*
%TO.N,Net-(D4-K)*%
X152000000Y-102000000D03*
X101600000Y-102000000D03*
%TO.N,Net-(D5-K)*%
X106200000Y-100900000D03*
X151000000Y-102750000D03*
%TO.N,MOTORS_USB_D-*%
X180975000Y-70104000D03*
X166497000Y-102997000D03*
%TO.N,MOTORS_USB_D+*%
X182118000Y-70104000D03*
X166116000Y-103759000D03*
%TD*%
D18*
%TO.N,USB_PWR*%
X176276000Y-100797529D02*
X171155529Y-105918000D01*
X196088000Y-77770500D02*
X196088000Y-74676000D01*
X177546000Y-96312500D02*
X176276000Y-97582500D01*
X176276000Y-97582500D02*
X176276000Y-100797529D01*
X177546000Y-96312500D02*
X196088000Y-77770500D01*
X171155529Y-105918000D02*
X162306000Y-105918000D01*
%TO.N,Net-(U1-VD18)*%
X164084000Y-90170000D02*
X175260000Y-90170000D01*
X175260000Y-90170000D02*
X175768000Y-90678000D01*
X175768000Y-90678000D02*
X175768000Y-93726000D01*
%TO.N,3v3*%
X175800000Y-105200000D02*
X175800000Y-102751471D01*
X176351471Y-102200000D02*
X178600000Y-102200000D01*
X175800000Y-102751471D02*
X176351471Y-102200000D01*
%TO.N,Net-(HUB1-A)*%
X180340000Y-106680000D02*
X176530000Y-102870000D01*
X183515000Y-106680000D02*
X180340000Y-106680000D01*
X184150000Y-107315000D02*
X183515000Y-106680000D01*
%TO.N,Net-(U1-LED1{slash}EESCL)*%
X171450000Y-104775000D02*
X171450000Y-103505000D01*
X171450000Y-103505000D02*
X172720000Y-102235000D01*
%TO.N,Net-(D4-K)*%
X148556000Y-98806000D02*
X104694000Y-98806000D01*
X151750000Y-102000000D02*
X148556000Y-98806000D01*
X152000000Y-102000000D02*
X151750000Y-102000000D01*
X104694000Y-98806000D02*
X101600000Y-101900000D01*
%TO.N,Net-(D5-K)*%
X107054000Y-101854000D02*
X150114000Y-101854000D01*
X151000000Y-102750000D02*
X151010000Y-102750000D01*
X106200000Y-100800000D02*
X106200000Y-100900000D01*
X106200000Y-100900000D02*
X106100000Y-100900000D01*
X106200000Y-100800000D02*
X106200000Y-100800000D01*
X106100000Y-100900000D02*
X107054000Y-101854000D01*
X151010000Y-102750000D02*
X151003000Y-102743000D01*
X150114000Y-101854000D02*
X151000000Y-102740000D01*
X151000000Y-102740000D02*
X151000000Y-102750000D01*
%TO.N,MOTORS_USB_D-*%
X166624000Y-102997000D02*
X166497000Y-102997000D01*
X180975000Y-70104000D02*
X181518000Y-69561000D01*
X181518000Y-69561000D02*
X181518000Y-90926285D01*
X181518000Y-90926285D02*
X168939285Y-103505000D01*
X167132000Y-103505000D02*
X166624000Y-102997000D01*
X168939285Y-103505000D02*
X167132000Y-103505000D01*
%TO.N,MOTORS_USB_D+*%
X182118000Y-90891971D02*
X168869971Y-104140000D01*
X168869971Y-104140000D02*
X166624000Y-104140000D01*
X166116000Y-103759000D02*
X165897000Y-103540000D01*
X166243000Y-103759000D02*
X166116000Y-103759000D01*
X182118000Y-70104000D02*
X182118000Y-90891971D01*
X166624000Y-104140000D02*
X166243000Y-103759000D01*
%TD*%
M02*
